M48
METRIC,LZ,000.000
;FILE_FORMAT=3:3
;TYPE=PLATED
;Layer: PTH_Through
;EasyEDA v6.5.29, 2023-07-18 11:10:11
;46a78cb779de4c589d7e1b01d2e58bcc,4bfb672c99b74c95bcb02992393faf10,10
;Gerber Generator version 0.2
;Holesize 1 = 0.305 mm
T01C0.305
;Holesize 2 = 0.306 mm
T02C0.306
;Holesize 3 = 0.961 mm
T03C0.961
;Holesize 4 = 1.400 mm
T04C1.400
%
G05
G90
T01
X061722Y074168
X063119Y074168
X065659Y074168
X069215Y074041
X071755Y074168
X074422Y073025
X061722Y090424
X062992Y092202
X066802Y092202
X068580Y090170
X074422Y090297
X058928Y085979
X059309Y093853
X062611Y087884
X058166Y078613
X060772Y077057
X059055Y072009
X058039Y070358
X075311Y087884
X073533Y094234
X072009Y085979
X070866Y076708
X073472Y075295
X076566Y072197
X072762Y070358
X066675Y070358
X065852Y094091
T02
X031322Y085928
X031322Y075928
X041322Y095928
X041322Y085928
X051322Y095928
X051322Y085928
X051322Y075928
X071322Y095928
X081322Y095928
X081322Y085928
X081322Y075928
T03
X047000Y082000
T04
X045085Y075252
X043180Y075252
M30
