G04 Layer: TopLayer*
G04 EasyEDA v6.5.29, 2023-07-06 22:18:42*
G04 26de12d81895481dba0b46256d096437,4bfb672c99b74c95bcb02992393faf10,10*
G04 Gerber Generator version 0.2*
G04 Scale: 100 percent, Rotated: No, Reflected: No *
G04 Dimensions in millimeters *
G04 leading zeros omitted , absolute positions ,4 integer and 5 decimal *
%FSLAX45Y45*%
%MOMM*%

%AMMACRO1*21,1,$1,$2,0,0,$3*%
%ADD10C,0.2540*%
%ADD11C,1.0000*%
%ADD12C,0.5000*%
%ADD13R,0.7000X1.2500*%
%ADD14R,1.2500X0.7000*%
%ADD15R,0.8000X1.0000*%
%ADD16MACRO1,0.864X0.8065X-90.0000*%
%ADD17MACRO1,0.864X0.8065X0.0000*%
%ADD18R,0.8640X0.8065*%
%ADD19MACRO1,0.864X0.8065X90.0000*%
%ADD20O,1.5999968X2.999994*%
%ADD21C,0.1000*%
%ADD22O,1.5999968X3.5999928*%
%ADD23C,4.4000*%
%ADD24C,0.7000*%
%ADD25C,0.6100*%
%ADD26C,0.0113*%

%LPD*%
G36*
X3775456Y6625894D02*
G01*
X3738067Y6626859D01*
X3701491Y6629653D01*
X3665118Y6634276D01*
X3628999Y6640779D01*
X3593236Y6649110D01*
X3557981Y6659168D01*
X3523284Y6671056D01*
X3489198Y6684670D01*
X3455873Y6700012D01*
X3423361Y6717030D01*
X3391763Y6735622D01*
X3361131Y6755841D01*
X3331565Y6777583D01*
X3303168Y6800748D01*
X3275939Y6825335D01*
X3250031Y6851294D01*
X3225444Y6878523D01*
X3202279Y6906971D01*
X3180537Y6936536D01*
X3160369Y6967169D01*
X3141776Y6998817D01*
X3124809Y7031329D01*
X3109518Y7064654D01*
X3095904Y7098741D01*
X3084068Y7133488D01*
X3073958Y7168743D01*
X3065678Y7204506D01*
X3059226Y7240574D01*
X3054604Y7276998D01*
X3051810Y7313574D01*
X3050895Y7350404D01*
X3050895Y8949537D01*
X3051860Y8986926D01*
X3054654Y9023502D01*
X3059328Y9059875D01*
X3065780Y9095994D01*
X3074111Y9131706D01*
X3084220Y9167012D01*
X3096056Y9201708D01*
X3109722Y9235744D01*
X3125012Y9269069D01*
X3142030Y9301581D01*
X3160623Y9333230D01*
X3180842Y9363811D01*
X3202584Y9393377D01*
X3225749Y9421825D01*
X3250387Y9449054D01*
X3276295Y9474962D01*
X3303524Y9499549D01*
X3331972Y9522714D01*
X3361588Y9544405D01*
X3392220Y9564624D01*
X3423818Y9583216D01*
X3456330Y9600184D01*
X3489706Y9615474D01*
X3523742Y9629089D01*
X3558489Y9640925D01*
X3593744Y9650984D01*
X3629507Y9659264D01*
X3665626Y9665766D01*
X3701999Y9670389D01*
X3738575Y9673132D01*
X3775456Y9674047D01*
X8074558Y9674047D01*
X8111896Y9673132D01*
X8148472Y9670338D01*
X8184896Y9665665D01*
X8221014Y9659162D01*
X8256727Y9650882D01*
X8291982Y9640773D01*
X8326678Y9628886D01*
X8360765Y9615271D01*
X8394090Y9599930D01*
X8426602Y9582962D01*
X8458200Y9564319D01*
X8488832Y9544151D01*
X8518398Y9522409D01*
X8546846Y9499193D01*
X8574024Y9474606D01*
X8599982Y9448647D01*
X8624570Y9421418D01*
X8647734Y9392970D01*
X8669426Y9363405D01*
X8689594Y9332772D01*
X8708186Y9301175D01*
X8725154Y9268612D01*
X8740495Y9235287D01*
X8754059Y9201200D01*
X8765946Y9166504D01*
X8776004Y9131249D01*
X8784285Y9095486D01*
X8790736Y9059367D01*
X8795359Y9022994D01*
X8798153Y8986418D01*
X8799068Y8949537D01*
X8799068Y7350404D01*
X8798102Y7313066D01*
X8795308Y7276490D01*
X8790686Y7240066D01*
X8784183Y7203998D01*
X8775903Y7168235D01*
X8765794Y7132980D01*
X8753906Y7098284D01*
X8740292Y7064197D01*
X8724950Y7030872D01*
X8707932Y6998360D01*
X8689340Y6966762D01*
X8669121Y6936130D01*
X8647430Y6906564D01*
X8624214Y6878167D01*
X8599627Y6850938D01*
X8573668Y6824980D01*
X8546439Y6800392D01*
X8517991Y6777228D01*
X8488426Y6755536D01*
X8457793Y6735368D01*
X8426145Y6716775D01*
X8393633Y6699808D01*
X8360308Y6684467D01*
X8326221Y6670903D01*
X8291474Y6659016D01*
X8256219Y6648958D01*
X8220506Y6640677D01*
X8184388Y6634225D01*
X8147964Y6629603D01*
X8111388Y6626809D01*
X8074558Y6625894D01*
G37*

%LPC*%
G36*
X4166108Y6743192D02*
G01*
X7848092Y6743192D01*
X7856118Y6744004D01*
X7863331Y6746189D01*
X7870037Y6749745D01*
X7876235Y6754875D01*
X7951724Y6830364D01*
X7956854Y6836562D01*
X7960410Y6843268D01*
X7962595Y6850481D01*
X7963408Y6858508D01*
X7963408Y7479792D01*
X7962595Y7487818D01*
X7960410Y7495031D01*
X7956854Y7501737D01*
X7951724Y7507935D01*
X7685735Y7773924D01*
X7679537Y7779054D01*
X7672831Y7782610D01*
X7665618Y7784795D01*
X7657592Y7785608D01*
X7456170Y7785608D01*
X7448143Y7784795D01*
X7440930Y7782610D01*
X7434224Y7779054D01*
X7428026Y7773924D01*
X7406081Y7752029D01*
X7402575Y7749743D01*
X7379208Y7740599D01*
X7375550Y7739888D01*
X7339838Y7739888D01*
X7332573Y7739024D01*
X7311237Y7733842D01*
X7308850Y7733588D01*
X7306462Y7733842D01*
X7284720Y7739125D01*
X7277862Y7739888D01*
X7198359Y7739888D01*
X7192060Y7739176D01*
X7186574Y7737297D01*
X7181697Y7734198D01*
X7177582Y7730134D01*
X7174534Y7725206D01*
X7172401Y7719161D01*
X7170267Y7715605D01*
X7166864Y7713167D01*
X7162800Y7712354D01*
X7158736Y7713167D01*
X7155332Y7715605D01*
X7153198Y7719161D01*
X7151065Y7725206D01*
X7148017Y7730134D01*
X7143902Y7734198D01*
X7139025Y7737297D01*
X7133539Y7739176D01*
X7127240Y7739888D01*
X7113981Y7739888D01*
X7113981Y7698740D01*
X7161733Y7698740D01*
X7165644Y7697978D01*
X7168896Y7695793D01*
X7171131Y7692491D01*
X7171893Y7688580D01*
X7171893Y7653020D01*
X7171131Y7649108D01*
X7168896Y7645806D01*
X7165644Y7643622D01*
X7161733Y7642859D01*
X7113981Y7642859D01*
X7113981Y7601712D01*
X7127240Y7601712D01*
X7133539Y7602423D01*
X7139025Y7604302D01*
X7143902Y7607401D01*
X7148017Y7611465D01*
X7151065Y7616393D01*
X7153198Y7622438D01*
X7155332Y7625994D01*
X7158736Y7628432D01*
X7162800Y7629245D01*
X7166864Y7628432D01*
X7170267Y7625994D01*
X7172401Y7622438D01*
X7174534Y7616393D01*
X7177582Y7611465D01*
X7181697Y7607401D01*
X7186574Y7604302D01*
X7192060Y7602423D01*
X7198359Y7601712D01*
X7276134Y7601712D01*
X7279995Y7600899D01*
X7283297Y7598714D01*
X7285532Y7595412D01*
X7286294Y7591552D01*
X7286294Y7567117D01*
X7323328Y7567117D01*
X7323328Y7592161D01*
X7324242Y7596327D01*
X7326731Y7599730D01*
X7330440Y7601864D01*
X7334656Y7602270D01*
X7339838Y7601712D01*
X7360869Y7601712D01*
X7364780Y7600899D01*
X7368082Y7598714D01*
X7370267Y7595412D01*
X7371029Y7591552D01*
X7371029Y7567117D01*
X7408113Y7567117D01*
X7408113Y7591552D01*
X7408875Y7595412D01*
X7411059Y7598714D01*
X7414361Y7600899D01*
X7419340Y7601712D01*
X7425639Y7602423D01*
X7431125Y7604302D01*
X7436002Y7607401D01*
X7440117Y7611465D01*
X7443165Y7616393D01*
X7445248Y7622336D01*
X7447584Y7626045D01*
X7451191Y7628432D01*
X7455560Y7629093D01*
X7459725Y7627874D01*
X7463028Y7624978D01*
X7464806Y7621016D01*
X7476083Y7565796D01*
X7476286Y7563764D01*
X7476286Y7467549D01*
X7476998Y7461250D01*
X7478928Y7455763D01*
X7481976Y7450886D01*
X7486091Y7446772D01*
X7490968Y7443724D01*
X7496454Y7441793D01*
X7502753Y7441082D01*
X7571638Y7441082D01*
X7577937Y7441793D01*
X7583424Y7443724D01*
X7588300Y7446772D01*
X7592415Y7450886D01*
X7595463Y7455763D01*
X7597394Y7461250D01*
X7598105Y7467549D01*
X7598105Y7591450D01*
X7597343Y7598257D01*
X7594498Y7610856D01*
X7594447Y7615123D01*
X7595819Y7621930D01*
X7596479Y7628128D01*
X7596479Y7698231D01*
X7597241Y7702143D01*
X7599425Y7705394D01*
X7602728Y7707630D01*
X7606639Y7708392D01*
X7637881Y7708392D01*
X7641793Y7707630D01*
X7645095Y7705394D01*
X7822793Y7527747D01*
X7824978Y7524445D01*
X7825740Y7520533D01*
X7825740Y7505953D01*
X7840370Y7505953D01*
X7844231Y7505141D01*
X7847533Y7502956D01*
X7880248Y7470241D01*
X7882432Y7466939D01*
X7883194Y7463078D01*
X7882432Y7459167D01*
X7880248Y7455865D01*
X7876946Y7453680D01*
X7873034Y7452918D01*
X7825740Y7452918D01*
X7825740Y7405166D01*
X7824978Y7401255D01*
X7822793Y7398003D01*
X7819491Y7395768D01*
X7815580Y7395006D01*
X7780020Y7395006D01*
X7776108Y7395768D01*
X7772806Y7398003D01*
X7770622Y7401255D01*
X7769859Y7405166D01*
X7769859Y7452918D01*
X7728712Y7452918D01*
X7728712Y7439659D01*
X7729423Y7433360D01*
X7731302Y7427874D01*
X7734401Y7422997D01*
X7738465Y7418882D01*
X7743393Y7415834D01*
X7749438Y7413701D01*
X7752994Y7411567D01*
X7755432Y7408164D01*
X7756245Y7404100D01*
X7755432Y7400036D01*
X7752994Y7396632D01*
X7749438Y7394498D01*
X7743393Y7392365D01*
X7738465Y7389317D01*
X7734401Y7385202D01*
X7731302Y7380325D01*
X7729423Y7374839D01*
X7728712Y7368540D01*
X7728712Y7290765D01*
X7727899Y7286904D01*
X7725714Y7283602D01*
X7722412Y7281367D01*
X7718552Y7280605D01*
X7694117Y7280605D01*
X7694117Y7243572D01*
X7719161Y7243572D01*
X7723327Y7242657D01*
X7726730Y7240168D01*
X7728864Y7236459D01*
X7729270Y7232243D01*
X7728712Y7227062D01*
X7728712Y7206030D01*
X7727899Y7202119D01*
X7725714Y7198817D01*
X7722412Y7196632D01*
X7718552Y7195870D01*
X7694117Y7195870D01*
X7694117Y7158786D01*
X7718552Y7158786D01*
X7722412Y7158024D01*
X7725714Y7155840D01*
X7727899Y7152538D01*
X7728712Y7147559D01*
X7729423Y7141260D01*
X7731302Y7135774D01*
X7734401Y7130897D01*
X7738465Y7126782D01*
X7743393Y7123734D01*
X7749336Y7121652D01*
X7753045Y7119315D01*
X7755432Y7115708D01*
X7756093Y7111339D01*
X7754874Y7107174D01*
X7751978Y7103872D01*
X7748016Y7102094D01*
X7692847Y7090816D01*
X7690815Y7090613D01*
X7594549Y7090613D01*
X7588250Y7089902D01*
X7582763Y7087971D01*
X7577886Y7084923D01*
X7573772Y7080808D01*
X7570724Y7075931D01*
X7568793Y7070445D01*
X7568082Y7064146D01*
X7568082Y6995261D01*
X7568793Y6988962D01*
X7570724Y6983475D01*
X7573772Y6978599D01*
X7577886Y6974484D01*
X7582763Y6971436D01*
X7588250Y6969506D01*
X7594549Y6968794D01*
X7718399Y6968794D01*
X7725359Y6969607D01*
X7737856Y6972401D01*
X7742123Y6972452D01*
X7748930Y6971080D01*
X7755128Y6970420D01*
X7825231Y6970420D01*
X7829143Y6969658D01*
X7832394Y6967474D01*
X7834630Y6964172D01*
X7835392Y6960260D01*
X7835392Y6916318D01*
X7834630Y6912406D01*
X7832394Y6909104D01*
X7797495Y6874205D01*
X7794193Y6871970D01*
X7790281Y6871208D01*
X6898792Y6871208D01*
X6894880Y6871970D01*
X6891578Y6874205D01*
X6889394Y6877456D01*
X6888632Y6881368D01*
X6889394Y6885279D01*
X6891578Y6888530D01*
X6957669Y6954621D01*
X6961124Y6956907D01*
X6984187Y6966000D01*
X6987895Y6966712D01*
X7023862Y6966712D01*
X7031126Y6967575D01*
X7052462Y6972757D01*
X7054850Y6973011D01*
X7057237Y6972757D01*
X7078980Y6967474D01*
X7085838Y6966712D01*
X7165340Y6966712D01*
X7171639Y6967423D01*
X7177125Y6969302D01*
X7182002Y6972401D01*
X7186117Y6976465D01*
X7189165Y6981393D01*
X7191298Y6987438D01*
X7193432Y6990994D01*
X7196836Y6993432D01*
X7200900Y6994245D01*
X7204964Y6993432D01*
X7208367Y6990994D01*
X7210501Y6987438D01*
X7212634Y6981393D01*
X7215682Y6976465D01*
X7219797Y6972401D01*
X7224674Y6969302D01*
X7230160Y6967423D01*
X7236459Y6966712D01*
X7249718Y6966712D01*
X7249718Y7007859D01*
X7201966Y7007859D01*
X7198055Y7008622D01*
X7194803Y7010806D01*
X7192568Y7014108D01*
X7191806Y7018020D01*
X7191806Y7053580D01*
X7192568Y7057491D01*
X7194803Y7060793D01*
X7198055Y7062978D01*
X7201966Y7063740D01*
X7249718Y7063740D01*
X7249718Y7104888D01*
X7236459Y7104888D01*
X7230160Y7104176D01*
X7224674Y7102297D01*
X7219797Y7099198D01*
X7215682Y7095134D01*
X7212634Y7090206D01*
X7210501Y7084161D01*
X7208367Y7080605D01*
X7204964Y7078167D01*
X7200900Y7077354D01*
X7196836Y7078167D01*
X7193432Y7080605D01*
X7191298Y7084161D01*
X7189165Y7090206D01*
X7186117Y7095134D01*
X7182002Y7099198D01*
X7177125Y7102297D01*
X7171639Y7104176D01*
X7165340Y7104888D01*
X7085177Y7104888D01*
X7081418Y7105650D01*
X7078167Y7107732D01*
X7075931Y7110882D01*
X7075017Y7114590D01*
X7075576Y7118400D01*
X7076694Y7121550D01*
X7077405Y7127900D01*
X7077405Y7152182D01*
X7040372Y7152182D01*
X7040372Y7114438D01*
X7039457Y7110272D01*
X7036968Y7106869D01*
X7033259Y7104735D01*
X7029043Y7104329D01*
X7023862Y7104888D01*
X7002830Y7104888D01*
X6998919Y7105700D01*
X6995617Y7107885D01*
X6993432Y7111187D01*
X6992670Y7115048D01*
X6992670Y7152182D01*
X6955586Y7152182D01*
X6955586Y7127900D01*
X6956298Y7121550D01*
X6957415Y7118400D01*
X6957974Y7114590D01*
X6957059Y7110882D01*
X6954824Y7107732D01*
X6951573Y7105650D01*
X6947814Y7104888D01*
X6944359Y7104888D01*
X6938060Y7104176D01*
X6932574Y7102297D01*
X6927697Y7099198D01*
X6923582Y7095134D01*
X6920534Y7090206D01*
X6918452Y7084263D01*
X6916115Y7080554D01*
X6912508Y7078167D01*
X6908139Y7077506D01*
X6903974Y7078725D01*
X6900672Y7081621D01*
X6898894Y7085584D01*
X6887616Y7140803D01*
X6887413Y7142835D01*
X6887413Y7251750D01*
X6886702Y7258050D01*
X6884771Y7263536D01*
X6881723Y7268413D01*
X6877608Y7272528D01*
X6872731Y7275575D01*
X6867245Y7277506D01*
X6860946Y7278217D01*
X6792061Y7278217D01*
X6785762Y7277506D01*
X6780275Y7275575D01*
X6775399Y7272528D01*
X6771284Y7268413D01*
X6768236Y7263536D01*
X6766306Y7258050D01*
X6765594Y7251750D01*
X6765594Y7127849D01*
X6766356Y7121042D01*
X6770573Y7102398D01*
X6770624Y7098131D01*
X6767880Y7084669D01*
X6767220Y7078472D01*
X6767220Y6993178D01*
X6767931Y6986828D01*
X6769862Y6981393D01*
X6772960Y6976465D01*
X6777024Y6972401D01*
X6781952Y6969302D01*
X6787388Y6967423D01*
X6793738Y6966712D01*
X6836003Y6966712D01*
X6839864Y6965899D01*
X6843166Y6963714D01*
X6845401Y6960412D01*
X6846163Y6956552D01*
X6845401Y6952640D01*
X6843166Y6949338D01*
X6818833Y6925005D01*
X6815531Y6922770D01*
X6811619Y6922008D01*
X6339992Y6922008D01*
X6336080Y6922770D01*
X6332778Y6925005D01*
X6330594Y6928256D01*
X6329832Y6932168D01*
X6330594Y6936079D01*
X6332778Y6939330D01*
X6348069Y6954621D01*
X6351524Y6956907D01*
X6374587Y6966000D01*
X6378295Y6966712D01*
X6414262Y6966712D01*
X6421526Y6967575D01*
X6442862Y6972757D01*
X6445250Y6973011D01*
X6447637Y6972757D01*
X6469380Y6967474D01*
X6476238Y6966712D01*
X6555740Y6966712D01*
X6562039Y6967423D01*
X6567525Y6969302D01*
X6572402Y6972401D01*
X6576517Y6976465D01*
X6579565Y6981393D01*
X6581698Y6987438D01*
X6583832Y6990994D01*
X6587236Y6993432D01*
X6591300Y6994245D01*
X6595364Y6993432D01*
X6598767Y6990994D01*
X6600901Y6987438D01*
X6603034Y6981393D01*
X6606082Y6976465D01*
X6610197Y6972401D01*
X6615074Y6969302D01*
X6620560Y6967423D01*
X6626859Y6966712D01*
X6640118Y6966712D01*
X6640118Y7007859D01*
X6592366Y7007859D01*
X6588455Y7008622D01*
X6585203Y7010806D01*
X6582968Y7014108D01*
X6582206Y7018020D01*
X6582206Y7053580D01*
X6582968Y7057491D01*
X6585203Y7060793D01*
X6588455Y7062978D01*
X6592366Y7063740D01*
X6640118Y7063740D01*
X6640118Y7115048D01*
X6640880Y7119010D01*
X6643166Y7122312D01*
X6643166Y7150608D01*
X6606082Y7150608D01*
X6606082Y7126274D01*
X6606794Y7119975D01*
X6608724Y7114489D01*
X6610858Y7111034D01*
X6612178Y7107936D01*
X6612381Y7104532D01*
X6611416Y7101230D01*
X6609435Y7098487D01*
X6606082Y7095134D01*
X6603034Y7090206D01*
X6600901Y7084161D01*
X6598767Y7080605D01*
X6595364Y7078167D01*
X6591300Y7077354D01*
X6587236Y7078167D01*
X6583832Y7080605D01*
X6581698Y7084161D01*
X6579565Y7090206D01*
X6576517Y7095134D01*
X6572402Y7099198D01*
X6567525Y7102297D01*
X6562039Y7104176D01*
X6555740Y7104888D01*
X6546240Y7104888D01*
X6542481Y7105650D01*
X6539230Y7107732D01*
X6536994Y7110882D01*
X6536080Y7114590D01*
X6537198Y7119975D01*
X6537909Y7126274D01*
X6537909Y7250125D01*
X6537198Y7256475D01*
X6535267Y7261910D01*
X6532219Y7266838D01*
X6528104Y7270902D01*
X6523228Y7274001D01*
X6517741Y7275880D01*
X6511442Y7276592D01*
X6442557Y7276592D01*
X6436309Y7275880D01*
X6429857Y7273594D01*
X6363004Y7240168D01*
X6358483Y7239101D01*
X6350203Y7239101D01*
X6345580Y7238898D01*
X6341160Y7238339D01*
X6336842Y7237374D01*
X6332575Y7236053D01*
X6328511Y7234326D01*
X6324549Y7232294D01*
X6320790Y7229906D01*
X6317284Y7227214D01*
X6313830Y7224064D01*
X6244031Y7154214D01*
X6242761Y7153148D01*
X6168898Y7100366D01*
X6164630Y7096607D01*
X6161176Y7091934D01*
X6158839Y7086650D01*
X6157722Y7080554D01*
X6157620Y6993178D01*
X6159093Y6982510D01*
X6158179Y6978751D01*
X6155994Y6975602D01*
X6152743Y6973519D01*
X6148933Y6972808D01*
X5842304Y6972808D01*
X5838494Y6973519D01*
X5835243Y6975602D01*
X5833059Y6978751D01*
X5832144Y6982510D01*
X5832703Y6986320D01*
X5834176Y6990588D01*
X5834888Y6996938D01*
X5834888Y7010146D01*
X5793740Y7010146D01*
X5793740Y6982968D01*
X5792978Y6979056D01*
X5790793Y6975805D01*
X5787491Y6973570D01*
X5783580Y6972808D01*
X5748020Y6972808D01*
X5744108Y6973570D01*
X5740806Y6975805D01*
X5738622Y6979056D01*
X5737860Y6982968D01*
X5737860Y7010146D01*
X5696712Y7010146D01*
X5696712Y6996938D01*
X5697423Y6990588D01*
X5698896Y6986320D01*
X5699455Y6982510D01*
X5698540Y6978751D01*
X5696356Y6975602D01*
X5693105Y6973519D01*
X5689295Y6972808D01*
X5630316Y6972808D01*
X5626404Y6973570D01*
X5623102Y6975805D01*
X5620918Y6979056D01*
X5620156Y6982968D01*
X5620918Y6986879D01*
X5623102Y6990130D01*
X5693156Y7060234D01*
X5696458Y7062419D01*
X5700369Y7063181D01*
X5737860Y7063181D01*
X5737860Y7100671D01*
X5738622Y7104583D01*
X5741009Y7108037D01*
X5742889Y7109510D01*
X5745073Y7110526D01*
X5776569Y7120585D01*
X5779668Y7121093D01*
X5783580Y7121093D01*
X5787491Y7120331D01*
X5790793Y7118096D01*
X5792978Y7114844D01*
X5793740Y7110933D01*
X5793740Y7063181D01*
X5834888Y7063181D01*
X5834888Y7076440D01*
X5834176Y7082739D01*
X5832297Y7088225D01*
X5829198Y7093102D01*
X5825134Y7097217D01*
X5820206Y7100265D01*
X5814161Y7102398D01*
X5810605Y7104532D01*
X5808167Y7107936D01*
X5807354Y7112000D01*
X5808167Y7116064D01*
X5810605Y7119467D01*
X5814161Y7121601D01*
X5820206Y7123734D01*
X5825134Y7126782D01*
X5829198Y7130897D01*
X5832094Y7135469D01*
X5834684Y7138263D01*
X5838088Y7139889D01*
X5867908Y7139990D01*
X5867908Y7177024D01*
X5845048Y7177024D01*
X5841187Y7177836D01*
X5837885Y7180021D01*
X5835700Y7183323D01*
X5834888Y7187184D01*
X5834888Y7214565D01*
X5835700Y7218476D01*
X5837885Y7221778D01*
X5841187Y7223963D01*
X5845048Y7224725D01*
X5867908Y7224725D01*
X5867908Y7261809D01*
X5843219Y7261758D01*
X5839358Y7262063D01*
X5835904Y7263790D01*
X5833313Y7266736D01*
X5832043Y7270394D01*
X5832195Y7274255D01*
X5834126Y7282180D01*
X5834888Y7289038D01*
X5834888Y7319822D01*
X5835700Y7323734D01*
X5837885Y7327036D01*
X5841187Y7329220D01*
X5845048Y7329982D01*
X5967425Y7329982D01*
X5973775Y7330694D01*
X5979210Y7332624D01*
X5984138Y7335672D01*
X5988202Y7339787D01*
X5991301Y7344664D01*
X5993180Y7350150D01*
X5993892Y7356449D01*
X5993892Y7425334D01*
X5993180Y7431633D01*
X5991301Y7437120D01*
X5988202Y7441996D01*
X5984138Y7446111D01*
X5979210Y7449159D01*
X5976162Y7450328D01*
X5865926Y7503769D01*
X5863183Y7505750D01*
X5853531Y7515402D01*
X5850077Y7518552D01*
X5846572Y7521244D01*
X5842965Y7523530D01*
X5837123Y7526324D01*
X5834786Y7527848D01*
X5832957Y7530033D01*
X5829249Y7535824D01*
X5825134Y7539939D01*
X5820206Y7543038D01*
X5814771Y7544968D01*
X5808421Y7545679D01*
X5731713Y7545679D01*
X5727852Y7546441D01*
X5724550Y7548625D01*
X5722315Y7551928D01*
X5721553Y7555839D01*
X5722315Y7559700D01*
X5724550Y7563002D01*
X5941669Y7780121D01*
X5945124Y7782407D01*
X5968187Y7791500D01*
X5971895Y7792212D01*
X6007963Y7792212D01*
X6012027Y7791856D01*
X6015583Y7789925D01*
X6018123Y7786725D01*
X6019241Y7782763D01*
X6018682Y7778750D01*
X6017006Y7773924D01*
X6016294Y7767624D01*
X6016294Y7743291D01*
X6053328Y7743291D01*
X6053328Y7782763D01*
X6054242Y7786928D01*
X6056731Y7790332D01*
X6060440Y7792466D01*
X6064656Y7792872D01*
X6070701Y7792212D01*
X6090869Y7792212D01*
X6094780Y7791399D01*
X6098082Y7789214D01*
X6100267Y7785912D01*
X6101029Y7782052D01*
X6101029Y7743291D01*
X6138113Y7743291D01*
X6138113Y7767624D01*
X6137402Y7773924D01*
X6135725Y7778699D01*
X6135166Y7782509D01*
X6136081Y7786217D01*
X6138316Y7789367D01*
X6141567Y7791450D01*
X6145326Y7792212D01*
X6150203Y7792212D01*
X6156502Y7792923D01*
X6161989Y7794802D01*
X6166866Y7797901D01*
X6170980Y7801965D01*
X6174028Y7806893D01*
X6176162Y7812938D01*
X6178448Y7816646D01*
X6182055Y7819085D01*
X6186322Y7819745D01*
X6190488Y7818577D01*
X6193840Y7815783D01*
X6195923Y7810703D01*
X6206185Y7774838D01*
X6206540Y7771282D01*
X6206286Y7767828D01*
X6206286Y7643774D01*
X6206998Y7637424D01*
X6208928Y7631988D01*
X6211976Y7627061D01*
X6216091Y7622997D01*
X6220968Y7619898D01*
X6226454Y7618018D01*
X6232753Y7617307D01*
X6301638Y7617307D01*
X6307937Y7618018D01*
X6313424Y7619898D01*
X6318300Y7622997D01*
X6322415Y7627061D01*
X6325463Y7631988D01*
X6327394Y7637424D01*
X6328105Y7643774D01*
X6328105Y7767878D01*
X6327851Y7771942D01*
X6324904Y7794091D01*
X6324854Y7796631D01*
X6327089Y7814665D01*
X6327343Y7818424D01*
X6327343Y7903921D01*
X6326632Y7910271D01*
X6324701Y7915706D01*
X6321602Y7920634D01*
X6317538Y7924698D01*
X6312611Y7927797D01*
X6307175Y7929676D01*
X6300825Y7930388D01*
X6221323Y7930388D01*
X6215024Y7929676D01*
X6209538Y7927797D01*
X6204661Y7924698D01*
X6200546Y7920634D01*
X6197498Y7915706D01*
X6195364Y7909661D01*
X6193231Y7906105D01*
X6189827Y7903667D01*
X6185763Y7902854D01*
X6181699Y7903667D01*
X6178296Y7906105D01*
X6176162Y7909661D01*
X6174028Y7915706D01*
X6170980Y7920634D01*
X6166866Y7924698D01*
X6161989Y7927797D01*
X6156502Y7929676D01*
X6150203Y7930388D01*
X6070701Y7930388D01*
X6063437Y7929524D01*
X6041694Y7924241D01*
X6039307Y7923987D01*
X6036868Y7924241D01*
X6014720Y7929625D01*
X6007862Y7930388D01*
X5928360Y7930388D01*
X5922060Y7929676D01*
X5916574Y7927797D01*
X5911697Y7924698D01*
X5907582Y7920634D01*
X5904534Y7915706D01*
X5902401Y7909661D01*
X5900267Y7906105D01*
X5896864Y7903667D01*
X5892800Y7902854D01*
X5888736Y7903667D01*
X5885332Y7906105D01*
X5883198Y7909661D01*
X5881065Y7915706D01*
X5878017Y7920634D01*
X5873902Y7924698D01*
X5869025Y7927797D01*
X5863539Y7929676D01*
X5857240Y7930388D01*
X5843981Y7930388D01*
X5843981Y7889240D01*
X5891733Y7889240D01*
X5895644Y7888478D01*
X5898896Y7886293D01*
X5901131Y7882991D01*
X5901893Y7879080D01*
X5901893Y7875168D01*
X5901385Y7872069D01*
X5891326Y7840573D01*
X5890310Y7838389D01*
X5888685Y7836306D01*
X5885383Y7834122D01*
X5881471Y7833359D01*
X5843981Y7833359D01*
X5843981Y7795869D01*
X5843219Y7791958D01*
X5841034Y7788656D01*
X5384800Y7332472D01*
X5382107Y7330541D01*
X5378907Y7329576D01*
X5360212Y7327138D01*
X5357215Y7327188D01*
X5354421Y7328103D01*
X5349138Y7330744D01*
X5335981Y7335164D01*
X5322417Y7337856D01*
X5308600Y7338771D01*
X5294782Y7337856D01*
X5281218Y7335164D01*
X5268061Y7330744D01*
X5255666Y7324598D01*
X5244134Y7316927D01*
X5233720Y7307783D01*
X5224576Y7297369D01*
X5216906Y7285837D01*
X5210759Y7273442D01*
X5206339Y7260285D01*
X5203596Y7246721D01*
X5202682Y7232548D01*
X5202682Y7093254D01*
X5203596Y7079081D01*
X5206339Y7065518D01*
X5210759Y7052360D01*
X5217261Y7039406D01*
X5218836Y7035342D01*
X5218582Y7031024D01*
X5216550Y7027164D01*
X5213096Y7024522D01*
X5208828Y7023608D01*
X5189118Y7023608D01*
X5185206Y7024370D01*
X5181904Y7026605D01*
X5169001Y7039508D01*
X5166715Y7043064D01*
X5158384Y7065009D01*
X5157724Y7067803D01*
X5157876Y7070598D01*
X5159603Y7079081D01*
X5160518Y7093254D01*
X5160518Y7232548D01*
X5159603Y7246721D01*
X5156860Y7260285D01*
X5152440Y7273442D01*
X5146294Y7285837D01*
X5138623Y7297369D01*
X5129479Y7307783D01*
X5119065Y7316927D01*
X5107533Y7324598D01*
X5095138Y7330744D01*
X5081981Y7335164D01*
X5068417Y7337856D01*
X5055006Y7338771D01*
X5051298Y7339736D01*
X5048199Y7342022D01*
X5046167Y7345324D01*
X5045506Y7349134D01*
X5046319Y7352893D01*
X5048504Y7356094D01*
X5893104Y8200694D01*
X5896406Y8202930D01*
X5900318Y8203692D01*
X7225030Y8203692D01*
X7233056Y8204504D01*
X7240270Y8206689D01*
X7246975Y8210245D01*
X7253173Y8215375D01*
X7554569Y8516721D01*
X7558024Y8519007D01*
X7581087Y8528100D01*
X7584795Y8528812D01*
X7620762Y8528812D01*
X7628026Y8529675D01*
X7655712Y8536381D01*
X7658100Y8536686D01*
X7660487Y8536381D01*
X7688580Y8529574D01*
X7695438Y8528812D01*
X7774940Y8528812D01*
X7781239Y8529523D01*
X7786725Y8531402D01*
X7791602Y8534501D01*
X7795717Y8538565D01*
X7798765Y8543493D01*
X7800898Y8549538D01*
X7803032Y8553094D01*
X7806436Y8555532D01*
X7810500Y8556345D01*
X7814564Y8555532D01*
X7817967Y8553094D01*
X7820101Y8549538D01*
X7822234Y8543493D01*
X7825282Y8538565D01*
X7829397Y8534501D01*
X7834274Y8531402D01*
X7839760Y8529523D01*
X7846059Y8528812D01*
X7925562Y8528812D01*
X7931912Y8529523D01*
X7937347Y8531402D01*
X7942275Y8534501D01*
X7946339Y8538565D01*
X7949438Y8543493D01*
X7951368Y8548928D01*
X7952079Y8555278D01*
X7952079Y8640572D01*
X7951419Y8646769D01*
X7937042Y8717178D01*
X7936839Y8719210D01*
X7936839Y8770416D01*
X7936636Y8775039D01*
X7936077Y8779459D01*
X7935112Y8783777D01*
X7933791Y8788044D01*
X7932064Y8792108D01*
X7930032Y8796070D01*
X7927644Y8799830D01*
X7924952Y8803335D01*
X7921802Y8806789D01*
X7723682Y9004909D01*
X7721346Y9008465D01*
X7690510Y9089136D01*
X7687665Y9094724D01*
X7684109Y9098991D01*
X7679537Y9102547D01*
X7674254Y9104985D01*
X7668615Y9106154D01*
X7665872Y9106306D01*
X7586675Y9106306D01*
X7580375Y9105595D01*
X7574889Y9103664D01*
X7570012Y9100616D01*
X7565898Y9096502D01*
X7562850Y9091625D01*
X7560919Y9086138D01*
X7560208Y9079839D01*
X7560208Y8980982D01*
X7560919Y8974632D01*
X7562850Y8969197D01*
X7565898Y8964269D01*
X7570012Y8960205D01*
X7574889Y8957106D01*
X7580375Y8955227D01*
X7586675Y8954516D01*
X7596936Y8954516D01*
X7601305Y8953500D01*
X7656525Y8927185D01*
X7659370Y8925204D01*
X7832039Y8752484D01*
X7834274Y8749233D01*
X7835036Y8745321D01*
X7835036Y8720277D01*
X7834833Y8718245D01*
X7820406Y8647684D01*
X7818628Y8643721D01*
X7815325Y8640826D01*
X7811160Y8639606D01*
X7806791Y8640267D01*
X7803184Y8642654D01*
X7800848Y8646363D01*
X7798765Y8652306D01*
X7795717Y8657234D01*
X7791602Y8661298D01*
X7786725Y8664397D01*
X7781239Y8666276D01*
X7774940Y8666988D01*
X7695438Y8666988D01*
X7688173Y8666124D01*
X7660487Y8659418D01*
X7658100Y8659114D01*
X7655712Y8659418D01*
X7627620Y8666226D01*
X7620762Y8666988D01*
X7541259Y8666988D01*
X7534960Y8666276D01*
X7529474Y8664397D01*
X7524597Y8661298D01*
X7520482Y8657234D01*
X7517434Y8652306D01*
X7515301Y8646261D01*
X7513066Y8642604D01*
X7509509Y8640165D01*
X7505293Y8639454D01*
X7501178Y8640521D01*
X7497825Y8643162D01*
X7495895Y8646972D01*
X7495235Y8649462D01*
X7489494Y8666886D01*
X7488986Y8670594D01*
X7489850Y8674201D01*
X7491933Y8677249D01*
X7510525Y8695791D01*
X7513726Y8697976D01*
X7580680Y8726322D01*
X7586218Y8729421D01*
X7590485Y8733332D01*
X7593838Y8738057D01*
X7595971Y8743442D01*
X7596987Y8750554D01*
X7596987Y8849817D01*
X7596276Y8856167D01*
X7594396Y8861602D01*
X7591298Y8866530D01*
X7587234Y8870594D01*
X7582306Y8873693D01*
X7576870Y8875623D01*
X7570520Y8876334D01*
X7491679Y8876334D01*
X7485329Y8875623D01*
X7479893Y8873693D01*
X7474966Y8870594D01*
X7470902Y8866530D01*
X7467803Y8861602D01*
X7465923Y8856167D01*
X7465212Y8849817D01*
X7465212Y8840012D01*
X7464602Y8836558D01*
X7440879Y8771534D01*
X7438542Y8767826D01*
X7394397Y8723731D01*
X7391247Y8720277D01*
X7388555Y8716772D01*
X7386167Y8713012D01*
X7384135Y8709050D01*
X7382408Y8704986D01*
X7381087Y8700719D01*
X7379309Y8691270D01*
X7364882Y8647176D01*
X7364120Y8640470D01*
X7364120Y8555278D01*
X7364831Y8548928D01*
X7366762Y8543493D01*
X7369860Y8538565D01*
X7373924Y8534501D01*
X7378852Y8531402D01*
X7384288Y8529523D01*
X7390638Y8528812D01*
X7432903Y8528812D01*
X7436764Y8527999D01*
X7440066Y8525814D01*
X7442301Y8522512D01*
X7443063Y8518652D01*
X7442301Y8514740D01*
X7440066Y8511438D01*
X7212533Y8283905D01*
X7209231Y8281670D01*
X7205319Y8280908D01*
X5880608Y8280908D01*
X5872581Y8280095D01*
X5865368Y8277910D01*
X5858662Y8274354D01*
X5852464Y8269224D01*
X4904587Y7321397D01*
X4902047Y7319518D01*
X4882997Y7309713D01*
X4879086Y7308646D01*
X4875123Y7309154D01*
X4871618Y7311136D01*
X4865065Y7316927D01*
X4853533Y7324598D01*
X4841138Y7330744D01*
X4827981Y7335164D01*
X4814417Y7337856D01*
X4800600Y7338771D01*
X4786782Y7337856D01*
X4773218Y7335164D01*
X4760061Y7330744D01*
X4747666Y7324598D01*
X4736134Y7316927D01*
X4725720Y7307783D01*
X4716576Y7297369D01*
X4708906Y7285837D01*
X4702759Y7273442D01*
X4698339Y7260285D01*
X4695596Y7246721D01*
X4694682Y7232548D01*
X4694682Y7093254D01*
X4695596Y7079081D01*
X4698339Y7065518D01*
X4702759Y7052360D01*
X4708906Y7039965D01*
X4716576Y7028434D01*
X4725720Y7018020D01*
X4736134Y7008875D01*
X4747666Y7001205D01*
X4760061Y6995058D01*
X4767427Y6992569D01*
X4770932Y6990537D01*
X4773320Y6987286D01*
X4774285Y6983323D01*
X4773625Y6979361D01*
X4771440Y6975906D01*
X4768138Y6973620D01*
X4764125Y6972808D01*
X4693818Y6972808D01*
X4689906Y6973570D01*
X4686604Y6975805D01*
X4645863Y7016496D01*
X4643932Y7019239D01*
X4642967Y7022439D01*
X4640681Y7040981D01*
X4640732Y7043928D01*
X4641646Y7046722D01*
X4644440Y7052360D01*
X4648860Y7065518D01*
X4651603Y7079081D01*
X4652518Y7093254D01*
X4652518Y7232548D01*
X4651603Y7246721D01*
X4648860Y7260285D01*
X4644440Y7273442D01*
X4638294Y7285837D01*
X4630623Y7297369D01*
X4621479Y7307783D01*
X4611065Y7316927D01*
X4599533Y7324598D01*
X4587138Y7330744D01*
X4584954Y7331456D01*
X4581347Y7333640D01*
X4578908Y7337044D01*
X4578096Y7341209D01*
X4579010Y7345324D01*
X4581550Y7348728D01*
X4583379Y7350353D01*
X4592523Y7360767D01*
X4600194Y7372248D01*
X4606340Y7384694D01*
X4610760Y7397800D01*
X4611217Y7400086D01*
X4612538Y7403388D01*
X4614875Y7406030D01*
X4617974Y7407706D01*
X4741265Y7448803D01*
X4744516Y7449362D01*
X4823561Y7449413D01*
X4832400Y7450226D01*
X4834839Y7450632D01*
X4843475Y7452766D01*
X4845812Y7453528D01*
X4854041Y7456931D01*
X4856226Y7458049D01*
X4863846Y7462672D01*
X4872685Y7469733D01*
X5838393Y8435340D01*
X5950762Y8534908D01*
X5955030Y8539632D01*
X5957874Y8544814D01*
X5959297Y8549284D01*
X5961380Y8552942D01*
X5964783Y8555431D01*
X5968847Y8556345D01*
X5972962Y8555532D01*
X5976416Y8553145D01*
X5978601Y8549538D01*
X5980734Y8543493D01*
X5983782Y8538565D01*
X5987897Y8534501D01*
X5992774Y8531402D01*
X5998260Y8529523D01*
X6004560Y8528812D01*
X6084062Y8528812D01*
X6091326Y8529675D01*
X6119012Y8536381D01*
X6121400Y8536686D01*
X6123787Y8536381D01*
X6151880Y8529574D01*
X6158738Y8528812D01*
X6238240Y8528812D01*
X6244539Y8529523D01*
X6250025Y8531402D01*
X6254902Y8534501D01*
X6259017Y8538565D01*
X6262065Y8543493D01*
X6264198Y8549538D01*
X6266332Y8553094D01*
X6269736Y8555532D01*
X6273800Y8556345D01*
X6277864Y8555532D01*
X6281267Y8553094D01*
X6283401Y8549538D01*
X6285534Y8543493D01*
X6288582Y8538565D01*
X6292697Y8534501D01*
X6297574Y8531402D01*
X6303060Y8529523D01*
X6309360Y8528812D01*
X6388862Y8528812D01*
X6395212Y8529523D01*
X6400647Y8531402D01*
X6405575Y8534501D01*
X6409639Y8538565D01*
X6412738Y8543493D01*
X6414668Y8548928D01*
X6415379Y8555278D01*
X6415379Y8640826D01*
X6415176Y8644229D01*
X6406997Y8718143D01*
X6406997Y8901785D01*
X6407200Y8903817D01*
X6421424Y8974836D01*
X6422034Y8980932D01*
X6422034Y9018270D01*
X6422796Y9022130D01*
X6424980Y9025432D01*
X6428282Y9027617D01*
X6432194Y9028430D01*
X6436055Y9027617D01*
X6439357Y9025432D01*
X6511594Y8953195D01*
X6513830Y8949893D01*
X6514592Y8945981D01*
X6514592Y8674608D01*
X6515404Y8666581D01*
X6517589Y8659368D01*
X6521145Y8652662D01*
X6526276Y8646464D01*
X6677964Y8494776D01*
X6684162Y8489645D01*
X6690868Y8486089D01*
X6698081Y8483904D01*
X6706108Y8483092D01*
X6830314Y8483092D01*
X6838340Y8483904D01*
X6845553Y8486089D01*
X6852259Y8489645D01*
X6858457Y8494776D01*
X6880352Y8516620D01*
X6883806Y8518906D01*
X6907022Y8528100D01*
X6910730Y8528812D01*
X6946798Y8528812D01*
X6954062Y8529675D01*
X6975398Y8534857D01*
X6977786Y8535111D01*
X6980174Y8534857D01*
X7001916Y8529574D01*
X7008774Y8528812D01*
X7088276Y8528812D01*
X7094575Y8529523D01*
X7100062Y8531402D01*
X7104938Y8534501D01*
X7109053Y8538565D01*
X7112101Y8543493D01*
X7114235Y8549538D01*
X7116368Y8553094D01*
X7119772Y8555532D01*
X7123836Y8556345D01*
X7127900Y8555532D01*
X7131303Y8553094D01*
X7133437Y8549538D01*
X7135571Y8543493D01*
X7138619Y8538565D01*
X7142734Y8534501D01*
X7147610Y8531402D01*
X7153097Y8529523D01*
X7159396Y8528812D01*
X7172655Y8528812D01*
X7172655Y8569960D01*
X7124903Y8569960D01*
X7120991Y8570722D01*
X7117740Y8572906D01*
X7115505Y8576208D01*
X7114743Y8580120D01*
X7114743Y8615680D01*
X7115505Y8619591D01*
X7117740Y8622893D01*
X7120991Y8625078D01*
X7124903Y8625840D01*
X7172655Y8625840D01*
X7172655Y8666988D01*
X7159396Y8666988D01*
X7153097Y8666276D01*
X7147610Y8664397D01*
X7142734Y8661298D01*
X7138619Y8657234D01*
X7135571Y8652306D01*
X7133437Y8646261D01*
X7131303Y8642705D01*
X7127900Y8640267D01*
X7123836Y8639454D01*
X7119772Y8640267D01*
X7116368Y8642705D01*
X7114235Y8646261D01*
X7112101Y8652306D01*
X7109053Y8657234D01*
X7104938Y8661298D01*
X7100062Y8664397D01*
X7094575Y8666276D01*
X7088276Y8666988D01*
X7008774Y8666988D01*
X7001509Y8666124D01*
X6980174Y8660942D01*
X6977786Y8660688D01*
X6975398Y8660942D01*
X6953656Y8666226D01*
X6946798Y8666988D01*
X6867296Y8666988D01*
X6860997Y8666276D01*
X6855510Y8664397D01*
X6850634Y8661298D01*
X6846519Y8657234D01*
X6843471Y8652306D01*
X6841388Y8646363D01*
X6839051Y8642654D01*
X6835444Y8640216D01*
X6831075Y8639606D01*
X6826910Y8640826D01*
X6823608Y8643670D01*
X6821830Y8647684D01*
X6808114Y8714638D01*
X6808012Y8718042D01*
X6817055Y8785656D01*
X6817309Y8789720D01*
X6817309Y8913825D01*
X6816598Y8920175D01*
X6814667Y8925610D01*
X6811619Y8930538D01*
X6807504Y8934602D01*
X6802628Y8937701D01*
X6797141Y8939580D01*
X6790842Y8940292D01*
X6721957Y8940292D01*
X6715658Y8939580D01*
X6710172Y8937701D01*
X6705295Y8934602D01*
X6701180Y8930538D01*
X6698132Y8925610D01*
X6696202Y8920175D01*
X6695490Y8913825D01*
X6695490Y8789771D01*
X6695744Y8785656D01*
X6704787Y8718042D01*
X6704685Y8714638D01*
X6690817Y8646769D01*
X6690156Y8640572D01*
X6690156Y8616238D01*
X6689394Y8612378D01*
X6687210Y8609076D01*
X6683908Y8606840D01*
X6679996Y8606078D01*
X6676136Y8606840D01*
X6672834Y8609076D01*
X6594805Y8687104D01*
X6592570Y8690406D01*
X6591808Y8694318D01*
X6591808Y8965692D01*
X6590995Y8973718D01*
X6588810Y8980932D01*
X6585254Y8987637D01*
X6580124Y8993835D01*
X6428435Y9145524D01*
X6422237Y9150654D01*
X6415532Y9154210D01*
X6408318Y9156395D01*
X6400292Y9157208D01*
X6368440Y9157208D01*
X6364274Y9158071D01*
X6360871Y9160611D01*
X6358737Y9164269D01*
X6358331Y9168485D01*
X6358534Y9170060D01*
X6358534Y9206026D01*
X6359245Y9210192D01*
X6360058Y9220200D01*
X6359245Y9230207D01*
X6358534Y9234373D01*
X6358534Y9268917D01*
X6357772Y9275267D01*
X6355892Y9280702D01*
X6352794Y9285630D01*
X6348730Y9289694D01*
X6343802Y9292793D01*
X6338366Y9294672D01*
X6332016Y9295384D01*
X6320891Y9295384D01*
X6317437Y9295993D01*
X6314440Y9297720D01*
X6307937Y9303054D01*
X6301232Y9306610D01*
X6294018Y9308795D01*
X6286500Y9309557D01*
X6278981Y9308795D01*
X6271768Y9306610D01*
X6265062Y9303054D01*
X6258509Y9297670D01*
X6255969Y9296146D01*
X6253175Y9295384D01*
X6246825Y9294672D01*
X6241389Y9292793D01*
X6236512Y9289694D01*
X6232398Y9285630D01*
X6229299Y9280702D01*
X6227419Y9275267D01*
X6226708Y9268917D01*
X6226708Y9170060D01*
X6226860Y9168485D01*
X6226454Y9164269D01*
X6224371Y9160611D01*
X6220917Y9158071D01*
X6216751Y9157208D01*
X6178397Y9157208D01*
X6174282Y9158071D01*
X6170828Y9160611D01*
X6168745Y9164269D01*
X6168339Y9168485D01*
X6168491Y9170060D01*
X6168491Y9268917D01*
X6167780Y9275267D01*
X6165850Y9280702D01*
X6162802Y9285630D01*
X6158687Y9289694D01*
X6153810Y9292793D01*
X6148324Y9294672D01*
X6142024Y9295384D01*
X6063183Y9295384D01*
X6056528Y9294672D01*
X6013907Y9280601D01*
X6011062Y9280042D01*
X6008217Y9280347D01*
X5976416Y9288373D01*
X5968847Y9289288D01*
X5935980Y9289288D01*
X5931712Y9290253D01*
X5930290Y9290253D01*
X5925972Y9289288D01*
X5889396Y9289288D01*
X5883097Y9288576D01*
X5877610Y9286697D01*
X5872734Y9283598D01*
X5868619Y9279534D01*
X5865571Y9274606D01*
X5863488Y9268663D01*
X5861151Y9264954D01*
X5857544Y9262516D01*
X5853176Y9261906D01*
X5849010Y9263126D01*
X5845708Y9265970D01*
X5843930Y9269984D01*
X5837631Y9300718D01*
X5837631Y9304782D01*
X5843930Y9335516D01*
X5845708Y9339529D01*
X5849010Y9342374D01*
X5853176Y9343593D01*
X5857544Y9342983D01*
X5861151Y9340545D01*
X5863488Y9336836D01*
X5865571Y9330893D01*
X5868619Y9325965D01*
X5872734Y9321901D01*
X5877610Y9318802D01*
X5883097Y9316923D01*
X5889396Y9316212D01*
X5896152Y9316212D01*
X5899861Y9315500D01*
X5906770Y9312808D01*
X5917793Y9310268D01*
X5926734Y9309608D01*
X5931001Y9308287D01*
X5935065Y9309608D01*
X5942380Y9310268D01*
X5944819Y9310674D01*
X5953201Y9312757D01*
X5960059Y9315450D01*
X5963564Y9316161D01*
X5971235Y9316262D01*
X5977178Y9317431D01*
X5982462Y9319768D01*
X5987338Y9323374D01*
X5989472Y9325610D01*
X6026912Y9370009D01*
X6030417Y9372650D01*
X6034684Y9373616D01*
X6237020Y9373565D01*
X6243370Y9374276D01*
X6248806Y9376206D01*
X6253734Y9379305D01*
X6257798Y9383369D01*
X6260896Y9388297D01*
X6262776Y9393732D01*
X6263487Y9400082D01*
X6263487Y9409684D01*
X6264503Y9414103D01*
X6268212Y9421825D01*
X6271564Y9432696D01*
X6273292Y9443872D01*
X6273292Y9455251D01*
X6271564Y9466427D01*
X6268212Y9477298D01*
X6264757Y9484512D01*
X6263741Y9488474D01*
X6264402Y9492488D01*
X6266535Y9495942D01*
X6269888Y9498279D01*
X6273901Y9499092D01*
X6518757Y9499092D01*
X6522974Y9498177D01*
X6526428Y9495637D01*
X6528511Y9491878D01*
X6528816Y9487560D01*
X6525006Y9477349D01*
X6524294Y9470999D01*
X6524294Y9446717D01*
X6561328Y9446717D01*
X6561328Y9488932D01*
X6562140Y9492843D01*
X6564325Y9496094D01*
X6567627Y9498330D01*
X6571488Y9499092D01*
X6598869Y9499092D01*
X6602780Y9498330D01*
X6606082Y9496094D01*
X6608267Y9492843D01*
X6609029Y9488932D01*
X6609029Y9446717D01*
X6646113Y9446717D01*
X6646113Y9470999D01*
X6645402Y9477349D01*
X6641592Y9487560D01*
X6641896Y9491878D01*
X6643979Y9495637D01*
X6647434Y9498177D01*
X6651650Y9499092D01*
X6708749Y9499092D01*
X6712966Y9498177D01*
X6716420Y9495637D01*
X6718503Y9491878D01*
X6718858Y9487560D01*
X6714998Y9477349D01*
X6714286Y9470999D01*
X6714286Y9347149D01*
X6714998Y9340850D01*
X6716928Y9335363D01*
X6719976Y9330486D01*
X6724091Y9326372D01*
X6728968Y9323324D01*
X6734454Y9321393D01*
X6740753Y9320682D01*
X6809638Y9320682D01*
X6815937Y9321393D01*
X6821424Y9323324D01*
X6826300Y9326372D01*
X6830415Y9330486D01*
X6833463Y9335363D01*
X6835597Y9341408D01*
X6837578Y9344761D01*
X6840626Y9347149D01*
X6855561Y9354616D01*
X6858457Y9355582D01*
X6861505Y9355582D01*
X6870903Y9354312D01*
X6950303Y9354312D01*
X6956602Y9355023D01*
X6962089Y9356902D01*
X6966966Y9360001D01*
X6971080Y9364065D01*
X6974128Y9368993D01*
X6976262Y9375038D01*
X6978396Y9378594D01*
X6981799Y9381032D01*
X6985863Y9381845D01*
X6989927Y9381032D01*
X6993331Y9378594D01*
X6995464Y9375038D01*
X6997598Y9368993D01*
X7000646Y9364065D01*
X7004761Y9360001D01*
X7009638Y9356902D01*
X7015124Y9355023D01*
X7021423Y9354312D01*
X7100925Y9354312D01*
X7108190Y9355175D01*
X7128662Y9360154D01*
X7131050Y9360408D01*
X7133437Y9360154D01*
X7154316Y9355074D01*
X7161174Y9354312D01*
X7240676Y9354312D01*
X7246975Y9355023D01*
X7252462Y9356902D01*
X7257338Y9360001D01*
X7261453Y9364065D01*
X7264501Y9368993D01*
X7266635Y9375038D01*
X7268768Y9378594D01*
X7272172Y9381032D01*
X7276236Y9381845D01*
X7280300Y9381032D01*
X7283703Y9378594D01*
X7285837Y9375038D01*
X7287971Y9368993D01*
X7291019Y9364065D01*
X7295134Y9360001D01*
X7300010Y9356902D01*
X7305497Y9355023D01*
X7311796Y9354312D01*
X7325055Y9354312D01*
X7325055Y9395460D01*
X7277303Y9395460D01*
X7273391Y9396222D01*
X7270140Y9398406D01*
X7267905Y9401708D01*
X7267143Y9405620D01*
X7267143Y9441180D01*
X7267905Y9445091D01*
X7270140Y9448393D01*
X7273391Y9450578D01*
X7277303Y9451340D01*
X7325055Y9451340D01*
X7325055Y9492488D01*
X7311796Y9492488D01*
X7305497Y9491776D01*
X7300010Y9489897D01*
X7295134Y9486798D01*
X7291019Y9482734D01*
X7287971Y9477806D01*
X7285837Y9471761D01*
X7283703Y9468205D01*
X7280300Y9465767D01*
X7276236Y9464954D01*
X7272172Y9465767D01*
X7268768Y9468205D01*
X7266635Y9471761D01*
X7264501Y9477806D01*
X7261453Y9482734D01*
X7257338Y9486798D01*
X7252462Y9489897D01*
X7246975Y9491776D01*
X7240676Y9492488D01*
X7161174Y9492488D01*
X7153909Y9491624D01*
X7133437Y9486646D01*
X7131050Y9486392D01*
X7128662Y9486646D01*
X7112508Y9490608D01*
X7108698Y9492437D01*
X7100824Y9501835D01*
X7038035Y9564624D01*
X7031837Y9569754D01*
X7025131Y9573310D01*
X7017918Y9575495D01*
X7009892Y9576308D01*
X5321808Y9576308D01*
X5313781Y9575495D01*
X5306568Y9573310D01*
X5299862Y9569754D01*
X5293664Y9564624D01*
X4650130Y8921140D01*
X4647590Y8919311D01*
X4628997Y8909710D01*
X4625136Y8908643D01*
X4621123Y8909151D01*
X4617618Y8911132D01*
X4611065Y8916924D01*
X4599533Y8924594D01*
X4587138Y8930741D01*
X4573981Y8935161D01*
X4560417Y8937853D01*
X4546600Y8938768D01*
X4532782Y8937853D01*
X4519218Y8935161D01*
X4506061Y8930741D01*
X4493666Y8924594D01*
X4482134Y8916924D01*
X4471720Y8907780D01*
X4462576Y8897366D01*
X4454906Y8885834D01*
X4448759Y8873439D01*
X4444339Y8860282D01*
X4441596Y8846718D01*
X4440682Y8832545D01*
X4440682Y8693251D01*
X4441596Y8679078D01*
X4444339Y8665514D01*
X4448759Y8652357D01*
X4454906Y8639962D01*
X4462576Y8628430D01*
X4471720Y8618016D01*
X4482134Y8608872D01*
X4493666Y8601202D01*
X4506061Y8595055D01*
X4519218Y8590635D01*
X4532782Y8587943D01*
X4546600Y8587028D01*
X4560417Y8587943D01*
X4573981Y8590635D01*
X4587138Y8595055D01*
X4599533Y8601202D01*
X4611065Y8608872D01*
X4621479Y8618016D01*
X4630623Y8628430D01*
X4638294Y8639962D01*
X4644440Y8652357D01*
X4648860Y8665514D01*
X4651603Y8679078D01*
X4652518Y8693251D01*
X4652518Y8799322D01*
X4653026Y8802471D01*
X4654499Y8805316D01*
X4676343Y8835085D01*
X4679492Y8837930D01*
X4683506Y8839200D01*
X4687671Y8838742D01*
X4691329Y8836660D01*
X4693818Y8833205D01*
X4694682Y8829090D01*
X4694682Y8693251D01*
X4695596Y8679078D01*
X4698339Y8665514D01*
X4702759Y8652357D01*
X4708906Y8639962D01*
X4716576Y8628430D01*
X4725720Y8618016D01*
X4736134Y8608872D01*
X4747666Y8601202D01*
X4760061Y8595055D01*
X4773218Y8590635D01*
X4786782Y8587943D01*
X4800600Y8587028D01*
X4814417Y8587943D01*
X4827981Y8590635D01*
X4841138Y8595055D01*
X4853533Y8601202D01*
X4865065Y8608872D01*
X4875479Y8618016D01*
X4884623Y8628430D01*
X4892294Y8639962D01*
X4898440Y8652357D01*
X4902860Y8665514D01*
X4905603Y8679078D01*
X4906518Y8693251D01*
X4906518Y8799423D01*
X4907026Y8802573D01*
X4908499Y8805418D01*
X4930343Y8835237D01*
X4933492Y8838031D01*
X4937506Y8839301D01*
X4941671Y8838844D01*
X4945329Y8836761D01*
X4947818Y8833307D01*
X4948682Y8829192D01*
X4948682Y8693251D01*
X4949596Y8679078D01*
X4952339Y8665514D01*
X4956759Y8652357D01*
X4962906Y8639962D01*
X4970576Y8628430D01*
X4979720Y8618016D01*
X4990134Y8608872D01*
X5001666Y8601202D01*
X5014061Y8595055D01*
X5027218Y8590635D01*
X5040782Y8587943D01*
X5054600Y8587028D01*
X5068417Y8587943D01*
X5081981Y8590635D01*
X5095138Y8595055D01*
X5107533Y8601202D01*
X5119065Y8608872D01*
X5129479Y8618016D01*
X5138623Y8628430D01*
X5146294Y8639962D01*
X5152440Y8652357D01*
X5156860Y8665514D01*
X5159603Y8679078D01*
X5160518Y8693251D01*
X5160518Y8799423D01*
X5161026Y8802573D01*
X5162499Y8805418D01*
X5184343Y8835237D01*
X5187492Y8838031D01*
X5191506Y8839301D01*
X5195671Y8838844D01*
X5199329Y8836761D01*
X5201818Y8833307D01*
X5202682Y8829192D01*
X5202682Y8693251D01*
X5203596Y8679078D01*
X5206339Y8665514D01*
X5210759Y8652357D01*
X5216906Y8639962D01*
X5224576Y8628430D01*
X5233720Y8618016D01*
X5244134Y8608872D01*
X5255666Y8601202D01*
X5268061Y8595055D01*
X5281218Y8590635D01*
X5294782Y8587943D01*
X5308600Y8587028D01*
X5322417Y8587943D01*
X5335981Y8590635D01*
X5349138Y8595055D01*
X5361533Y8601202D01*
X5373065Y8608872D01*
X5383479Y8618016D01*
X5392623Y8628430D01*
X5400294Y8639962D01*
X5406440Y8652357D01*
X5410860Y8665514D01*
X5413603Y8679078D01*
X5414518Y8693251D01*
X5414518Y8708847D01*
X5415178Y8712504D01*
X5417159Y8715705D01*
X5420106Y8717940D01*
X5430875Y8723325D01*
X5435396Y8724392D01*
X5859119Y8724392D01*
X5863031Y8723630D01*
X5866333Y8721394D01*
X5896711Y8691016D01*
X5898845Y8687866D01*
X5899708Y8684209D01*
X5899150Y8680450D01*
X5897270Y8677198D01*
X5894324Y8674811D01*
X5890666Y8673744D01*
X5879439Y8672474D01*
X5868517Y8669528D01*
X5864707Y8667851D01*
X5860643Y8666988D01*
X5853938Y8666988D01*
X5847588Y8666276D01*
X5842152Y8664397D01*
X5837123Y8661247D01*
X5833668Y8657945D01*
X5735574Y8547252D01*
X4792472Y7604150D01*
X4789170Y7601915D01*
X4785258Y7601153D01*
X4744212Y7601153D01*
X4741011Y7601712D01*
X4617974Y7642707D01*
X4614875Y7644384D01*
X4612538Y7647025D01*
X4611217Y7650327D01*
X4610760Y7652613D01*
X4606340Y7665720D01*
X4600194Y7678166D01*
X4592523Y7689646D01*
X4583379Y7700060D01*
X4572965Y7709204D01*
X4561433Y7716926D01*
X4549038Y7723022D01*
X4535881Y7727492D01*
X4522317Y7730185D01*
X4508500Y7731099D01*
X4494682Y7730185D01*
X4481118Y7727492D01*
X4467961Y7723022D01*
X4455566Y7716926D01*
X4444034Y7709204D01*
X4433620Y7700060D01*
X4424476Y7689646D01*
X4421682Y7685481D01*
X4418888Y7682687D01*
X4415231Y7681163D01*
X4411268Y7681163D01*
X4407611Y7682687D01*
X4404817Y7685481D01*
X4402023Y7689646D01*
X4392879Y7700060D01*
X4382465Y7709204D01*
X4370933Y7716926D01*
X4364329Y7720177D01*
X4364329Y7621574D01*
X4392422Y7621574D01*
X4396333Y7620762D01*
X4399635Y7618577D01*
X4401820Y7615275D01*
X4402582Y7611414D01*
X4402582Y7438999D01*
X4401820Y7435138D01*
X4399635Y7431836D01*
X4396333Y7429601D01*
X4392422Y7428839D01*
X4364329Y7428839D01*
X4364329Y7331049D01*
X4364177Y7330135D01*
X4370933Y7333488D01*
X4382465Y7341209D01*
X4392879Y7350353D01*
X4402023Y7360767D01*
X4404817Y7364933D01*
X4407611Y7367727D01*
X4411268Y7369251D01*
X4415231Y7369251D01*
X4418888Y7367727D01*
X4421682Y7364933D01*
X4424476Y7360767D01*
X4433620Y7350353D01*
X4444034Y7341209D01*
X4455566Y7333488D01*
X4467961Y7327392D01*
X4470146Y7326630D01*
X4473752Y7324496D01*
X4476191Y7321042D01*
X4477004Y7316876D01*
X4476089Y7312761D01*
X4473549Y7309408D01*
X4471720Y7307783D01*
X4462576Y7297369D01*
X4454906Y7285837D01*
X4448759Y7273442D01*
X4444339Y7260285D01*
X4441596Y7246721D01*
X4440682Y7232548D01*
X4440682Y7096607D01*
X4439818Y7092442D01*
X4437329Y7089038D01*
X4433671Y7086955D01*
X4429506Y7086498D01*
X4425492Y7087768D01*
X4422343Y7090562D01*
X4400499Y7120331D01*
X4399026Y7123226D01*
X4398518Y7126376D01*
X4398518Y7232548D01*
X4397603Y7246721D01*
X4394860Y7260285D01*
X4390440Y7273442D01*
X4384294Y7285837D01*
X4376623Y7297369D01*
X4367479Y7307783D01*
X4361383Y7313117D01*
X4358944Y7316266D01*
X4357928Y7320076D01*
X4358182Y7321905D01*
X4356963Y7321245D01*
X4352594Y7320991D01*
X4348530Y7322616D01*
X4345533Y7324598D01*
X4333138Y7330744D01*
X4319981Y7335164D01*
X4306417Y7337856D01*
X4292600Y7338771D01*
X4282490Y7338110D01*
X4278376Y7338720D01*
X4274870Y7340853D01*
X4272483Y7344206D01*
X4271670Y7348270D01*
X4271670Y7428839D01*
X4212082Y7428839D01*
X4212082Y7425537D01*
X4212996Y7411364D01*
X4215739Y7397800D01*
X4220159Y7384694D01*
X4226306Y7372248D01*
X4233976Y7360767D01*
X4243120Y7350353D01*
X4249216Y7344968D01*
X4251655Y7341819D01*
X4252671Y7338009D01*
X4252163Y7334097D01*
X4250182Y7330643D01*
X4247032Y7328255D01*
X4239666Y7324598D01*
X4228134Y7316927D01*
X4217720Y7307783D01*
X4208576Y7297369D01*
X4200906Y7285837D01*
X4194759Y7273442D01*
X4190339Y7260285D01*
X4187596Y7246721D01*
X4186682Y7232548D01*
X4186682Y7096607D01*
X4185818Y7092442D01*
X4183329Y7089038D01*
X4179671Y7086955D01*
X4175506Y7086498D01*
X4171492Y7087768D01*
X4168343Y7090562D01*
X4146499Y7120331D01*
X4145026Y7123226D01*
X4144518Y7126376D01*
X4144518Y7232548D01*
X4143603Y7246721D01*
X4140860Y7260285D01*
X4136440Y7273442D01*
X4130294Y7285837D01*
X4122623Y7297369D01*
X4113479Y7307783D01*
X4103065Y7316927D01*
X4091533Y7324598D01*
X4079138Y7330744D01*
X4065981Y7335164D01*
X4052417Y7337856D01*
X4038600Y7338771D01*
X4024782Y7337856D01*
X4011218Y7335164D01*
X3998061Y7330744D01*
X3985666Y7324598D01*
X3974134Y7316927D01*
X3963720Y7307783D01*
X3954576Y7297369D01*
X3946906Y7285837D01*
X3940759Y7273442D01*
X3936339Y7260285D01*
X3933596Y7246721D01*
X3932682Y7232548D01*
X3932682Y7096607D01*
X3931818Y7092442D01*
X3929329Y7089038D01*
X3925671Y7086955D01*
X3921506Y7086498D01*
X3917492Y7087768D01*
X3914343Y7090562D01*
X3892499Y7120331D01*
X3891026Y7123226D01*
X3890518Y7126376D01*
X3890518Y7232548D01*
X3889603Y7246721D01*
X3886860Y7260285D01*
X3882440Y7273442D01*
X3876294Y7285837D01*
X3868623Y7297369D01*
X3859479Y7307783D01*
X3849065Y7316927D01*
X3837533Y7324598D01*
X3825138Y7330744D01*
X3812032Y7335164D01*
X3798417Y7337856D01*
X3784600Y7338771D01*
X3770782Y7337856D01*
X3757218Y7335164D01*
X3744061Y7330744D01*
X3731666Y7324598D01*
X3720134Y7316927D01*
X3709720Y7307783D01*
X3700576Y7297369D01*
X3692906Y7285837D01*
X3686759Y7273442D01*
X3682339Y7260285D01*
X3679647Y7246721D01*
X3678682Y7232548D01*
X3678682Y7093254D01*
X3679647Y7079081D01*
X3682339Y7065518D01*
X3686759Y7052360D01*
X3692906Y7039965D01*
X3700576Y7028434D01*
X3709720Y7018020D01*
X3720134Y7008875D01*
X3731666Y7001205D01*
X3744061Y6995058D01*
X3757218Y6990638D01*
X3770782Y6987946D01*
X3784600Y6987031D01*
X3798417Y6987946D01*
X3812032Y6990638D01*
X3825138Y6995058D01*
X3837533Y7001205D01*
X3849065Y7008875D01*
X3855567Y7014616D01*
X3859022Y7016597D01*
X3863035Y7017105D01*
X3866896Y7015988D01*
X3885844Y7006285D01*
X3888384Y7004405D01*
X4137964Y6754875D01*
X4144162Y6749745D01*
X4150868Y6746189D01*
X4158081Y6744004D01*
G37*
G36*
X7302753Y6966712D02*
G01*
X7315962Y6966712D01*
X7322312Y6967423D01*
X7327747Y6969302D01*
X7332675Y6972401D01*
X7336739Y6976465D01*
X7339838Y6981393D01*
X7341768Y6986828D01*
X7342479Y6993178D01*
X7342479Y7007859D01*
X7302753Y7007859D01*
G37*
G36*
X6693153Y6966712D02*
G01*
X6706362Y6966712D01*
X6712712Y6967423D01*
X6718147Y6969302D01*
X6723075Y6972401D01*
X6727139Y6976465D01*
X6730238Y6981393D01*
X6732168Y6986828D01*
X6732879Y6993178D01*
X6732879Y7007859D01*
X6693153Y7007859D01*
G37*
G36*
X7302753Y7063740D02*
G01*
X7342479Y7063740D01*
X7342479Y7078421D01*
X7341768Y7084771D01*
X7339838Y7090206D01*
X7336739Y7095134D01*
X7332675Y7099198D01*
X7327747Y7102297D01*
X7322312Y7104176D01*
X7315962Y7104888D01*
X7302753Y7104888D01*
G37*
G36*
X6693153Y7063740D02*
G01*
X6732879Y7063740D01*
X6732879Y7078421D01*
X6732168Y7084771D01*
X6730238Y7090206D01*
X6727139Y7095134D01*
X6724243Y7098030D01*
X6722262Y7100773D01*
X6721348Y7104075D01*
X6721551Y7107478D01*
X6722821Y7110577D01*
X6725259Y7114489D01*
X6727190Y7119975D01*
X6727901Y7126274D01*
X6727901Y7150608D01*
X6690868Y7150608D01*
X6690868Y7121499D01*
X6692544Y7118502D01*
X6693153Y7115048D01*
G37*
G36*
X7394600Y7063790D02*
G01*
X7518450Y7063790D01*
X7524750Y7064502D01*
X7530236Y7066432D01*
X7535113Y7069480D01*
X7539228Y7073595D01*
X7542275Y7078472D01*
X7544206Y7083958D01*
X7544917Y7090257D01*
X7544917Y7159142D01*
X7544206Y7165441D01*
X7542275Y7170928D01*
X7539228Y7175804D01*
X7535113Y7179919D01*
X7530236Y7182967D01*
X7524750Y7184898D01*
X7518450Y7185609D01*
X7506919Y7185609D01*
X7503769Y7186117D01*
X7500924Y7187590D01*
X7453020Y7222744D01*
X7450226Y7225893D01*
X7448905Y7229906D01*
X7449362Y7234123D01*
X7451496Y7237730D01*
X7454900Y7240219D01*
X7459014Y7241082D01*
X7476642Y7241082D01*
X7482941Y7241794D01*
X7488428Y7243724D01*
X7493304Y7246823D01*
X7497419Y7250887D01*
X7500467Y7255814D01*
X7502398Y7261250D01*
X7503109Y7267600D01*
X7503109Y7391450D01*
X7502398Y7397750D01*
X7500467Y7403236D01*
X7497419Y7408113D01*
X7493304Y7412228D01*
X7488428Y7415275D01*
X7482941Y7417206D01*
X7476642Y7417917D01*
X7407757Y7417917D01*
X7401458Y7417206D01*
X7395972Y7415275D01*
X7391095Y7412228D01*
X7386980Y7408113D01*
X7383932Y7403236D01*
X7382002Y7397750D01*
X7381290Y7391450D01*
X7381290Y7307529D01*
X7380528Y7303617D01*
X7378293Y7300366D01*
X7375042Y7298131D01*
X7371130Y7297369D01*
X7367219Y7298131D01*
X7363968Y7300366D01*
X7245807Y7418476D01*
X7236206Y7429093D01*
X7234783Y7431074D01*
X7233056Y7436561D01*
X7229043Y7445756D01*
X7223556Y7454188D01*
X7216749Y7461605D01*
X7208774Y7467752D01*
X7199934Y7472527D01*
X7190435Y7475829D01*
X7180529Y7477455D01*
X7170470Y7477455D01*
X7160564Y7475829D01*
X7151065Y7472527D01*
X7142225Y7467752D01*
X7134250Y7461605D01*
X7127443Y7454188D01*
X7121956Y7445756D01*
X7117943Y7436561D01*
X7115454Y7426807D01*
X7114641Y7416800D01*
X7115454Y7406792D01*
X7117943Y7397038D01*
X7121956Y7387844D01*
X7127443Y7379411D01*
X7134250Y7371994D01*
X7142225Y7365847D01*
X7151065Y7361072D01*
X7159802Y7358024D01*
X7163308Y7355992D01*
X7173823Y7346442D01*
X7303820Y7216495D01*
X7365288Y7152233D01*
X7367371Y7148982D01*
X7368082Y7145223D01*
X7368082Y7090257D01*
X7368794Y7083958D01*
X7370724Y7078472D01*
X7373823Y7073595D01*
X7377887Y7069480D01*
X7382814Y7066432D01*
X7388250Y7064502D01*
G37*
G36*
X5943092Y7139990D02*
G01*
X5967425Y7139990D01*
X5973775Y7140702D01*
X5979210Y7142632D01*
X5984138Y7145680D01*
X5988202Y7149795D01*
X5991301Y7154672D01*
X5993180Y7160158D01*
X5993892Y7166457D01*
X5993892Y7177024D01*
X5943092Y7177024D01*
G37*
G36*
X7594549Y7158786D02*
G01*
X7618882Y7158786D01*
X7618882Y7195870D01*
X7568082Y7195870D01*
X7568082Y7185253D01*
X7568793Y7178954D01*
X7570724Y7173468D01*
X7573772Y7168591D01*
X7577886Y7164476D01*
X7582763Y7161428D01*
X7588250Y7159498D01*
G37*
G36*
X5943092Y7224725D02*
G01*
X5993892Y7224725D01*
X5993892Y7235342D01*
X5993180Y7241641D01*
X5991301Y7247128D01*
X5988202Y7252004D01*
X5984138Y7256119D01*
X5979210Y7259167D01*
X5973775Y7261098D01*
X5967425Y7261809D01*
X5943092Y7261809D01*
G37*
G36*
X6690868Y7225792D02*
G01*
X6727901Y7225792D01*
X6727901Y7250125D01*
X6727190Y7256475D01*
X6725259Y7261910D01*
X6722211Y7266838D01*
X6718096Y7270902D01*
X6713220Y7274001D01*
X6707733Y7275880D01*
X6701434Y7276592D01*
X6690868Y7276592D01*
G37*
G36*
X6606082Y7225792D02*
G01*
X6643166Y7225792D01*
X6643166Y7276592D01*
X6632549Y7276592D01*
X6626250Y7275880D01*
X6620764Y7274001D01*
X6615887Y7270902D01*
X6611772Y7266838D01*
X6608724Y7261910D01*
X6606794Y7256475D01*
X6606082Y7250125D01*
G37*
G36*
X7040372Y7227417D02*
G01*
X7077405Y7227417D01*
X7077405Y7251750D01*
X7076694Y7258050D01*
X7074763Y7263536D01*
X7071715Y7268413D01*
X7067600Y7272528D01*
X7062724Y7275575D01*
X7057237Y7277506D01*
X7050938Y7278217D01*
X7040372Y7278217D01*
G37*
G36*
X6955586Y7227417D02*
G01*
X6992670Y7227417D01*
X6992670Y7278217D01*
X6982053Y7278217D01*
X6975754Y7277506D01*
X6970268Y7275575D01*
X6965391Y7272528D01*
X6961276Y7268413D01*
X6958228Y7263536D01*
X6956298Y7258050D01*
X6955586Y7251750D01*
G37*
G36*
X6043574Y7234986D02*
G01*
X6167424Y7234986D01*
X6173825Y7235698D01*
X6178753Y7237323D01*
X6196177Y7244892D01*
X6198209Y7245553D01*
X6204254Y7246772D01*
X6208420Y7248042D01*
X6212484Y7249769D01*
X6216446Y7251801D01*
X6220206Y7254189D01*
X6223711Y7256881D01*
X6227165Y7260031D01*
X6313576Y7346442D01*
X6323990Y7355941D01*
X6327546Y7358024D01*
X6336334Y7361072D01*
X6345174Y7365847D01*
X6353149Y7371994D01*
X6359956Y7379411D01*
X6365443Y7387844D01*
X6369456Y7397038D01*
X6371945Y7406792D01*
X6372758Y7416800D01*
X6371945Y7426807D01*
X6369456Y7436561D01*
X6365443Y7445756D01*
X6359956Y7454188D01*
X6353149Y7461605D01*
X6345174Y7467752D01*
X6336334Y7472527D01*
X6326835Y7475829D01*
X6316929Y7477455D01*
X6306870Y7477455D01*
X6296964Y7475829D01*
X6287465Y7472527D01*
X6278626Y7467752D01*
X6270650Y7461605D01*
X6263843Y7454188D01*
X6258356Y7445756D01*
X6254343Y7436561D01*
X6253530Y7433462D01*
X6251803Y7429855D01*
X6247485Y7426401D01*
X6243218Y7425080D01*
X6238798Y7425639D01*
X6235090Y7428077D01*
X6232753Y7431887D01*
X6232245Y7436307D01*
X6233109Y7443774D01*
X6233109Y7567625D01*
X6232398Y7573975D01*
X6230467Y7579410D01*
X6227419Y7584338D01*
X6223304Y7588402D01*
X6218428Y7591501D01*
X6212941Y7593380D01*
X6206642Y7594092D01*
X6137757Y7594092D01*
X6131458Y7593380D01*
X6125972Y7591501D01*
X6121095Y7588402D01*
X6116980Y7584338D01*
X6113932Y7579410D01*
X6112002Y7573975D01*
X6111290Y7567625D01*
X6111290Y7443774D01*
X6112052Y7437221D01*
X6113170Y7432243D01*
X6112154Y7426807D01*
X6111341Y7416800D01*
X6112154Y7406792D01*
X6114643Y7397038D01*
X6118656Y7387844D01*
X6124143Y7379411D01*
X6129274Y7373823D01*
X6131306Y7370521D01*
X6131966Y7366660D01*
X6131102Y7362901D01*
X6128918Y7359700D01*
X6125616Y7357567D01*
X6121806Y7356805D01*
X6043574Y7356805D01*
X6037224Y7356094D01*
X6031788Y7354163D01*
X6026861Y7351115D01*
X6022797Y7347000D01*
X6019698Y7342124D01*
X6017818Y7336637D01*
X6017107Y7330338D01*
X6017107Y7261453D01*
X6017818Y7255154D01*
X6019698Y7249668D01*
X6022797Y7244791D01*
X6026861Y7240676D01*
X6031788Y7237628D01*
X6037224Y7235698D01*
G37*
G36*
X7568082Y7243572D02*
G01*
X7618882Y7243572D01*
X7618882Y7280605D01*
X7594549Y7280605D01*
X7588250Y7279894D01*
X7582763Y7278014D01*
X7577886Y7274915D01*
X7573772Y7270800D01*
X7570724Y7265924D01*
X7568793Y7260437D01*
X7568082Y7254138D01*
G37*
G36*
X6537553Y7299807D02*
G01*
X6606438Y7299807D01*
X6612737Y7300518D01*
X6618224Y7302398D01*
X6623100Y7305497D01*
X6627215Y7309561D01*
X6630263Y7314488D01*
X6632194Y7319924D01*
X6632905Y7326274D01*
X6632905Y7450124D01*
X6632194Y7456424D01*
X6630263Y7461910D01*
X6627215Y7466787D01*
X6623100Y7470902D01*
X6618224Y7474000D01*
X6612737Y7475880D01*
X6606438Y7476591D01*
X6576923Y7476591D01*
X6570929Y7477455D01*
X6560870Y7477455D01*
X6554876Y7476591D01*
X6537553Y7476591D01*
X6531254Y7475880D01*
X6525768Y7474000D01*
X6520891Y7470902D01*
X6516776Y7466787D01*
X6513728Y7461910D01*
X6511798Y7456424D01*
X6511086Y7450124D01*
X6511086Y7444994D01*
X6510223Y7440930D01*
X6508343Y7436561D01*
X6505854Y7426807D01*
X6505041Y7416800D01*
X6505854Y7406792D01*
X6508343Y7397038D01*
X6510223Y7392670D01*
X6511086Y7388606D01*
X6511086Y7326274D01*
X6511798Y7319924D01*
X6513728Y7314488D01*
X6516776Y7309561D01*
X6520891Y7305497D01*
X6525768Y7302398D01*
X6531254Y7300518D01*
G37*
G36*
X6887057Y7301382D02*
G01*
X6955942Y7301382D01*
X6962241Y7302093D01*
X6967728Y7304024D01*
X6972604Y7307072D01*
X6976719Y7311186D01*
X6979767Y7316063D01*
X6981698Y7321550D01*
X6982409Y7327849D01*
X6982409Y7451699D01*
X6981698Y7458049D01*
X6979767Y7463485D01*
X6976719Y7468412D01*
X6972604Y7472476D01*
X6967728Y7475575D01*
X6962241Y7477506D01*
X6955942Y7478217D01*
X6887057Y7478217D01*
X6880758Y7477506D01*
X6875272Y7475575D01*
X6870395Y7472476D01*
X6866280Y7468412D01*
X6863232Y7463485D01*
X6861302Y7458049D01*
X6860590Y7451699D01*
X6860590Y7327849D01*
X6861302Y7321550D01*
X6863232Y7316063D01*
X6866280Y7311186D01*
X6870395Y7307072D01*
X6875272Y7304024D01*
X6880758Y7302093D01*
G37*
G36*
X7312761Y7441082D02*
G01*
X7323328Y7441082D01*
X7323328Y7491882D01*
X7286294Y7491882D01*
X7286294Y7467549D01*
X7287006Y7461250D01*
X7288936Y7455763D01*
X7291984Y7450886D01*
X7296099Y7446772D01*
X7300975Y7443724D01*
X7306462Y7441793D01*
G37*
G36*
X7371029Y7441082D02*
G01*
X7381646Y7441082D01*
X7387945Y7441793D01*
X7393431Y7443724D01*
X7398308Y7446772D01*
X7402423Y7450886D01*
X7405471Y7455763D01*
X7407402Y7461250D01*
X7408113Y7467549D01*
X7408113Y7491882D01*
X7371029Y7491882D01*
G37*
G36*
X7728712Y7505953D02*
G01*
X7769859Y7505953D01*
X7769859Y7545679D01*
X7755178Y7545679D01*
X7748828Y7544968D01*
X7743393Y7543038D01*
X7738465Y7539939D01*
X7734401Y7535875D01*
X7731302Y7530947D01*
X7729423Y7525512D01*
X7728712Y7519162D01*
G37*
G36*
X7047738Y7601712D02*
G01*
X7060946Y7601712D01*
X7060946Y7642859D01*
X7021220Y7642859D01*
X7021220Y7628178D01*
X7021931Y7621828D01*
X7023862Y7616393D01*
X7026960Y7611465D01*
X7031024Y7607401D01*
X7035952Y7604302D01*
X7041388Y7602423D01*
G37*
G36*
X6042761Y7617307D02*
G01*
X6053328Y7617307D01*
X6053328Y7668107D01*
X6016294Y7668107D01*
X6016294Y7643774D01*
X6017006Y7637424D01*
X6018936Y7631988D01*
X6021984Y7627061D01*
X6026099Y7622997D01*
X6030976Y7619898D01*
X6036462Y7618018D01*
G37*
G36*
X6101029Y7617307D02*
G01*
X6111646Y7617307D01*
X6117945Y7618018D01*
X6123432Y7619898D01*
X6128308Y7622997D01*
X6132423Y7627061D01*
X6135471Y7631988D01*
X6137402Y7637424D01*
X6138113Y7643774D01*
X6138113Y7668107D01*
X6101029Y7668107D01*
G37*
G36*
X4212082Y7621574D02*
G01*
X4271670Y7621574D01*
X4271670Y7720177D01*
X4265066Y7716926D01*
X4253534Y7709204D01*
X4243120Y7700060D01*
X4233976Y7689646D01*
X4226306Y7678166D01*
X4220159Y7665720D01*
X4215739Y7652613D01*
X4212996Y7638999D01*
X4212082Y7624876D01*
G37*
G36*
X7021220Y7698740D02*
G01*
X7060946Y7698740D01*
X7060946Y7739888D01*
X7047738Y7739888D01*
X7041388Y7739176D01*
X7035952Y7737297D01*
X7031024Y7734198D01*
X7026960Y7730134D01*
X7023862Y7725206D01*
X7021931Y7719771D01*
X7021220Y7713421D01*
G37*
G36*
X4430268Y7746441D02*
G01*
X4430268Y7846568D01*
X4330242Y7846568D01*
X4334560Y7838389D01*
X4346397Y7820152D01*
X4359808Y7802981D01*
X4374642Y7787131D01*
X4390847Y7772603D01*
X4408271Y7759598D01*
X4426813Y7748168D01*
G37*
G36*
X4662932Y7746492D02*
G01*
X4675784Y7753654D01*
X4693767Y7765897D01*
X4710582Y7779664D01*
X4726127Y7794904D01*
X4740300Y7811414D01*
X4752949Y7829143D01*
X4763160Y7846568D01*
X4662932Y7846568D01*
G37*
G36*
X5777738Y7792212D02*
G01*
X5790946Y7792212D01*
X5790946Y7833359D01*
X5751220Y7833359D01*
X5751220Y7818678D01*
X5751931Y7812328D01*
X5753862Y7806893D01*
X5756960Y7801965D01*
X5761024Y7797901D01*
X5765952Y7794802D01*
X5771388Y7792923D01*
G37*
G36*
X4189323Y7805115D02*
G01*
X4195978Y7805470D01*
X4202430Y7807248D01*
X4208322Y7810347D01*
X4213402Y7814665D01*
X4217416Y7819999D01*
X4220210Y7826044D01*
X4221683Y7832547D01*
X4221683Y7839252D01*
X4220210Y7845755D01*
X4217416Y7851800D01*
X4213402Y7857134D01*
X4208322Y7861452D01*
X4202430Y7864551D01*
X4195978Y7866329D01*
X4189323Y7866684D01*
X4182770Y7865618D01*
X4176572Y7863179D01*
X4171035Y7859420D01*
X4166463Y7854543D01*
X4163009Y7848853D01*
X4160875Y7842554D01*
X4160164Y7835900D01*
X4160875Y7829245D01*
X4163009Y7822946D01*
X4166463Y7817256D01*
X4171035Y7812379D01*
X4176572Y7808620D01*
X4182770Y7806181D01*
G37*
G36*
X3935323Y7805115D02*
G01*
X3941978Y7805470D01*
X3948429Y7807248D01*
X3954322Y7810347D01*
X3959402Y7814665D01*
X3963415Y7819999D01*
X3966210Y7826044D01*
X3967683Y7832547D01*
X3967683Y7839252D01*
X3966210Y7845755D01*
X3963415Y7851800D01*
X3959402Y7857134D01*
X3954322Y7861452D01*
X3948429Y7864551D01*
X3941978Y7866329D01*
X3935323Y7866684D01*
X3928770Y7865618D01*
X3922572Y7863179D01*
X3917035Y7859420D01*
X3912463Y7854543D01*
X3909009Y7848853D01*
X3906875Y7842554D01*
X3906164Y7835900D01*
X3906875Y7829245D01*
X3909009Y7822946D01*
X3912463Y7817256D01*
X3917035Y7812379D01*
X3922572Y7808620D01*
X3928770Y7806181D01*
G37*
G36*
X3681323Y7805115D02*
G01*
X3687978Y7805470D01*
X3694429Y7807248D01*
X3700322Y7810347D01*
X3705402Y7814665D01*
X3709415Y7819999D01*
X3712260Y7826044D01*
X3713683Y7832547D01*
X3713683Y7839252D01*
X3712260Y7845755D01*
X3709415Y7851800D01*
X3705402Y7857134D01*
X3700322Y7861452D01*
X3694429Y7864551D01*
X3687978Y7866329D01*
X3681323Y7866684D01*
X3674770Y7865618D01*
X3668572Y7863179D01*
X3663035Y7859420D01*
X3658463Y7854543D01*
X3655009Y7848853D01*
X3652875Y7842554D01*
X3652164Y7835900D01*
X3652875Y7829245D01*
X3655009Y7822946D01*
X3658463Y7817256D01*
X3663035Y7812379D01*
X3668572Y7808620D01*
X3674770Y7806181D01*
G37*
G36*
X5751220Y7889240D02*
G01*
X5790946Y7889240D01*
X5790946Y7930388D01*
X5777738Y7930388D01*
X5771388Y7929676D01*
X5765952Y7927797D01*
X5761024Y7924698D01*
X5756960Y7920634D01*
X5753862Y7915706D01*
X5751931Y7910271D01*
X5751220Y7903921D01*
G37*
G36*
X3935323Y8059115D02*
G01*
X3941978Y8059470D01*
X3948429Y8061248D01*
X3954322Y8064347D01*
X3959402Y8068665D01*
X3963415Y8073999D01*
X3966210Y8080044D01*
X3967683Y8086547D01*
X3967683Y8093252D01*
X3966210Y8099755D01*
X3963415Y8105800D01*
X3959402Y8111134D01*
X3954322Y8115452D01*
X3948429Y8118551D01*
X3941978Y8120329D01*
X3935323Y8120684D01*
X3928770Y8119618D01*
X3922572Y8117179D01*
X3917035Y8113420D01*
X3912463Y8108543D01*
X3909009Y8102853D01*
X3906875Y8096554D01*
X3906164Y8089900D01*
X3906875Y8083245D01*
X3909009Y8076946D01*
X3912463Y8071256D01*
X3917035Y8066379D01*
X3922572Y8062620D01*
X3928770Y8060181D01*
G37*
G36*
X3681323Y8059115D02*
G01*
X3687978Y8059470D01*
X3694429Y8061248D01*
X3700322Y8064347D01*
X3705402Y8068665D01*
X3709415Y8073999D01*
X3712260Y8080044D01*
X3713683Y8086547D01*
X3713683Y8093252D01*
X3712260Y8099755D01*
X3709415Y8105800D01*
X3705402Y8111134D01*
X3700322Y8115452D01*
X3694429Y8118551D01*
X3687978Y8120329D01*
X3681323Y8120684D01*
X3674770Y8119618D01*
X3668572Y8117179D01*
X3663035Y8113420D01*
X3658463Y8108543D01*
X3655009Y8102853D01*
X3652875Y8096554D01*
X3652164Y8089900D01*
X3652875Y8083245D01*
X3655009Y8076946D01*
X3658463Y8071256D01*
X3663035Y8066379D01*
X3668572Y8062620D01*
X3674770Y8060181D01*
G37*
G36*
X4189323Y8059115D02*
G01*
X4195978Y8059470D01*
X4202430Y8061248D01*
X4208322Y8064347D01*
X4213402Y8068665D01*
X4217416Y8073999D01*
X4220210Y8080044D01*
X4221683Y8086547D01*
X4221683Y8093252D01*
X4220210Y8099755D01*
X4217416Y8105800D01*
X4213402Y8111134D01*
X4208322Y8115452D01*
X4202430Y8118551D01*
X4195978Y8120329D01*
X4189323Y8120684D01*
X4182770Y8119618D01*
X4176572Y8117179D01*
X4171035Y8113420D01*
X4166463Y8108543D01*
X4163009Y8102853D01*
X4160875Y8096554D01*
X4160164Y8089900D01*
X4160875Y8083245D01*
X4163009Y8076946D01*
X4166463Y8071256D01*
X4171035Y8066379D01*
X4176572Y8062620D01*
X4182770Y8060181D01*
G37*
G36*
X4330242Y8079231D02*
G01*
X4430268Y8079231D01*
X4430268Y8179358D01*
X4426813Y8177631D01*
X4408271Y8166201D01*
X4390847Y8153196D01*
X4374642Y8138668D01*
X4359808Y8122818D01*
X4346397Y8105648D01*
X4334560Y8087410D01*
G37*
G36*
X4662932Y8079231D02*
G01*
X4763160Y8079231D01*
X4752949Y8096656D01*
X4740300Y8114385D01*
X4726127Y8130895D01*
X4710582Y8146135D01*
X4693767Y8159902D01*
X4675784Y8172145D01*
X4662932Y8179308D01*
G37*
G36*
X7225690Y8528812D02*
G01*
X7238898Y8528812D01*
X7245248Y8529523D01*
X7250684Y8531402D01*
X7255611Y8534501D01*
X7259675Y8538565D01*
X7262774Y8543493D01*
X7264704Y8548928D01*
X7265416Y8555278D01*
X7265416Y8569960D01*
X7225690Y8569960D01*
G37*
G36*
X4038600Y8587028D02*
G01*
X4052417Y8587943D01*
X4065981Y8590635D01*
X4079138Y8595055D01*
X4091533Y8601202D01*
X4103065Y8608872D01*
X4113479Y8618016D01*
X4122623Y8628430D01*
X4130294Y8639962D01*
X4136440Y8652357D01*
X4140860Y8665514D01*
X4143603Y8679078D01*
X4144518Y8693251D01*
X4144518Y8832545D01*
X4143603Y8846718D01*
X4140860Y8860282D01*
X4136440Y8873439D01*
X4130294Y8885834D01*
X4122623Y8897366D01*
X4113479Y8907780D01*
X4103065Y8916924D01*
X4091533Y8924594D01*
X4079138Y8930741D01*
X4065981Y8935161D01*
X4052417Y8937853D01*
X4038600Y8938768D01*
X4024782Y8937853D01*
X4011218Y8935161D01*
X3998061Y8930741D01*
X3985666Y8924594D01*
X3974134Y8916924D01*
X3963720Y8907780D01*
X3954576Y8897366D01*
X3946906Y8885834D01*
X3940759Y8873439D01*
X3936339Y8860282D01*
X3933596Y8846718D01*
X3932682Y8832545D01*
X3932682Y8693251D01*
X3933596Y8679078D01*
X3936339Y8665514D01*
X3940759Y8652357D01*
X3946906Y8639962D01*
X3954576Y8628430D01*
X3963720Y8618016D01*
X3974134Y8608872D01*
X3985666Y8601202D01*
X3998061Y8595055D01*
X4011218Y8590635D01*
X4024782Y8587943D01*
G37*
G36*
X4292600Y8587028D02*
G01*
X4306417Y8587943D01*
X4319981Y8590635D01*
X4333138Y8595055D01*
X4345533Y8601202D01*
X4357065Y8608872D01*
X4367479Y8618016D01*
X4376623Y8628430D01*
X4384294Y8639962D01*
X4390440Y8652357D01*
X4394860Y8665514D01*
X4397603Y8679078D01*
X4398518Y8693251D01*
X4398518Y8832545D01*
X4397603Y8846718D01*
X4394860Y8860282D01*
X4390440Y8873439D01*
X4384294Y8885834D01*
X4376623Y8897366D01*
X4367479Y8907780D01*
X4357065Y8916924D01*
X4345533Y8924594D01*
X4333138Y8930741D01*
X4319981Y8935161D01*
X4306417Y8937853D01*
X4292600Y8938768D01*
X4278782Y8937853D01*
X4265218Y8935161D01*
X4252061Y8930741D01*
X4239666Y8924594D01*
X4228134Y8916924D01*
X4217720Y8907780D01*
X4208576Y8897366D01*
X4200906Y8885834D01*
X4194759Y8873439D01*
X4190339Y8860282D01*
X4187596Y8846718D01*
X4186682Y8832545D01*
X4186682Y8693251D01*
X4187596Y8679078D01*
X4190339Y8665514D01*
X4194759Y8652357D01*
X4200906Y8639962D01*
X4208576Y8628430D01*
X4217720Y8618016D01*
X4228134Y8608872D01*
X4239666Y8601202D01*
X4252061Y8595055D01*
X4265218Y8590635D01*
X4278782Y8587943D01*
G37*
G36*
X3784600Y8587028D02*
G01*
X3798417Y8587943D01*
X3812032Y8590635D01*
X3825138Y8595055D01*
X3837533Y8601202D01*
X3849065Y8608872D01*
X3859479Y8618016D01*
X3868623Y8628430D01*
X3876294Y8639962D01*
X3882440Y8652357D01*
X3886860Y8665514D01*
X3889603Y8679078D01*
X3890518Y8693251D01*
X3890518Y8832545D01*
X3889603Y8846718D01*
X3886860Y8860282D01*
X3882440Y8873439D01*
X3876294Y8885834D01*
X3868623Y8897366D01*
X3859479Y8907780D01*
X3849065Y8916924D01*
X3837533Y8924594D01*
X3825138Y8930741D01*
X3812032Y8935161D01*
X3798417Y8937853D01*
X3784600Y8938768D01*
X3770782Y8937853D01*
X3757218Y8935161D01*
X3744061Y8930741D01*
X3731666Y8924594D01*
X3720134Y8916924D01*
X3709720Y8907780D01*
X3700576Y8897366D01*
X3692906Y8885834D01*
X3686759Y8873439D01*
X3682339Y8860282D01*
X3679647Y8846718D01*
X3678682Y8832545D01*
X3678682Y8693251D01*
X3679647Y8679078D01*
X3682339Y8665514D01*
X3686759Y8652357D01*
X3692906Y8639962D01*
X3700576Y8628430D01*
X3709720Y8618016D01*
X3720134Y8608872D01*
X3731666Y8601202D01*
X3744061Y8595055D01*
X3757218Y8590635D01*
X3770782Y8587943D01*
G37*
G36*
X7225690Y8625840D02*
G01*
X7265416Y8625840D01*
X7265416Y8640521D01*
X7264704Y8646871D01*
X7262774Y8652306D01*
X7259675Y8657234D01*
X7255611Y8661298D01*
X7250684Y8664397D01*
X7245248Y8666276D01*
X7238898Y8666988D01*
X7225690Y8666988D01*
G37*
G36*
X6970268Y8763508D02*
G01*
X6980834Y8763508D01*
X6987133Y8764219D01*
X6992620Y8766098D01*
X6997496Y8769197D01*
X7001611Y8773312D01*
X7004659Y8778189D01*
X7006590Y8783675D01*
X7007301Y8789974D01*
X7007301Y8814308D01*
X6970268Y8814308D01*
G37*
G36*
X6911949Y8763508D02*
G01*
X6922566Y8763508D01*
X6922566Y8814308D01*
X6885482Y8814308D01*
X6885482Y8789974D01*
X6886194Y8783675D01*
X6888124Y8778189D01*
X6891172Y8773312D01*
X6895287Y8769197D01*
X6900164Y8766098D01*
X6905650Y8764219D01*
G37*
G36*
X6970268Y8889492D02*
G01*
X7007301Y8889492D01*
X7007301Y8913825D01*
X7006590Y8920175D01*
X7004659Y8925610D01*
X7001611Y8930538D01*
X6997496Y8934602D01*
X6992620Y8937701D01*
X6987133Y8939580D01*
X6980834Y8940292D01*
X6970268Y8940292D01*
G37*
G36*
X6885482Y8889492D02*
G01*
X6922566Y8889492D01*
X6922566Y8940292D01*
X6911949Y8940292D01*
X6905650Y8939580D01*
X6900164Y8937701D01*
X6895287Y8934602D01*
X6891172Y8930538D01*
X6888124Y8925610D01*
X6886194Y8920175D01*
X6885482Y8913825D01*
G37*
G36*
X7396683Y8954516D02*
G01*
X7475524Y8954516D01*
X7481874Y8955227D01*
X7487310Y8957106D01*
X7492187Y8960205D01*
X7496302Y8964269D01*
X7499400Y8969197D01*
X7501280Y8974632D01*
X7501991Y8980982D01*
X7501991Y9017457D01*
X7503058Y9029700D01*
X7501991Y9041942D01*
X7501991Y9079839D01*
X7501280Y9086138D01*
X7499400Y9091625D01*
X7496302Y9096502D01*
X7492187Y9100616D01*
X7487310Y9103664D01*
X7481874Y9105595D01*
X7475524Y9106306D01*
X7396683Y9106306D01*
X7390333Y9105595D01*
X7384897Y9103664D01*
X7379970Y9100616D01*
X7375906Y9096502D01*
X7372807Y9091625D01*
X7370927Y9086138D01*
X7370216Y9079839D01*
X7370216Y8980982D01*
X7370927Y8974632D01*
X7372807Y8969197D01*
X7375906Y8964269D01*
X7379970Y8960205D01*
X7384897Y8957106D01*
X7390333Y8955227D01*
G37*
G36*
X6852970Y8956344D02*
G01*
X6863029Y8956344D01*
X6872935Y8957970D01*
X6882434Y8961272D01*
X6885025Y8962644D01*
X6888734Y8963812D01*
X6892137Y8964218D01*
X6897624Y8966098D01*
X6902500Y8969197D01*
X6906615Y8973261D01*
X6909663Y8978188D01*
X6911594Y8983624D01*
X6912102Y8988196D01*
X6912914Y8991142D01*
X6915556Y8997238D01*
X6918045Y9006992D01*
X6918858Y9017000D01*
X6918045Y9027007D01*
X6915556Y9036761D01*
X6913168Y9042298D01*
X6912305Y9046362D01*
X6912305Y9113824D01*
X6911594Y9120124D01*
X6909663Y9125610D01*
X6906615Y9130487D01*
X6902500Y9134602D01*
X6897624Y9137700D01*
X6892137Y9139580D01*
X6885838Y9140291D01*
X6816953Y9140291D01*
X6810654Y9139580D01*
X6805168Y9137700D01*
X6800291Y9134602D01*
X6796176Y9130487D01*
X6793128Y9125610D01*
X6791198Y9120124D01*
X6790486Y9113824D01*
X6790486Y8989974D01*
X6791198Y8983624D01*
X6793128Y8978188D01*
X6796176Y8973261D01*
X6800291Y8969197D01*
X6805168Y8966098D01*
X6810654Y8964218D01*
X6816953Y8963507D01*
X6826859Y8963507D01*
X6829348Y8963152D01*
X6833565Y8961272D01*
X6843064Y8957970D01*
G37*
G36*
X6645757Y9120682D02*
G01*
X6714642Y9120682D01*
X6720941Y9121394D01*
X6726428Y9123324D01*
X6731304Y9126423D01*
X6735419Y9130487D01*
X6738467Y9135414D01*
X6740398Y9140850D01*
X6741109Y9147200D01*
X6741109Y9271050D01*
X6740398Y9277350D01*
X6738467Y9282836D01*
X6735419Y9287713D01*
X6731304Y9291828D01*
X6726428Y9294876D01*
X6720941Y9296806D01*
X6714642Y9297517D01*
X6645757Y9297517D01*
X6639458Y9296806D01*
X6633972Y9294876D01*
X6629095Y9291828D01*
X6624980Y9287713D01*
X6621932Y9282836D01*
X6620002Y9277350D01*
X6619290Y9271050D01*
X6619290Y9147200D01*
X6620002Y9140850D01*
X6621932Y9135414D01*
X6624980Y9130487D01*
X6629095Y9126423D01*
X6633972Y9123324D01*
X6639458Y9121394D01*
G37*
G36*
X7704531Y9124137D02*
G01*
X7722565Y9125559D01*
X7740396Y9128810D01*
X7757769Y9133840D01*
X7774533Y9140698D01*
X7790535Y9149181D01*
X7805572Y9159290D01*
X7819440Y9170873D01*
X7832090Y9183878D01*
X7843367Y9198051D01*
X7853070Y9213342D01*
X7861147Y9229547D01*
X7867548Y9246514D01*
X7872171Y9263989D01*
X7874965Y9281871D01*
X7875879Y9299956D01*
X7874965Y9318091D01*
X7872171Y9335973D01*
X7867548Y9353448D01*
X7861147Y9370415D01*
X7853070Y9386620D01*
X7843367Y9401911D01*
X7832090Y9416084D01*
X7819440Y9429089D01*
X7805572Y9440672D01*
X7790535Y9450781D01*
X7774533Y9459264D01*
X7757769Y9466122D01*
X7740396Y9471152D01*
X7722565Y9474403D01*
X7704531Y9475825D01*
X7686395Y9475368D01*
X7668463Y9473031D01*
X7650835Y9468866D01*
X7633716Y9462922D01*
X7617307Y9455251D01*
X7601813Y9445904D01*
X7587284Y9435033D01*
X7574025Y9422739D01*
X7562037Y9409125D01*
X7551572Y9394393D01*
X7542631Y9378645D01*
X7535418Y9362033D01*
X7529880Y9344761D01*
X7526172Y9327032D01*
X7524343Y9309049D01*
X7524343Y9290913D01*
X7526172Y9272930D01*
X7529880Y9255201D01*
X7535418Y9237929D01*
X7542631Y9221317D01*
X7551572Y9205569D01*
X7562037Y9190837D01*
X7574025Y9177223D01*
X7587284Y9164929D01*
X7601813Y9154058D01*
X7617307Y9144711D01*
X7633716Y9137040D01*
X7650835Y9131096D01*
X7668463Y9126931D01*
X7686395Y9124594D01*
G37*
G36*
X4404512Y9124137D02*
G01*
X4422597Y9125559D01*
X4440377Y9128810D01*
X4457801Y9133840D01*
X4474565Y9140698D01*
X4490516Y9149181D01*
X4505553Y9159290D01*
X4519472Y9170873D01*
X4532122Y9183878D01*
X4543348Y9198051D01*
X4553051Y9213342D01*
X4561179Y9229547D01*
X4567529Y9246514D01*
X4572152Y9263989D01*
X4574946Y9281871D01*
X4575860Y9299956D01*
X4574946Y9318091D01*
X4572152Y9335973D01*
X4567529Y9353448D01*
X4561179Y9370415D01*
X4553051Y9386620D01*
X4543348Y9401911D01*
X4532122Y9416084D01*
X4519472Y9429089D01*
X4505553Y9440672D01*
X4490516Y9450781D01*
X4474565Y9459264D01*
X4457801Y9466122D01*
X4440377Y9471152D01*
X4422597Y9474403D01*
X4404512Y9475825D01*
X4386427Y9475368D01*
X4368444Y9473031D01*
X4350816Y9468866D01*
X4333748Y9462922D01*
X4317339Y9455251D01*
X4301794Y9445904D01*
X4287316Y9435033D01*
X4274007Y9422739D01*
X4262069Y9409125D01*
X4251553Y9394393D01*
X4242663Y9378645D01*
X4235399Y9362033D01*
X4229912Y9344761D01*
X4226204Y9327032D01*
X4224324Y9309049D01*
X4224324Y9290913D01*
X4226204Y9272930D01*
X4229912Y9255201D01*
X4235399Y9237929D01*
X4242663Y9221317D01*
X4251553Y9205569D01*
X4262069Y9190837D01*
X4274007Y9177223D01*
X4287316Y9164929D01*
X4301794Y9154058D01*
X4317339Y9144711D01*
X4333748Y9137040D01*
X4350816Y9131096D01*
X4368444Y9126931D01*
X4386427Y9124594D01*
G37*
G36*
X6609029Y9320682D02*
G01*
X6619646Y9320682D01*
X6625945Y9321393D01*
X6631431Y9323324D01*
X6636308Y9326372D01*
X6640423Y9330486D01*
X6643471Y9335363D01*
X6645402Y9340850D01*
X6646113Y9347149D01*
X6646113Y9371482D01*
X6609029Y9371482D01*
G37*
G36*
X6550761Y9320682D02*
G01*
X6561328Y9320682D01*
X6561328Y9371482D01*
X6524294Y9371482D01*
X6524294Y9347149D01*
X6525006Y9340850D01*
X6526936Y9335363D01*
X6529984Y9330486D01*
X6534099Y9326372D01*
X6538976Y9323324D01*
X6544462Y9321393D01*
G37*
G36*
X7378090Y9354312D02*
G01*
X7391298Y9354312D01*
X7397648Y9355023D01*
X7403084Y9356902D01*
X7408011Y9360001D01*
X7412075Y9364065D01*
X7415174Y9368993D01*
X7417104Y9374428D01*
X7417816Y9380778D01*
X7417816Y9395460D01*
X7378090Y9395460D01*
G37*
G36*
X7378090Y9451340D02*
G01*
X7417816Y9451340D01*
X7417816Y9466021D01*
X7417104Y9472371D01*
X7415174Y9477806D01*
X7412075Y9482734D01*
X7408011Y9486798D01*
X7403084Y9489897D01*
X7397648Y9491776D01*
X7391298Y9492488D01*
X7378090Y9492488D01*
G37*

%LPD*%
G36*
X4327042Y7976666D02*
G01*
X4299458Y7786471D01*
X4370171Y7715758D01*
X4560366Y7743342D01*
G37*
G36*
X6147206Y7464450D02*
G01*
X6145936Y7439964D01*
X6198463Y7439964D01*
X6197193Y7464450D01*
G37*
G36*
X6276949Y7418984D02*
G01*
X6260541Y7400798D01*
X6295898Y7365441D01*
X6314084Y7381849D01*
G37*
G36*
X7210450Y7418984D02*
G01*
X7173315Y7381849D01*
X7191502Y7365441D01*
X7226858Y7400798D01*
G37*
G36*
X6299200Y9269628D02*
G01*
X6273800Y9262618D01*
X6267754Y9235541D01*
X6318351Y9249511D01*
G37*
G36*
X6864096Y9054287D02*
G01*
X6838696Y9049512D01*
X6827926Y9034881D01*
X6879488Y9044635D01*
G37*
G36*
X7496149Y8790584D02*
G01*
X7479741Y8772398D01*
X7515098Y8737041D01*
X7533284Y8753449D01*
G37*
G36*
X6810197Y9471609D02*
G01*
X6810197Y9360916D01*
X6885178Y9398406D01*
X6885178Y9448393D01*
G37*
G36*
X7719009Y7064705D02*
G01*
X7719009Y6994702D01*
X7793990Y7011670D01*
X7793990Y7061657D01*
G37*
G36*
X7606487Y7404709D02*
G01*
X7593990Y7254697D01*
X7719009Y7254697D01*
X7706512Y7404709D01*
G37*
G36*
X7322261Y7234681D02*
G01*
X7393990Y7159701D01*
X7495082Y7159701D01*
X7392974Y7234681D01*
G37*
G36*
X6242202Y7843215D02*
G01*
X6232194Y7768183D01*
X6302197Y7768183D01*
X6292189Y7843215D01*
G37*
G36*
X6137198Y7443216D02*
G01*
X6147206Y7416800D01*
X6197193Y7416800D01*
X6207201Y7443216D01*
G37*
G36*
X7491069Y8833612D02*
G01*
X7462520Y8755176D01*
X7497165Y8719108D01*
X7571079Y8750401D01*
G37*
G36*
X7666075Y9080398D02*
G01*
X7605064Y8980424D01*
X7673136Y8947962D01*
X7699959Y8991904D01*
G37*
G36*
X6273800Y9271000D02*
G01*
X6254750Y9269476D01*
X6318250Y9269476D01*
X6299200Y9271000D01*
G37*
G36*
X6007608Y9499498D02*
G01*
X6007608Y9399524D01*
X6157620Y9399524D01*
X6157620Y9499498D01*
G37*
G36*
X6062624Y9269476D02*
G01*
X5987592Y9244533D01*
X5987592Y9194495D01*
X6062624Y9169501D01*
G37*
G36*
X6316116Y8980424D02*
G01*
X6331102Y8905392D01*
X6381089Y8905392D01*
X6396075Y8980424D01*
G37*
G36*
X6870192Y9466580D02*
G01*
X6795211Y9448393D01*
X6795211Y9398406D01*
X6870192Y9380220D01*
G37*
G36*
X7055916Y9474200D02*
G01*
X7034530Y9466580D01*
X7078725Y9466580D01*
X7082891Y9465208D01*
X7098030Y9466580D01*
X7078725Y9466580D01*
G37*
G36*
X7101484Y9466580D02*
G01*
X7101484Y9380220D01*
X7176516Y9398406D01*
X7176516Y9448393D01*
G37*
G36*
X7754620Y7076998D02*
G01*
X7679588Y7061657D01*
X7679588Y7011670D01*
X7754620Y6996379D01*
G37*
G36*
X7840980Y7184288D02*
G01*
X7789570Y7147001D01*
X7834579Y7132574D01*
X7855407Y7147661D01*
G37*
G36*
X7772806Y7302652D02*
G01*
X7754620Y7227620D01*
X7840980Y7227620D01*
X7822793Y7302652D01*
G37*
G36*
X6220764Y7818120D02*
G01*
X6242202Y7743088D01*
X6292189Y7743088D01*
X6301384Y7818120D01*
G37*
G36*
X6070092Y7904480D02*
G01*
X5995111Y7886293D01*
X5995111Y7836306D01*
X6070092Y7818120D01*
G37*
G36*
X7160615Y9466580D02*
G01*
X7085584Y9448393D01*
X7085584Y9398406D01*
X7160615Y9380220D01*
G37*
G36*
X7754620Y7288479D02*
G01*
X7772806Y7213447D01*
X7822793Y7213447D01*
X7840980Y7288479D01*
G37*
G36*
X5927801Y7869529D02*
G01*
X5913374Y7824520D01*
X5928461Y7803692D01*
X5965088Y7818120D01*
G37*
G36*
X6008471Y7904480D02*
G01*
X6008471Y7818120D01*
X6083452Y7836306D01*
X6083452Y7886293D01*
G37*
G36*
X7694828Y8641080D02*
G01*
X7619847Y8622893D01*
X7619847Y8572906D01*
X7694828Y8554720D01*
G37*
G36*
X7860842Y8716111D02*
G01*
X7845501Y8641080D01*
X7926171Y8641080D01*
X7910830Y8716111D01*
G37*
G36*
X5738215Y9251950D02*
G01*
X5700115Y9232900D01*
X5700115Y9207500D01*
X5738215Y9188450D01*
G37*
G36*
X5753506Y9338411D02*
G01*
X5738215Y9263380D01*
X5818835Y9263380D01*
X5803493Y9338411D01*
G37*
G36*
X5969508Y9263380D02*
G01*
X5969508Y9177020D01*
X6044488Y9194495D01*
X6044488Y9244533D01*
G37*
G36*
X6158128Y8641080D02*
G01*
X6083147Y8622893D01*
X6083147Y8572906D01*
X6158128Y8554720D01*
G37*
G36*
X6331102Y8716111D02*
G01*
X6308801Y8641080D01*
X6389471Y8641080D01*
X6381089Y8716111D01*
G37*
G36*
X7405370Y8687663D02*
G01*
X7390028Y8641080D01*
X7470698Y8641080D01*
X7455357Y8687663D01*
G37*
G36*
X7540701Y8606129D02*
G01*
X7526274Y8561120D01*
X7541361Y8540292D01*
X7577988Y8554720D01*
G37*
G36*
X7621371Y8641080D02*
G01*
X7621371Y8554720D01*
X7696352Y8572906D01*
X7696352Y8622893D01*
G37*
G36*
X5959754Y9484868D02*
G01*
X5888837Y9428480D01*
X5969508Y9342120D01*
X6029248Y9412935D01*
G37*
G36*
X5738215Y9342120D02*
G01*
X5753506Y9267088D01*
X5803493Y9267088D01*
X5818835Y9342120D01*
G37*
G36*
X5853328Y8641080D02*
G01*
X5753404Y8528354D01*
X5821680Y8455202D01*
X5933998Y8554720D01*
G37*
G36*
X6004661Y8655507D02*
G01*
X5989574Y8634679D01*
X6004001Y8589670D01*
X6041288Y8641080D01*
G37*
G36*
X6084671Y8641080D02*
G01*
X6084671Y8554720D01*
X6159652Y8572906D01*
X6159652Y8622893D01*
G37*
G36*
X5849112Y7483094D02*
G01*
X5799785Y7461758D01*
X5843016Y7411466D01*
X5967171Y7425893D01*
G37*
G36*
X5843016Y7165898D02*
G01*
X5855512Y7073900D01*
X5955487Y7073900D01*
X5967984Y7165898D01*
G37*
G36*
X6167983Y7330897D02*
G01*
X6167983Y7260894D01*
X6190996Y7270902D01*
X6190996Y7320889D01*
G37*
G36*
X6441998Y7250684D02*
G01*
X6367018Y7213193D01*
X6367018Y7163206D01*
X6441998Y7125716D01*
G37*
G36*
X6791502Y7127290D02*
G01*
X6808470Y7052309D01*
X6858457Y7052309D01*
X6861505Y7127290D01*
G37*
G36*
X7051497Y7252309D02*
G01*
X7051497Y7127290D01*
X7161225Y7139787D01*
X7161225Y7239812D01*
G37*
G36*
X5808980Y7519720D02*
G01*
X5808980Y7439101D01*
X5817463Y7454442D01*
X5817463Y7504430D01*
G37*
G36*
X5722620Y7288479D02*
G01*
X5740806Y7213447D01*
X5790793Y7213447D01*
X5808980Y7288479D01*
G37*
G36*
X6260236Y7133793D02*
G01*
X6183528Y7078980D01*
X6264198Y7054088D01*
X6314236Y7117080D01*
G37*
G36*
X6334201Y7044029D02*
G01*
X6319774Y6999020D01*
X6334861Y6978192D01*
X6371488Y6992620D01*
G37*
G36*
X6414871Y7078980D02*
G01*
X6414871Y6992620D01*
X6489852Y7010806D01*
X6489852Y7060793D01*
G37*
G36*
X6808470Y7154011D02*
G01*
X6793128Y7078980D01*
X6873798Y7078980D01*
X6858457Y7154011D01*
G37*
G36*
X6943801Y7044029D02*
G01*
X6929374Y6999020D01*
X6944461Y6978192D01*
X6981088Y6992620D01*
G37*
G36*
X7024471Y7078980D02*
G01*
X7024471Y6992620D01*
X7099452Y7010806D01*
X7099452Y7060793D01*
G37*
G36*
X5740806Y7302652D02*
G01*
X5722620Y7227620D01*
X5808980Y7227620D01*
X5790793Y7302652D01*
G37*
G36*
X5722620Y7184288D02*
G01*
X5708192Y7147661D01*
X5729020Y7132574D01*
X5774029Y7147001D01*
G37*
G36*
X6475628Y7078980D02*
G01*
X6400647Y7060793D01*
X6400647Y7010806D01*
X6475628Y6992620D01*
G37*
G36*
X7085228Y7078980D02*
G01*
X7010247Y7060793D01*
X7010247Y7010806D01*
X7085228Y6992620D01*
G37*
G36*
X7505242Y7666990D02*
G01*
X7502194Y7592009D01*
X7572197Y7592009D01*
X7555230Y7666990D01*
G37*
G36*
X7312202Y7592009D02*
G01*
X7177074Y7579512D01*
X7177074Y7479487D01*
X7312202Y7466990D01*
G37*
G36*
X6721398Y8789416D02*
G01*
X6731406Y8714384D01*
X6781393Y8714384D01*
X6791401Y8789416D01*
G37*
G36*
X7031228Y9007449D02*
G01*
X6911390Y8914384D01*
X6981393Y8789416D01*
X7081977Y8916771D01*
G37*
G36*
X6981393Y8914384D02*
G01*
X6981393Y8789416D01*
X7035800Y8801912D01*
X7035800Y8901887D01*
G37*
G36*
X7489901Y7627620D02*
G01*
X7505242Y7552588D01*
X7555230Y7552588D01*
X7570571Y7627620D01*
G37*
G36*
X7419035Y7728356D02*
G01*
X7382306Y7713980D01*
X7419898Y7662824D01*
X7434275Y7707630D01*
G37*
G36*
X7339228Y7713980D02*
G01*
X7264247Y7695793D01*
X7264247Y7645806D01*
X7339228Y7627620D01*
G37*
G36*
X6731406Y8716111D02*
G01*
X6716115Y8641080D01*
X6796735Y8641080D01*
X6781393Y8716111D01*
G37*
G36*
X6866737Y8606231D02*
G01*
X6852259Y8561120D01*
X6867347Y8540242D01*
X6903872Y8554720D01*
G37*
G36*
X6947408Y8641080D02*
G01*
X6947408Y8554720D01*
X7022388Y8572906D01*
X7022388Y8622893D01*
G37*
G36*
X7278471Y7713980D02*
G01*
X7278471Y7627620D01*
X7353452Y7645806D01*
X7353452Y7695793D01*
G37*
G36*
X7008215Y8641080D02*
G01*
X6933184Y8622893D01*
X6933184Y8572906D01*
X7008215Y8554720D01*
G37*
G36*
X4613554Y7049058D02*
G01*
X4560519Y7014108D01*
X4597196Y6992670D01*
X4618837Y7006945D01*
G37*
G36*
X4372610Y7114540D02*
G01*
X4361383Y7052056D01*
X4410710Y7026757D01*
X4410710Y7062673D01*
G37*
G36*
X4118610Y7114540D02*
G01*
X4107383Y7052056D01*
X4156710Y7026757D01*
X4156710Y7062673D01*
G37*
G36*
X3864610Y7114540D02*
G01*
X3853383Y7052056D01*
X3902710Y7026757D01*
X3902710Y7062673D01*
G37*
G36*
X4918710Y7298944D02*
G01*
X4869434Y7273645D01*
X4880610Y7211161D01*
X4918710Y7263028D01*
G37*
G36*
X5130088Y7066483D02*
G01*
X5087061Y7019798D01*
X5128006Y7007961D01*
X5145227Y7026656D01*
G37*
G36*
X5394299Y7305446D02*
G01*
X5352186Y7300010D01*
X5387340Y7247128D01*
X5408676Y7283856D01*
G37*
G36*
X4664710Y8898940D02*
G01*
X4615434Y8873642D01*
X4626610Y8811158D01*
X4664710Y8863025D01*
G37*
G36*
X4918710Y8899042D02*
G01*
X4869383Y8873744D01*
X4880610Y8811260D01*
X4918710Y8863126D01*
G37*
G36*
X5172710Y8899042D02*
G01*
X5123383Y8873744D01*
X5134610Y8811260D01*
X5172710Y8863126D01*
G37*
G36*
X5388610Y8794648D02*
G01*
X5388610Y8731148D01*
X5426710Y8750198D01*
X5426710Y8775598D01*
G37*
G36*
X4588510Y7625232D02*
G01*
X4588510Y7425232D01*
X4738522Y7475220D01*
X4738522Y7575194D01*
G37*
G36*
X4268012Y7734300D02*
G01*
X4237990Y7625232D01*
X4398010Y7625232D01*
X4367987Y7734300D01*
G37*
D10*
X7061200Y9423400D02*
G01*
X7061200Y9461500D01*
X7073900Y9474200D01*
X7010400Y9537700D01*
X5321300Y9537700D01*
X4546600Y8763000D01*
X5054600Y8763000D02*
G01*
X5410200Y9118600D01*
X6400800Y9118600D01*
X6553200Y8966200D01*
X6553200Y8674100D01*
X6705600Y8521700D01*
X6830822Y8521700D01*
X6907022Y8597900D01*
D11*
X7351522Y9423400D02*
G01*
X7351522Y9257029D01*
X6946391Y8851900D01*
X7087361Y7670800D02*
G01*
X7087361Y7619237D01*
X7177024Y7529576D01*
X7347204Y7529576D01*
X5905500Y7200900D02*
G01*
X5905500Y7073900D01*
X5868161Y7036562D01*
X5765800Y7036562D01*
D10*
X3784600Y7162800D02*
G01*
X4165600Y6781800D01*
X7848600Y6781800D01*
X7924800Y6858000D01*
X7924800Y7480300D01*
X7658100Y7747000D01*
X7455661Y7747000D01*
X7379461Y7670800D01*
X4038600Y7162800D02*
G01*
X4368800Y6832600D01*
X7810500Y6832600D01*
X7874000Y6896100D01*
X7874000Y7111237D01*
X7797800Y7187437D01*
X6984238Y7035800D02*
G01*
X6831838Y6883400D01*
X4572000Y6883400D01*
X4292600Y7162800D01*
X4546600Y7162800D02*
G01*
X4546600Y7061200D01*
X4673600Y6934200D01*
X6273038Y6934200D01*
X6374638Y7035800D01*
D11*
X6666738Y7035800D02*
G01*
X6666991Y7036054D01*
X6666991Y7188200D01*
X7797800Y7479537D02*
G01*
X7720838Y7479537D01*
X7656575Y7415276D01*
X7656575Y7219695D01*
X7276338Y7035800D02*
G01*
X7276338Y7074662D01*
X7213600Y7137400D01*
X7161275Y7189723D01*
X7016495Y7189723D01*
X6946391Y8851900D02*
G01*
X7035800Y8851900D01*
X7199122Y8685021D01*
X7199122Y8597900D01*
X5929122Y9385300D02*
G01*
X5930900Y9385300D01*
X5995161Y9449562D01*
X6197600Y9449562D01*
D12*
X7430261Y8597900D02*
G01*
X7430261Y8687562D01*
X7531100Y8788400D01*
X7531100Y8800337D01*
X6172200Y7416800D02*
G01*
X6172200Y7505700D01*
X7442200Y7329500D02*
G01*
X7442200Y7302500D01*
D10*
X4800600Y7162800D02*
G01*
X5880100Y8242300D01*
X7225538Y8242300D01*
X7581138Y8597900D01*
D11*
X4508500Y7525258D02*
G01*
X4820920Y7525258D01*
X5893561Y8597900D01*
D10*
X5308600Y8763000D02*
G01*
X5879338Y8763000D01*
X6044438Y8597900D01*
D12*
X6349238Y8597900D02*
G01*
X6356095Y8604758D01*
X6356095Y9030462D01*
X6198361Y8597900D02*
G01*
X6044438Y8597900D01*
D10*
X4800600Y8763000D02*
G01*
X5257800Y9220200D01*
X5778500Y9220200D01*
D12*
X5778500Y9220200D02*
G01*
X5778500Y9385300D01*
X6102604Y9219437D02*
G01*
X5929884Y9219437D01*
X5929122Y9220200D01*
X5905500Y7390892D02*
G01*
X5905500Y7391400D01*
X5817361Y7479537D01*
X5765800Y7479537D01*
X6910577Y9423400D02*
G01*
X6789420Y9423400D01*
X6775195Y9409176D01*
X7200900Y9423400D02*
G01*
X7061200Y9423400D01*
X7885938Y8597900D02*
G01*
X7885938Y8770620D01*
X7626095Y9030462D01*
X7581138Y8597900D02*
G01*
X7735061Y8597900D01*
X7048500Y8597900D02*
G01*
X6907022Y8597900D01*
X6756400Y8851900D02*
G01*
X6756400Y8597900D01*
X7797800Y7036562D02*
G01*
X7671054Y7036562D01*
X7664195Y7029704D01*
X7656575Y7029704D01*
X5765800Y7328662D02*
G01*
X5765800Y7187437D01*
X7797800Y7328662D02*
G01*
X7797800Y7187437D01*
D10*
X5765800Y7187437D02*
G01*
X5563361Y6985000D01*
X5168900Y6985000D01*
X5054600Y7099300D01*
X5054600Y7162800D01*
D12*
X7456424Y7124700D02*
G01*
X7456424Y7135876D01*
X7175500Y7416800D01*
X7379461Y7670800D02*
G01*
X7238238Y7670800D01*
X7537195Y7529576D02*
G01*
X7530338Y7536434D01*
X7530338Y7670800D01*
X6223761Y7035800D02*
G01*
X6223761Y7061962D01*
X6350000Y7188200D01*
X6477000Y7188200D01*
X6826504Y7189723D02*
G01*
X6833361Y7182865D01*
X6833361Y7035800D01*
D10*
X5968238Y7861300D02*
G01*
X5308600Y7201662D01*
X5308600Y7162800D01*
D12*
X6110477Y7861300D02*
G01*
X5968238Y7861300D01*
X6267195Y7705597D02*
G01*
X6267195Y7855204D01*
X6261100Y7861300D01*
X6105397Y7295895D02*
G01*
X6190995Y7295895D01*
X6311900Y7416800D01*
D10*
X4800600Y7061200D02*
G01*
X4800600Y7162800D01*
D11*
X4546600Y7962900D02*
G01*
X4318000Y7734300D01*
X4318000Y7525258D01*
D10*
X6851395Y9051899D02*
G01*
X6851395Y9023604D01*
X6858000Y9017000D01*
X6870712Y9029712D01*
X6870712Y9042400D01*
D12*
X6571995Y7388199D02*
G01*
X6571995Y7410704D01*
X6565900Y7416800D01*
X7125461Y7035800D02*
G01*
X6984238Y7035800D01*
X6515861Y7035800D02*
G01*
X6374638Y7035800D01*
D10*
X6292595Y9219437D02*
G01*
X6298438Y9219437D01*
X6299200Y9220200D01*
X6286500Y9232900D01*
X6286500Y9271000D01*
X6680200Y9209100D02*
G01*
X6680200Y9220200D01*
D13*
G01*
X6775195Y9409099D03*
G01*
X6585204Y9409099D03*
G01*
X6680200Y9209100D03*
D14*
G01*
X7656499Y7029704D03*
G01*
X7656499Y7219701D03*
G01*
X7456500Y7124700D03*
D13*
G01*
X6267195Y7705699D03*
G01*
X6077204Y7705699D03*
G01*
X6172200Y7505700D03*
D15*
G01*
X7436098Y9030395D03*
G01*
X7531094Y8800398D03*
G01*
X7626090Y9030395D03*
G01*
X6292601Y9219504D03*
G01*
X6197605Y9449501D03*
G01*
X6102609Y9219504D03*
G01*
X6166098Y9030395D03*
G01*
X6261094Y8800398D03*
G01*
X6356090Y9030395D03*
D16*
G01*
X6910538Y9423400D03*
G01*
X7061188Y9423400D03*
D17*
G01*
X7797800Y7036675D03*
D18*
G01*
X7797800Y7187336D03*
D19*
G01*
X6261088Y7861300D03*
G01*
X6110438Y7861300D03*
D16*
G01*
X7200911Y9423400D03*
G01*
X7351561Y9423400D03*
D17*
G01*
X7797800Y7328775D03*
D18*
G01*
X7797800Y7479436D03*
D19*
G01*
X5968124Y7861300D03*
G01*
X5817475Y7861300D03*
D16*
G01*
X7735175Y8597900D03*
G01*
X7885824Y8597900D03*
G01*
X5778511Y9220200D03*
G01*
X5929161Y9220200D03*
G01*
X6198475Y8597900D03*
G01*
X6349124Y8597900D03*
G01*
X7430375Y8597900D03*
G01*
X7581024Y8597900D03*
D19*
G01*
X5929161Y9385300D03*
G01*
X5778511Y9385300D03*
D16*
G01*
X5893675Y8597900D03*
G01*
X6044324Y8597900D03*
D20*
G01*
X4546600Y7162901D03*
G01*
X4292600Y7162901D03*
G01*
X4038600Y7162901D03*
G01*
X3784600Y7162901D03*
G01*
X4800600Y7162901D03*
G01*
X5054600Y7162901D03*
G01*
X5308600Y7162901D03*
G01*
X4546600Y8762898D03*
G01*
X3784600Y8762898D03*
G01*
X4038600Y8762898D03*
G01*
X4292600Y8762898D03*
G01*
X4800600Y8762898D03*
G01*
X5054600Y8762898D03*
G01*
X5308600Y8762898D03*
D21*
G01*
X4191000Y8089900D03*
G01*
X4191000Y7835900D03*
G01*
X3937000Y7835900D03*
G01*
X3937000Y8089900D03*
G01*
X3683000Y8089900D03*
G01*
X3683000Y7835900D03*
D14*
G01*
X5905500Y7390892D03*
G01*
X5905500Y7200900D03*
G01*
X6105499Y7295895D03*
D13*
G01*
X6477000Y7188200D03*
G01*
X6666991Y7188200D03*
G01*
X6571995Y7388199D03*
G01*
X6826504Y7189800D03*
G01*
X7016495Y7189800D03*
G01*
X6921500Y7389799D03*
D17*
G01*
X5765800Y7479424D03*
D18*
G01*
X5765800Y7328763D03*
D16*
G01*
X6223875Y7035800D03*
G01*
X6374524Y7035800D03*
G01*
X6833475Y7035800D03*
G01*
X6984124Y7035800D03*
D17*
G01*
X5765800Y7187324D03*
D18*
G01*
X5765800Y7036663D03*
D16*
G01*
X6515975Y7035800D03*
G01*
X6666624Y7035800D03*
G01*
X7125575Y7035800D03*
G01*
X7276224Y7035800D03*
D13*
G01*
X7537195Y7529499D03*
G01*
X7347204Y7529499D03*
G01*
X7442200Y7329500D03*
G01*
X6756400Y8851900D03*
G01*
X6946391Y8851900D03*
G01*
X6851395Y9051899D03*
D19*
G01*
X7530224Y7670800D03*
G01*
X7379575Y7670800D03*
D16*
G01*
X6756411Y8597900D03*
G01*
X6907061Y8597900D03*
D19*
G01*
X7238124Y7670800D03*
G01*
X7087475Y7670800D03*
D16*
G01*
X7048511Y8597900D03*
G01*
X7199161Y8597900D03*
D22*
G01*
X4508500Y7525207D03*
G01*
X4318000Y7525207D03*
D23*
G01*
X4546600Y7962900D03*
D24*
G01*
X6172200Y7416800D03*
G01*
X6311900Y7416800D03*
G01*
X6565900Y7416800D03*
G01*
X6921500Y7404100D03*
G01*
X7175500Y7416800D03*
G01*
X7442200Y7302500D03*
G01*
X6172200Y9042400D03*
G01*
X6299200Y9220200D03*
G01*
X6680200Y9220200D03*
G01*
X6858000Y9017000D03*
G01*
X7442200Y9029700D03*
G01*
X5892800Y8597900D03*
G01*
X5930900Y9385300D03*
G01*
X6261100Y8788400D03*
G01*
X5816600Y7861300D03*
G01*
X6077204Y7705699D03*
G01*
X5905500Y7200900D03*
G01*
X5803900Y7035800D03*
G01*
X7531100Y8788400D03*
G01*
X7353300Y9423400D03*
G01*
X7200900Y8597900D03*
G01*
X7086600Y7670800D03*
G01*
X7347198Y7529499D03*
G01*
X7656575Y7219695D03*
G01*
X7276236Y7035800D03*
G01*
X6667500Y7035800D03*
G01*
X6585204Y9409099D03*
D25*
G01*
X3132198Y8592774D03*
G01*
X3132198Y7592776D03*
G01*
X4132196Y9592772D03*
G01*
X4132196Y8592774D03*
G01*
X5132194Y9592772D03*
G01*
X5132194Y8592774D03*
G01*
X5132194Y7592776D03*
G01*
X7132190Y9592772D03*
G01*
X8132188Y9592772D03*
G01*
X8132188Y8592774D03*
G01*
X8132188Y7592776D03*
M02*
