G04 Layer: TopPasteMaskLayer*
G04 EasyEDA v6.5.29, 2023-07-20 15:37:45*
G04 17ac077c781348d4b2828c41e336cf63,4bfb672c99b74c95bcb02992393faf10,10*
G04 Gerber Generator version 0.2*
G04 Scale: 100 percent, Rotated: No, Reflected: No *
G04 Dimensions in millimeters *
G04 leading zeros omitted , absolute positions ,4 integer and 5 decimal *
%FSLAX45Y45*%
%MOMM*%

%ADD10C,0.1000*%
%ADD11O,1.5999968X2.999994*%
%ADD12R,0.7000X1.2500*%
%ADD13R,1.2500X0.7000*%
%ADD14R,0.8000X1.0000*%
%ADD15R,0.0186X1.0000*%

%LPD*%
G36*
X7156856Y9468408D02*
G01*
X7151827Y9463379D01*
X7151827Y9383420D01*
X7156856Y9378391D01*
X7236815Y9378391D01*
X7241844Y9383420D01*
X7241844Y9406178D01*
X7204811Y9406178D01*
X7204811Y9439198D01*
X7241844Y9439198D01*
X7241844Y9463379D01*
X7236815Y9468408D01*
G37*
G36*
X7316825Y9468408D02*
G01*
X7311847Y9463379D01*
X7311847Y9439198D01*
X7349845Y9439198D01*
X7349845Y9406178D01*
X7311847Y9406178D01*
X7311847Y9383420D01*
X7316825Y9378391D01*
X7395819Y9378391D01*
X7400848Y9383420D01*
X7400848Y9463379D01*
X7395819Y9468408D01*
G37*
G36*
X5725820Y7236510D02*
G01*
X5720791Y7231481D01*
X5720791Y7151522D01*
X5725820Y7146493D01*
X5748578Y7146493D01*
X5748578Y7183526D01*
X5781598Y7183526D01*
X5781598Y7146493D01*
X5805779Y7146493D01*
X5810808Y7151522D01*
X5810808Y7231481D01*
X5805779Y7236510D01*
G37*
G36*
X5725820Y7076490D02*
G01*
X5720791Y7071512D01*
X5720791Y6992518D01*
X5725820Y6987489D01*
X5805779Y6987489D01*
X5810808Y6992518D01*
X5810808Y7071512D01*
X5805779Y7076490D01*
X5781598Y7076490D01*
X5781598Y7038492D01*
X5748578Y7038492D01*
X5748578Y7076490D01*
G37*
G36*
X6471818Y7080808D02*
G01*
X6466789Y7075779D01*
X6466789Y6995820D01*
X6471818Y6990791D01*
X6551777Y6990791D01*
X6556806Y6995820D01*
X6556806Y7018578D01*
X6519824Y7018578D01*
X6519824Y7051598D01*
X6556806Y7051598D01*
X6556806Y7075779D01*
X6551777Y7080808D01*
G37*
G36*
X6631787Y7080808D02*
G01*
X6626809Y7075779D01*
X6626809Y7051598D01*
X6664807Y7051598D01*
X6664807Y7018578D01*
X6626809Y7018578D01*
X6626809Y6995820D01*
X6631787Y6990791D01*
X6710781Y6990791D01*
X6715810Y6995820D01*
X6715810Y7075779D01*
X6710781Y7080808D01*
G37*
G36*
X7081418Y7080808D02*
G01*
X7076389Y7075779D01*
X7076389Y6995820D01*
X7081418Y6990791D01*
X7161377Y6990791D01*
X7166406Y6995820D01*
X7166406Y7018578D01*
X7129424Y7018578D01*
X7129424Y7051598D01*
X7166406Y7051598D01*
X7166406Y7075779D01*
X7161377Y7080808D01*
G37*
G36*
X7241387Y7080808D02*
G01*
X7236409Y7075779D01*
X7236409Y7051598D01*
X7274407Y7051598D01*
X7274407Y7018578D01*
X7236409Y7018578D01*
X7236409Y6995820D01*
X7241387Y6990791D01*
X7320381Y6990791D01*
X7325410Y6995820D01*
X7325410Y7075779D01*
X7320381Y7080808D01*
G37*
G36*
X7202322Y7715808D02*
G01*
X7197293Y7710779D01*
X7197293Y7688021D01*
X7234275Y7688021D01*
X7234275Y7655001D01*
X7197293Y7655001D01*
X7197293Y7630820D01*
X7202322Y7625791D01*
X7282281Y7625791D01*
X7287310Y7630820D01*
X7287310Y7710779D01*
X7282281Y7715808D01*
G37*
G36*
X7043318Y7715808D02*
G01*
X7038289Y7710779D01*
X7038289Y7630820D01*
X7043318Y7625791D01*
X7122312Y7625791D01*
X7127290Y7630820D01*
X7127290Y7655001D01*
X7089292Y7655001D01*
X7089292Y7688021D01*
X7127290Y7688021D01*
X7127290Y7710779D01*
X7122312Y7715808D01*
G37*
G36*
X7004456Y8642908D02*
G01*
X6999427Y8637879D01*
X6999427Y8557920D01*
X7004456Y8552891D01*
X7084415Y8552891D01*
X7089444Y8557920D01*
X7089444Y8580678D01*
X7052411Y8580678D01*
X7052411Y8613698D01*
X7089444Y8613698D01*
X7089444Y8637879D01*
X7084415Y8642908D01*
G37*
G36*
X7164425Y8642908D02*
G01*
X7159447Y8637879D01*
X7159447Y8613698D01*
X7197445Y8613698D01*
X7197445Y8580678D01*
X7159447Y8580678D01*
X7159447Y8557920D01*
X7164425Y8552891D01*
X7243419Y8552891D01*
X7248448Y8557920D01*
X7248448Y8637879D01*
X7243419Y8642908D01*
G37*
G36*
X7757820Y7369606D02*
G01*
X7752791Y7364577D01*
X7752791Y7284618D01*
X7757820Y7279589D01*
X7837779Y7279589D01*
X7842808Y7284618D01*
X7842808Y7364577D01*
X7837779Y7369606D01*
X7815021Y7369606D01*
X7815021Y7332573D01*
X7782001Y7332573D01*
X7782001Y7369606D01*
G37*
G36*
X7757820Y7528610D02*
G01*
X7752791Y7523581D01*
X7752791Y7444587D01*
X7757820Y7439609D01*
X7782001Y7439609D01*
X7782001Y7477607D01*
X7815021Y7477607D01*
X7815021Y7439609D01*
X7837779Y7439609D01*
X7842808Y7444587D01*
X7842808Y7523581D01*
X7837779Y7528610D01*
G37*
G36*
X5932322Y7906308D02*
G01*
X5927293Y7901279D01*
X5927293Y7878521D01*
X5964275Y7878521D01*
X5964275Y7845501D01*
X5927293Y7845501D01*
X5927293Y7821320D01*
X5932322Y7816291D01*
X6012281Y7816291D01*
X6017310Y7821320D01*
X6017310Y7901279D01*
X6012281Y7906308D01*
G37*
G36*
X5773318Y7906308D02*
G01*
X5768289Y7901279D01*
X5768289Y7821320D01*
X5773318Y7816291D01*
X5852312Y7816291D01*
X5857290Y7821320D01*
X5857290Y7845501D01*
X5819292Y7845501D01*
X5819292Y7878521D01*
X5857290Y7878521D01*
X5857290Y7901279D01*
X5852312Y7906308D01*
G37*
G36*
X6866381Y9468408D02*
G01*
X6861352Y9463379D01*
X6861352Y9383420D01*
X6866381Y9378391D01*
X6946341Y9378391D01*
X6951370Y9383420D01*
X6951370Y9406178D01*
X6914388Y9406178D01*
X6914388Y9439198D01*
X6951370Y9439198D01*
X6951370Y9463379D01*
X6946341Y9468408D01*
G37*
G36*
X7026351Y9468408D02*
G01*
X7021372Y9463379D01*
X7021372Y9439198D01*
X7059371Y9439198D01*
X7059371Y9406178D01*
X7021372Y9406178D01*
X7021372Y9383420D01*
X7026351Y9378391D01*
X7105345Y9378391D01*
X7110374Y9383420D01*
X7110374Y9463379D01*
X7105345Y9468408D01*
G37*
G36*
X7757820Y7077506D02*
G01*
X7752791Y7072477D01*
X7752791Y6992518D01*
X7757820Y6987489D01*
X7837779Y6987489D01*
X7842808Y6992518D01*
X7842808Y7072477D01*
X7837779Y7077506D01*
X7815021Y7077506D01*
X7815021Y7040473D01*
X7782001Y7040473D01*
X7782001Y7077506D01*
G37*
G36*
X7757820Y7236510D02*
G01*
X7752791Y7231481D01*
X7752791Y7152487D01*
X7757820Y7147509D01*
X7782001Y7147509D01*
X7782001Y7185507D01*
X7815021Y7185507D01*
X7815021Y7147509D01*
X7837779Y7147509D01*
X7842808Y7152487D01*
X7842808Y7231481D01*
X7837779Y7236510D01*
G37*
G36*
X6225286Y7906308D02*
G01*
X6220256Y7901279D01*
X6220256Y7878521D01*
X6257290Y7878521D01*
X6257290Y7845501D01*
X6220256Y7845501D01*
X6220256Y7821320D01*
X6225286Y7816291D01*
X6305245Y7816291D01*
X6310274Y7821320D01*
X6310274Y7901279D01*
X6305245Y7906308D01*
G37*
G36*
X6066282Y7906308D02*
G01*
X6061252Y7901279D01*
X6061252Y7821320D01*
X6066282Y7816291D01*
X6145276Y7816291D01*
X6150254Y7821320D01*
X6150254Y7845501D01*
X6112256Y7845501D01*
X6112256Y7878521D01*
X6150254Y7878521D01*
X6150254Y7901279D01*
X6145276Y7906308D01*
G37*
G36*
X7691018Y8642908D02*
G01*
X7685989Y8637879D01*
X7685989Y8557920D01*
X7691018Y8552891D01*
X7770977Y8552891D01*
X7776006Y8557920D01*
X7776006Y8580678D01*
X7739024Y8580678D01*
X7739024Y8613698D01*
X7776006Y8613698D01*
X7776006Y8637879D01*
X7770977Y8642908D01*
G37*
G36*
X7850987Y8642908D02*
G01*
X7846009Y8637879D01*
X7846009Y8613698D01*
X7884007Y8613698D01*
X7884007Y8580678D01*
X7846009Y8580678D01*
X7846009Y8557920D01*
X7850987Y8552891D01*
X7929981Y8552891D01*
X7935010Y8557920D01*
X7935010Y8637879D01*
X7929981Y8642908D01*
G37*
G36*
X5734354Y9265208D02*
G01*
X5729325Y9260179D01*
X5729325Y9180220D01*
X5734354Y9175191D01*
X5814314Y9175191D01*
X5819343Y9180220D01*
X5819343Y9202978D01*
X5782310Y9202978D01*
X5782310Y9235998D01*
X5819343Y9235998D01*
X5819343Y9260179D01*
X5814314Y9265208D01*
G37*
G36*
X5894324Y9265208D02*
G01*
X5889345Y9260179D01*
X5889345Y9235998D01*
X5927344Y9235998D01*
X5927344Y9202978D01*
X5889345Y9202978D01*
X5889345Y9180220D01*
X5894324Y9175191D01*
X5973318Y9175191D01*
X5978347Y9180220D01*
X5978347Y9260179D01*
X5973318Y9265208D01*
G37*
G36*
X6154318Y8642908D02*
G01*
X6149289Y8637879D01*
X6149289Y8557920D01*
X6154318Y8552891D01*
X6234277Y8552891D01*
X6239306Y8557920D01*
X6239306Y8580678D01*
X6202324Y8580678D01*
X6202324Y8613698D01*
X6239306Y8613698D01*
X6239306Y8637879D01*
X6234277Y8642908D01*
G37*
G36*
X6314287Y8642908D02*
G01*
X6309309Y8637879D01*
X6309309Y8613698D01*
X6347307Y8613698D01*
X6347307Y8580678D01*
X6309309Y8580678D01*
X6309309Y8557920D01*
X6314287Y8552891D01*
X6393281Y8552891D01*
X6398310Y8557920D01*
X6398310Y8637879D01*
X6393281Y8642908D01*
G37*
G36*
X7386218Y8642908D02*
G01*
X7381189Y8637879D01*
X7381189Y8557920D01*
X7386218Y8552891D01*
X7466177Y8552891D01*
X7471206Y8557920D01*
X7471206Y8580678D01*
X7434224Y8580678D01*
X7434224Y8613698D01*
X7471206Y8613698D01*
X7471206Y8637879D01*
X7466177Y8642908D01*
G37*
G36*
X7546187Y8642908D02*
G01*
X7541209Y8637879D01*
X7541209Y8613698D01*
X7579207Y8613698D01*
X7579207Y8580678D01*
X7541209Y8580678D01*
X7541209Y8557920D01*
X7546187Y8552891D01*
X7625181Y8552891D01*
X7630210Y8557920D01*
X7630210Y8637879D01*
X7625181Y8642908D01*
G37*
G36*
X5893358Y9430308D02*
G01*
X5888329Y9425279D01*
X5888329Y9402521D01*
X5925312Y9402521D01*
X5925312Y9369501D01*
X5888329Y9369501D01*
X5888329Y9345320D01*
X5893358Y9340291D01*
X5973318Y9340291D01*
X5978347Y9345320D01*
X5978347Y9425279D01*
X5973318Y9430308D01*
G37*
G36*
X5734354Y9430308D02*
G01*
X5729325Y9425279D01*
X5729325Y9345320D01*
X5734354Y9340291D01*
X5813348Y9340291D01*
X5818327Y9345320D01*
X5818327Y9369501D01*
X5780328Y9369501D01*
X5780328Y9402521D01*
X5818327Y9402521D01*
X5818327Y9425279D01*
X5813348Y9430308D01*
G37*
G36*
X5849518Y8642908D02*
G01*
X5844489Y8637879D01*
X5844489Y8557920D01*
X5849518Y8552891D01*
X5929477Y8552891D01*
X5934506Y8557920D01*
X5934506Y8580678D01*
X5897524Y8580678D01*
X5897524Y8613698D01*
X5934506Y8613698D01*
X5934506Y8637879D01*
X5929477Y8642908D01*
G37*
G36*
X6009487Y8642908D02*
G01*
X6004509Y8637879D01*
X6004509Y8613698D01*
X6042507Y8613698D01*
X6042507Y8580678D01*
X6004509Y8580678D01*
X6004509Y8557920D01*
X6009487Y8552891D01*
X6088481Y8552891D01*
X6093510Y8557920D01*
X6093510Y8637879D01*
X6088481Y8642908D01*
G37*
G36*
X5725820Y7528610D02*
G01*
X5720791Y7523581D01*
X5720791Y7443622D01*
X5725820Y7438593D01*
X5748578Y7438593D01*
X5748578Y7475626D01*
X5781598Y7475626D01*
X5781598Y7438593D01*
X5805779Y7438593D01*
X5810808Y7443622D01*
X5810808Y7523581D01*
X5805779Y7528610D01*
G37*
G36*
X5725820Y7368590D02*
G01*
X5720791Y7363612D01*
X5720791Y7284618D01*
X5725820Y7279589D01*
X5805779Y7279589D01*
X5810808Y7284618D01*
X5810808Y7363612D01*
X5805779Y7368590D01*
X5781598Y7368590D01*
X5781598Y7330592D01*
X5748578Y7330592D01*
X5748578Y7368590D01*
G37*
G36*
X6179718Y7080808D02*
G01*
X6174689Y7075779D01*
X6174689Y6995820D01*
X6179718Y6990791D01*
X6259677Y6990791D01*
X6264706Y6995820D01*
X6264706Y7018578D01*
X6227724Y7018578D01*
X6227724Y7051598D01*
X6264706Y7051598D01*
X6264706Y7075779D01*
X6259677Y7080808D01*
G37*
G36*
X6339687Y7080808D02*
G01*
X6334709Y7075779D01*
X6334709Y7051598D01*
X6372707Y7051598D01*
X6372707Y7018578D01*
X6334709Y7018578D01*
X6334709Y6995820D01*
X6339687Y6990791D01*
X6418681Y6990791D01*
X6423710Y6995820D01*
X6423710Y7075779D01*
X6418681Y7080808D01*
G37*
G36*
X6789318Y7080808D02*
G01*
X6784289Y7075779D01*
X6784289Y6995820D01*
X6789318Y6990791D01*
X6869277Y6990791D01*
X6874306Y6995820D01*
X6874306Y7018578D01*
X6837324Y7018578D01*
X6837324Y7051598D01*
X6874306Y7051598D01*
X6874306Y7075779D01*
X6869277Y7080808D01*
G37*
G36*
X6949287Y7080808D02*
G01*
X6944309Y7075779D01*
X6944309Y7051598D01*
X6982307Y7051598D01*
X6982307Y7018578D01*
X6944309Y7018578D01*
X6944309Y6995820D01*
X6949287Y6990791D01*
X7028281Y6990791D01*
X7033310Y6995820D01*
X7033310Y7075779D01*
X7028281Y7080808D01*
G37*
G36*
X7494422Y7715808D02*
G01*
X7489393Y7710779D01*
X7489393Y7688021D01*
X7526375Y7688021D01*
X7526375Y7655001D01*
X7489393Y7655001D01*
X7489393Y7630820D01*
X7494422Y7625791D01*
X7574381Y7625791D01*
X7579410Y7630820D01*
X7579410Y7710779D01*
X7574381Y7715808D01*
G37*
G36*
X7335418Y7715808D02*
G01*
X7330389Y7710779D01*
X7330389Y7630820D01*
X7335418Y7625791D01*
X7414412Y7625791D01*
X7419390Y7630820D01*
X7419390Y7655001D01*
X7381392Y7655001D01*
X7381392Y7688021D01*
X7419390Y7688021D01*
X7419390Y7710779D01*
X7414412Y7715808D01*
G37*
G36*
X6712254Y8642908D02*
G01*
X6707225Y8637879D01*
X6707225Y8557920D01*
X6712254Y8552891D01*
X6792214Y8552891D01*
X6797243Y8557920D01*
X6797243Y8580678D01*
X6760209Y8580678D01*
X6760209Y8613698D01*
X6797243Y8613698D01*
X6797243Y8637879D01*
X6792214Y8642908D01*
G37*
G36*
X6872224Y8642908D02*
G01*
X6867245Y8637879D01*
X6867245Y8613698D01*
X6905244Y8613698D01*
X6905244Y8580678D01*
X6867245Y8580678D01*
X6867245Y8557920D01*
X6872224Y8552891D01*
X6951218Y8552891D01*
X6956247Y8557920D01*
X6956247Y8637879D01*
X6951218Y8642908D01*
G37*
D10*
G01*
X3937000Y8089900D03*
G01*
X4191000Y8089900D03*
G01*
X4191000Y7835900D03*
G01*
X3937000Y7835900D03*
D11*
G01*
X4546600Y7162901D03*
G01*
X4292600Y7162901D03*
G01*
X4038600Y7162901D03*
G01*
X3784600Y7162901D03*
G01*
X4800600Y7162901D03*
G01*
X5054600Y7162901D03*
G01*
X5308600Y7162901D03*
G01*
X4546600Y8762898D03*
G01*
X3784600Y8762898D03*
G01*
X4038600Y8762898D03*
G01*
X4292600Y8762898D03*
G01*
X4800600Y8762898D03*
G01*
X5054600Y8762898D03*
G01*
X5308600Y8762898D03*
D10*
G01*
X3683000Y7835900D03*
G01*
X3683000Y8089900D03*
D12*
G01*
X6775195Y9409099D03*
G01*
X6585204Y9409099D03*
G01*
X6680200Y9209100D03*
D13*
G01*
X7656499Y7029704D03*
G01*
X7656499Y7219695D03*
G01*
X7456500Y7124700D03*
D12*
G01*
X6267195Y7705699D03*
G01*
X6077204Y7705699D03*
G01*
X6172200Y7505700D03*
D14*
G01*
X7436104Y9030411D03*
G01*
X7531100Y8800388D03*
G01*
X7626095Y9030385D03*
G01*
X6292595Y9219488D03*
G01*
X6197600Y9449511D03*
G01*
X6102604Y9219488D03*
G01*
X6166104Y9030411D03*
G01*
X6261100Y8800388D03*
G01*
X6356095Y9030385D03*
D13*
G01*
X5905500Y7390892D03*
G01*
X5905500Y7200900D03*
G01*
X6105499Y7295895D03*
D12*
G01*
X6477000Y7188200D03*
G01*
X6666991Y7188200D03*
G01*
X6571995Y7388199D03*
G01*
X6826504Y7189800D03*
G01*
X7016495Y7189800D03*
G01*
X6921500Y7389799D03*
G01*
X7537195Y7529499D03*
G01*
X7347204Y7529499D03*
G01*
X7442200Y7329500D03*
G01*
X6756400Y8851900D03*
G01*
X6946391Y8851900D03*
G01*
X6851395Y9051899D03*
M02*
