G04 Layer: TopSilkscreenLayer*
G04 EasyEDA v6.5.29, 2023-07-06 22:18:42*
G04 26de12d81895481dba0b46256d096437,4bfb672c99b74c95bcb02992393faf10,10*
G04 Gerber Generator version 0.2*
G04 Scale: 100 percent, Rotated: No, Reflected: No *
G04 Dimensions in millimeters *
G04 leading zeros omitted , absolute positions ,4 integer and 5 decimal *
%FSLAX45Y45*%
%MOMM*%

%ADD10C,0.2032*%
%ADD11C,0.1524*%
%ADD12C,0.2540*%
%ADD13C,0.1000*%
%ADD14C,0.2000*%
%ADD15C,0.6000*%
%ADD16C,0.0103*%

%LPD*%
D10*
X3609593Y9107678D02*
G01*
X3609593Y8959850D01*
X3600195Y8932163D01*
X3591052Y8923020D01*
X3572509Y8913876D01*
X3553968Y8913876D01*
X3535679Y8923020D01*
X3526281Y8932163D01*
X3517138Y8959850D01*
X3517138Y8978392D01*
X3670554Y9107678D02*
G01*
X3670554Y8913876D01*
X3670554Y8913876D02*
G01*
X3781297Y8913876D01*
X3980688Y9061450D02*
G01*
X3971543Y9079992D01*
X3953002Y9098534D01*
X3934713Y9107678D01*
X3897629Y9107678D01*
X3879088Y9098534D01*
X3860800Y9079992D01*
X3851402Y9061450D01*
X3842258Y9033763D01*
X3842258Y8987789D01*
X3851402Y8959850D01*
X3860800Y8941562D01*
X3879088Y8923020D01*
X3897629Y8913876D01*
X3934713Y8913876D01*
X3953002Y8923020D01*
X3971543Y8941562D01*
X3980688Y8959850D01*
X4134104Y9107678D02*
G01*
X4134104Y8959850D01*
X4124959Y8932163D01*
X4115561Y8923020D01*
X4097274Y8913876D01*
X4078731Y8913876D01*
X4060190Y8923020D01*
X4051045Y8932163D01*
X4041647Y8959850D01*
X4041647Y8978392D01*
X4195063Y9107678D02*
G01*
X4195063Y8913876D01*
X4195063Y8913876D02*
G01*
X4305808Y8913876D01*
X4505452Y9061450D02*
G01*
X4496308Y9079992D01*
X4477765Y9098534D01*
X4459224Y9107678D01*
X4422393Y9107678D01*
X4403852Y9098534D01*
X4385309Y9079992D01*
X4376165Y9061450D01*
X4366768Y9033763D01*
X4366768Y8987789D01*
X4376165Y8959850D01*
X4385309Y8941562D01*
X4403852Y8923020D01*
X4422393Y8913876D01*
X4459224Y8913876D01*
X4477765Y8923020D01*
X4496308Y8941562D01*
X4505452Y8959850D01*
X4658868Y9107678D02*
G01*
X4658868Y8959850D01*
X4649470Y8932163D01*
X4640325Y8923020D01*
X4621784Y8913876D01*
X4603241Y8913876D01*
X4584954Y8923020D01*
X4575556Y8932163D01*
X4566411Y8959850D01*
X4566411Y8978392D01*
X4719827Y9107678D02*
G01*
X4719827Y8913876D01*
X4719827Y8913876D02*
G01*
X4830572Y8913876D01*
X5029961Y9061450D02*
G01*
X5020818Y9079992D01*
X5002275Y9098534D01*
X4983988Y9107678D01*
X4946904Y9107678D01*
X4928361Y9098534D01*
X4910074Y9079992D01*
X4900675Y9061450D01*
X4891531Y9033763D01*
X4891531Y8987789D01*
X4900675Y8959850D01*
X4910074Y8941562D01*
X4928361Y8923020D01*
X4946904Y8913876D01*
X4983988Y8913876D01*
X5002275Y8923020D01*
X5020818Y8941562D01*
X5029961Y8959850D01*
X5183377Y9107678D02*
G01*
X5183377Y8959850D01*
X5174234Y8932163D01*
X5164836Y8923020D01*
X5146547Y8913876D01*
X5128006Y8913876D01*
X5109463Y8923020D01*
X5100320Y8932163D01*
X5090922Y8959850D01*
X5090922Y8978392D01*
X5244338Y9107678D02*
G01*
X5244338Y8913876D01*
X5244338Y8913876D02*
G01*
X5355081Y8913876D01*
X5554725Y9061450D02*
G01*
X5545327Y9079992D01*
X5527040Y9098534D01*
X5508497Y9107678D01*
X5471668Y9107678D01*
X5453125Y9098534D01*
X5434584Y9079992D01*
X5425440Y9061450D01*
X5416041Y9033763D01*
X5416041Y8987789D01*
X5425440Y8959850D01*
X5434584Y8941562D01*
X5453125Y8923020D01*
X5471668Y8913876D01*
X5508497Y8913876D01*
X5527040Y8923020D01*
X5545327Y8941562D01*
X5554725Y8959850D01*
D11*
X6627749Y9620554D02*
G01*
X6617334Y9615474D01*
X6606920Y9605060D01*
X6601586Y9594646D01*
X6596506Y9578898D01*
X6596506Y9552990D01*
X6601586Y9537496D01*
X6606920Y9527082D01*
X6617334Y9516668D01*
X6627749Y9511588D01*
X6648577Y9511588D01*
X6658736Y9516668D01*
X6669150Y9527082D01*
X6674484Y9537496D01*
X6679565Y9552990D01*
X6679565Y9578898D01*
X6674484Y9594646D01*
X6669150Y9605060D01*
X6658736Y9615474D01*
X6648577Y9620554D01*
X6627749Y9620554D01*
X6643243Y9532162D02*
G01*
X6674484Y9501174D01*
X6713854Y9599726D02*
G01*
X6724268Y9605060D01*
X6740016Y9620554D01*
X6740016Y9511588D01*
X7530033Y6949033D02*
G01*
X7519619Y6943953D01*
X7509205Y6933539D01*
X7503871Y6923125D01*
X7498791Y6907377D01*
X7498791Y6881469D01*
X7503871Y6865975D01*
X7509205Y6855561D01*
X7519619Y6845147D01*
X7530033Y6840067D01*
X7550861Y6840067D01*
X7561021Y6845147D01*
X7571435Y6855561D01*
X7576769Y6865975D01*
X7581849Y6881469D01*
X7581849Y6907377D01*
X7576769Y6923125D01*
X7571435Y6933539D01*
X7561021Y6943953D01*
X7550861Y6949033D01*
X7530033Y6949033D01*
X7545527Y6860641D02*
G01*
X7576769Y6829653D01*
X7689037Y6949033D02*
G01*
X7636967Y6840067D01*
X7616139Y6949033D02*
G01*
X7689037Y6949033D01*
X6375450Y7658633D02*
G01*
X6365036Y7653553D01*
X6354622Y7643139D01*
X6349288Y7632725D01*
X6344208Y7616977D01*
X6344208Y7591069D01*
X6349288Y7575575D01*
X6354622Y7565161D01*
X6365036Y7554747D01*
X6375450Y7549667D01*
X6396278Y7549667D01*
X6406438Y7554747D01*
X6416852Y7565161D01*
X6422186Y7575575D01*
X6427266Y7591069D01*
X6427266Y7616977D01*
X6422186Y7632725D01*
X6416852Y7643139D01*
X6406438Y7653553D01*
X6396278Y7658633D01*
X6375450Y7658633D01*
X6390944Y7570241D02*
G01*
X6422186Y7539253D01*
X6487718Y7658633D02*
G01*
X6471970Y7653553D01*
X6466890Y7643139D01*
X6466890Y7632725D01*
X6471970Y7622311D01*
X6482384Y7616977D01*
X6503212Y7611897D01*
X6518706Y7606817D01*
X6529120Y7596403D01*
X6534454Y7585989D01*
X6534454Y7570241D01*
X6529120Y7559827D01*
X6524040Y7554747D01*
X6508292Y7549667D01*
X6487718Y7549667D01*
X6471970Y7554747D01*
X6466890Y7559827D01*
X6461556Y7570241D01*
X6461556Y7585989D01*
X6466890Y7596403D01*
X6477304Y7606817D01*
X6492798Y7611897D01*
X6513626Y7616977D01*
X6524040Y7622311D01*
X6529120Y7632725D01*
X6529120Y7643139D01*
X6524040Y7653553D01*
X6508292Y7658633D01*
X6487718Y7658633D01*
X7738562Y8967124D02*
G01*
X7728148Y8962044D01*
X7717734Y8951630D01*
X7712400Y8941216D01*
X7707320Y8925468D01*
X7707320Y8899560D01*
X7712400Y8884066D01*
X7717734Y8873652D01*
X7728148Y8863238D01*
X7738562Y8858158D01*
X7759390Y8858158D01*
X7769550Y8863238D01*
X7779964Y8873652D01*
X7785298Y8884066D01*
X7790378Y8899560D01*
X7790378Y8925468D01*
X7785298Y8941216D01*
X7779964Y8951630D01*
X7769550Y8962044D01*
X7759390Y8967124D01*
X7738562Y8967124D01*
X7754056Y8878732D02*
G01*
X7785298Y8847744D01*
X7824668Y8946296D02*
G01*
X7835082Y8951630D01*
X7850830Y8967124D01*
X7850830Y8858158D01*
X7916108Y8967124D02*
G01*
X7900614Y8962044D01*
X7890200Y8946296D01*
X7885120Y8920388D01*
X7885120Y8904894D01*
X7890200Y8878732D01*
X7900614Y8863238D01*
X7916108Y8858158D01*
X7926522Y8858158D01*
X7942270Y8863238D01*
X7952430Y8878732D01*
X7957764Y8904894D01*
X7957764Y8920388D01*
X7952430Y8946296D01*
X7942270Y8962044D01*
X7926522Y8967124D01*
X7916108Y8967124D01*
X7992054Y8946296D02*
G01*
X8002468Y8951630D01*
X8017962Y8967124D01*
X8017962Y8858158D01*
X6056096Y9635540D02*
G01*
X6045682Y9630460D01*
X6035268Y9620046D01*
X6029934Y9609632D01*
X6024854Y9593884D01*
X6024854Y9567976D01*
X6029934Y9552482D01*
X6035268Y9542068D01*
X6045682Y9531654D01*
X6056096Y9526574D01*
X6076924Y9526574D01*
X6087084Y9531654D01*
X6097498Y9542068D01*
X6102832Y9552482D01*
X6107912Y9567976D01*
X6107912Y9593884D01*
X6102832Y9609632D01*
X6097498Y9620046D01*
X6087084Y9630460D01*
X6076924Y9635540D01*
X6056096Y9635540D01*
X6071590Y9547148D02*
G01*
X6102832Y9516160D01*
X6142202Y9614712D02*
G01*
X6152616Y9620046D01*
X6168364Y9635540D01*
X6168364Y9526574D01*
X6233642Y9635540D02*
G01*
X6218148Y9630460D01*
X6207734Y9614712D01*
X6202654Y9588804D01*
X6202654Y9573310D01*
X6207734Y9547148D01*
X6218148Y9531654D01*
X6233642Y9526574D01*
X6244056Y9526574D01*
X6259804Y9531654D01*
X6269964Y9547148D01*
X6275298Y9573310D01*
X6275298Y9588804D01*
X6269964Y9614712D01*
X6259804Y9630460D01*
X6244056Y9635540D01*
X6233642Y9635540D01*
X6314668Y9609632D02*
G01*
X6314668Y9614712D01*
X6320002Y9625126D01*
X6325082Y9630460D01*
X6335496Y9635540D01*
X6356324Y9635540D01*
X6366738Y9630460D01*
X6371818Y9625126D01*
X6377152Y9614712D01*
X6377152Y9604298D01*
X6371818Y9593884D01*
X6361404Y9578390D01*
X6309588Y9526574D01*
X6382232Y9526574D01*
X5759216Y8946499D02*
G01*
X5748802Y8941419D01*
X5738388Y8931005D01*
X5733054Y8920591D01*
X5727974Y8904843D01*
X5727974Y8878935D01*
X5733054Y8863441D01*
X5738388Y8853027D01*
X5748802Y8842613D01*
X5759216Y8837533D01*
X5780044Y8837533D01*
X5790204Y8842613D01*
X5800618Y8853027D01*
X5805952Y8863441D01*
X5811032Y8878935D01*
X5811032Y8904843D01*
X5805952Y8920591D01*
X5800618Y8931005D01*
X5790204Y8941419D01*
X5780044Y8946499D01*
X5759216Y8946499D01*
X5774710Y8858107D02*
G01*
X5805952Y8827119D01*
X5845322Y8925671D02*
G01*
X5855736Y8931005D01*
X5871484Y8946499D01*
X5871484Y8837533D01*
X5936762Y8946499D02*
G01*
X5921268Y8941419D01*
X5910854Y8925671D01*
X5905774Y8899763D01*
X5905774Y8884269D01*
X5910854Y8858107D01*
X5921268Y8842613D01*
X5936762Y8837533D01*
X5947176Y8837533D01*
X5962924Y8842613D01*
X5973084Y8858107D01*
X5978418Y8884269D01*
X5978418Y8899763D01*
X5973084Y8925671D01*
X5962924Y8941419D01*
X5947176Y8946499D01*
X5936762Y8946499D01*
X6023122Y8946499D02*
G01*
X6080272Y8946499D01*
X6049030Y8904843D01*
X6064524Y8904843D01*
X6074938Y8899763D01*
X6080272Y8894683D01*
X6085352Y8878935D01*
X6085352Y8868521D01*
X6080272Y8853027D01*
X6069858Y8842613D01*
X6054364Y8837533D01*
X6038616Y8837533D01*
X6023122Y8842613D01*
X6017788Y8847693D01*
X6012708Y8858107D01*
X6853148Y9623526D02*
G01*
X6853148Y9514560D01*
X6853148Y9623526D02*
G01*
X6899884Y9623526D01*
X6915378Y9618446D01*
X6920712Y9613112D01*
X6925792Y9602698D01*
X6925792Y9592284D01*
X6920712Y9581870D01*
X6915378Y9576790D01*
X6899884Y9571710D01*
X6853148Y9571710D01*
X6889470Y9571710D02*
G01*
X6925792Y9514560D01*
X6960082Y9602698D02*
G01*
X6970496Y9608032D01*
X6986244Y9623526D01*
X6986244Y9514560D01*
X7893354Y7096760D02*
G01*
X7893354Y6987794D01*
X7893354Y7096760D02*
G01*
X7940090Y7096760D01*
X7955584Y7091679D01*
X7960918Y7086345D01*
X7965998Y7075931D01*
X7965998Y7065518D01*
X7960918Y7055104D01*
X7955584Y7050023D01*
X7940090Y7044944D01*
X7893354Y7044944D01*
X7929676Y7044944D02*
G01*
X7965998Y6987794D01*
X8073186Y7096760D02*
G01*
X8021116Y6987794D01*
X8000288Y7096760D02*
G01*
X8073186Y7096760D01*
X6147663Y8060842D02*
G01*
X6147663Y7951876D01*
X6147663Y8060842D02*
G01*
X6194399Y8060842D01*
X6209893Y8055762D01*
X6215227Y8050428D01*
X6220307Y8040014D01*
X6220307Y8029600D01*
X6215227Y8019186D01*
X6209893Y8014106D01*
X6194399Y8009026D01*
X6147663Y8009026D01*
X6183985Y8009026D02*
G01*
X6220307Y7951876D01*
X6280759Y8060842D02*
G01*
X6265011Y8055762D01*
X6259931Y8045348D01*
X6259931Y8034934D01*
X6265011Y8024520D01*
X6275425Y8019186D01*
X6296253Y8014106D01*
X6311747Y8009026D01*
X6322161Y7998612D01*
X6327495Y7988198D01*
X6327495Y7972450D01*
X6322161Y7962036D01*
X6317081Y7956956D01*
X6301333Y7951876D01*
X6280759Y7951876D01*
X6265011Y7956956D01*
X6259931Y7962036D01*
X6254597Y7972450D01*
X6254597Y7988198D01*
X6259931Y7998612D01*
X6270345Y8009026D01*
X6285839Y8014106D01*
X6306667Y8019186D01*
X6317081Y8024520D01*
X6322161Y8034934D01*
X6322161Y8045348D01*
X6317081Y8055762D01*
X6301333Y8060842D01*
X6280759Y8060842D01*
X7200569Y9625584D02*
G01*
X7200569Y9516618D01*
X7200569Y9625584D02*
G01*
X7247305Y9625584D01*
X7262799Y9620504D01*
X7268133Y9615170D01*
X7273213Y9604755D01*
X7273213Y9594342D01*
X7268133Y9583928D01*
X7262799Y9578847D01*
X7247305Y9573768D01*
X7200569Y9573768D01*
X7236891Y9573768D02*
G01*
X7273213Y9516618D01*
X7307503Y9604755D02*
G01*
X7317917Y9610089D01*
X7333665Y9625584D01*
X7333665Y9516618D01*
X7367955Y9604755D02*
G01*
X7378369Y9610089D01*
X7393863Y9625584D01*
X7393863Y9516618D01*
X7892491Y7539024D02*
G01*
X7892491Y7430058D01*
X7892491Y7539024D02*
G01*
X7939227Y7539024D01*
X7954721Y7533944D01*
X7960055Y7528610D01*
X7965135Y7518196D01*
X7965135Y7507782D01*
X7960055Y7497368D01*
X7954721Y7492288D01*
X7939227Y7487208D01*
X7892491Y7487208D01*
X7928813Y7487208D02*
G01*
X7965135Y7430058D01*
X7999425Y7518196D02*
G01*
X8009839Y7523530D01*
X8025587Y7539024D01*
X8025587Y7430058D01*
X8132521Y7539024D02*
G01*
X8080451Y7430058D01*
X8059877Y7539024D02*
G01*
X8132521Y7539024D01*
X5765800Y8059724D02*
G01*
X5765800Y7950758D01*
X5765800Y8059724D02*
G01*
X5812536Y8059724D01*
X5828029Y8054644D01*
X5833363Y8049310D01*
X5838443Y8038896D01*
X5838443Y8028482D01*
X5833363Y8018068D01*
X5828029Y8012988D01*
X5812536Y8007908D01*
X5765800Y8007908D01*
X5802122Y8007908D02*
G01*
X5838443Y7950758D01*
X5872734Y8038896D02*
G01*
X5883147Y8044230D01*
X5898895Y8059724D01*
X5898895Y7950758D01*
X5959093Y8059724D02*
G01*
X5943600Y8054644D01*
X5938265Y8044230D01*
X5938265Y8033816D01*
X5943600Y8023402D01*
X5953759Y8018068D01*
X5974588Y8012988D01*
X5990336Y8007908D01*
X6000750Y7997494D01*
X6005829Y7987080D01*
X6005829Y7971332D01*
X6000750Y7960918D01*
X5995415Y7955838D01*
X5979922Y7950758D01*
X5959093Y7950758D01*
X5943600Y7955838D01*
X5938265Y7960918D01*
X5933186Y7971332D01*
X5933186Y7987080D01*
X5938265Y7997494D01*
X5948679Y8007908D01*
X5964174Y8012988D01*
X5985002Y8018068D01*
X5995415Y8023402D01*
X6000750Y8033816D01*
X6000750Y8044230D01*
X5995415Y8054644D01*
X5979922Y8059724D01*
X5959093Y8059724D01*
X7676921Y8498433D02*
G01*
X7676921Y8389467D01*
X7676921Y8498433D02*
G01*
X7723657Y8498433D01*
X7739151Y8493353D01*
X7744485Y8488019D01*
X7749565Y8477605D01*
X7749565Y8467191D01*
X7744485Y8456777D01*
X7739151Y8451697D01*
X7723657Y8446617D01*
X7676921Y8446617D01*
X7713243Y8446617D02*
G01*
X7749565Y8389467D01*
X7783855Y8477605D02*
G01*
X7794269Y8482939D01*
X7810017Y8498433D01*
X7810017Y8389467D01*
X7875295Y8498433D02*
G01*
X7859801Y8493353D01*
X7849387Y8477605D01*
X7844307Y8451697D01*
X7844307Y8436203D01*
X7849387Y8410041D01*
X7859801Y8394547D01*
X7875295Y8389467D01*
X7885709Y8389467D01*
X7901457Y8394547D01*
X7911871Y8410041D01*
X7916951Y8436203D01*
X7916951Y8451697D01*
X7911871Y8477605D01*
X7901457Y8493353D01*
X7885709Y8498433D01*
X7875295Y8498433D01*
X7951241Y8477605D02*
G01*
X7961655Y8482939D01*
X7977149Y8498433D01*
X7977149Y8389467D01*
X5333136Y9265437D02*
G01*
X5333136Y9156471D01*
X5333136Y9265437D02*
G01*
X5379872Y9265437D01*
X5395366Y9260357D01*
X5400700Y9255023D01*
X5405780Y9244609D01*
X5405780Y9234195D01*
X5400700Y9223781D01*
X5395366Y9218701D01*
X5379872Y9213621D01*
X5333136Y9213621D01*
X5369458Y9213621D02*
G01*
X5405780Y9156471D01*
X5440070Y9244609D02*
G01*
X5450484Y9249943D01*
X5466232Y9265437D01*
X5466232Y9156471D01*
X5531510Y9265437D02*
G01*
X5516016Y9260357D01*
X5505602Y9244609D01*
X5500522Y9218701D01*
X5500522Y9203207D01*
X5505602Y9177045D01*
X5516016Y9161551D01*
X5531510Y9156471D01*
X5541924Y9156471D01*
X5557672Y9161551D01*
X5568086Y9177045D01*
X5573166Y9203207D01*
X5573166Y9218701D01*
X5568086Y9244609D01*
X5557672Y9260357D01*
X5541924Y9265437D01*
X5531510Y9265437D01*
X5612536Y9239529D02*
G01*
X5612536Y9244609D01*
X5617870Y9255023D01*
X5622950Y9260357D01*
X5633364Y9265437D01*
X5654192Y9265437D01*
X5664606Y9260357D01*
X5669686Y9255023D01*
X5675020Y9244609D01*
X5675020Y9234195D01*
X5669686Y9223781D01*
X5659526Y9208287D01*
X5607456Y9156471D01*
X5680100Y9156471D01*
X6143015Y8512251D02*
G01*
X6143015Y8403285D01*
X6143015Y8512251D02*
G01*
X6189751Y8512251D01*
X6205245Y8507171D01*
X6210579Y8501837D01*
X6215659Y8491423D01*
X6215659Y8481009D01*
X6210579Y8470595D01*
X6205245Y8465515D01*
X6189751Y8460435D01*
X6143015Y8460435D01*
X6179337Y8460435D02*
G01*
X6215659Y8403285D01*
X6249949Y8491423D02*
G01*
X6260363Y8496757D01*
X6276111Y8512251D01*
X6276111Y8403285D01*
X6341389Y8512251D02*
G01*
X6325895Y8507171D01*
X6315481Y8491423D01*
X6310401Y8465515D01*
X6310401Y8450021D01*
X6315481Y8423859D01*
X6325895Y8408365D01*
X6341389Y8403285D01*
X6351803Y8403285D01*
X6367551Y8408365D01*
X6377965Y8423859D01*
X6383045Y8450021D01*
X6383045Y8465515D01*
X6377965Y8491423D01*
X6367551Y8507171D01*
X6351803Y8512251D01*
X6341389Y8512251D01*
X6427749Y8512251D02*
G01*
X6484899Y8512251D01*
X6453657Y8470595D01*
X6469405Y8470595D01*
X6479565Y8465515D01*
X6484899Y8460435D01*
X6489979Y8444687D01*
X6489979Y8434273D01*
X6484899Y8418779D01*
X6474485Y8408365D01*
X6458991Y8403285D01*
X6443243Y8403285D01*
X6427749Y8408365D01*
X6422415Y8413445D01*
X6417335Y8423859D01*
X7371181Y8495690D02*
G01*
X7371181Y8386724D01*
X7371181Y8495690D02*
G01*
X7417917Y8495690D01*
X7433411Y8490610D01*
X7438745Y8485276D01*
X7443825Y8474862D01*
X7443825Y8464448D01*
X7438745Y8454034D01*
X7433411Y8448954D01*
X7417917Y8443874D01*
X7371181Y8443874D01*
X7407503Y8443874D02*
G01*
X7443825Y8386724D01*
X7478115Y8474862D02*
G01*
X7488529Y8480196D01*
X7504277Y8495690D01*
X7504277Y8386724D01*
X7538567Y8474862D02*
G01*
X7548981Y8480196D01*
X7564475Y8495690D01*
X7564475Y8386724D01*
X7598765Y8474862D02*
G01*
X7609179Y8480196D01*
X7624673Y8495690D01*
X7624673Y8386724D01*
X5359400Y9457512D02*
G01*
X5359400Y9348546D01*
X5359400Y9457512D02*
G01*
X5406136Y9457512D01*
X5421629Y9452432D01*
X5426963Y9447098D01*
X5432043Y9436684D01*
X5432043Y9426270D01*
X5426963Y9415856D01*
X5421629Y9410776D01*
X5406136Y9405696D01*
X5359400Y9405696D01*
X5395722Y9405696D02*
G01*
X5432043Y9348546D01*
X5466334Y9436684D02*
G01*
X5476747Y9442018D01*
X5492495Y9457512D01*
X5492495Y9348546D01*
X5526786Y9436684D02*
G01*
X5537200Y9442018D01*
X5552693Y9457512D01*
X5552693Y9348546D01*
X5592063Y9431604D02*
G01*
X5592063Y9436684D01*
X5597397Y9447098D01*
X5602477Y9452432D01*
X5612891Y9457512D01*
X5633720Y9457512D01*
X5644134Y9452432D01*
X5649213Y9447098D01*
X5654547Y9436684D01*
X5654547Y9426270D01*
X5649213Y9415856D01*
X5638800Y9400362D01*
X5586984Y9348546D01*
X5659627Y9348546D01*
X5770143Y8505139D02*
G01*
X5770143Y8396173D01*
X5770143Y8505139D02*
G01*
X5816879Y8505139D01*
X5832373Y8500059D01*
X5837707Y8494725D01*
X5842787Y8484311D01*
X5842787Y8473897D01*
X5837707Y8463483D01*
X5832373Y8458403D01*
X5816879Y8453323D01*
X5770143Y8453323D01*
X5806465Y8453323D02*
G01*
X5842787Y8396173D01*
X5877077Y8484311D02*
G01*
X5887491Y8489645D01*
X5903239Y8505139D01*
X5903239Y8396173D01*
X5937529Y8484311D02*
G01*
X5947943Y8489645D01*
X5963437Y8505139D01*
X5963437Y8396173D01*
X6008141Y8505139D02*
G01*
X6065291Y8505139D01*
X6034049Y8463483D01*
X6049543Y8463483D01*
X6059957Y8458403D01*
X6065291Y8453323D01*
X6070371Y8437575D01*
X6070371Y8427161D01*
X6065291Y8411667D01*
X6054877Y8401253D01*
X6039383Y8396173D01*
X6023635Y8396173D01*
X6008141Y8401253D01*
X6002807Y8406333D01*
X5997727Y8416747D01*
X3706875Y7494015D02*
G01*
X3706875Y7416037D01*
X3711956Y7400544D01*
X3722370Y7390129D01*
X3738118Y7385050D01*
X3748531Y7385050D01*
X3764025Y7390129D01*
X3774440Y7400544D01*
X3779520Y7416037D01*
X3779520Y7494015D01*
X3813809Y7473187D02*
G01*
X3824224Y7478521D01*
X3839972Y7494015D01*
X3839972Y7385050D01*
X5911215Y7112939D02*
G01*
X5900800Y7107859D01*
X5890386Y7097445D01*
X5885306Y7087031D01*
X5880227Y7071537D01*
X5880227Y7045375D01*
X5885306Y7029881D01*
X5890386Y7019467D01*
X5900800Y7009053D01*
X5911215Y7003973D01*
X5932043Y7003973D01*
X5942456Y7009053D01*
X5952870Y7019467D01*
X5957950Y7029881D01*
X5963284Y7045375D01*
X5963284Y7071537D01*
X5957950Y7087031D01*
X5952870Y7097445D01*
X5942456Y7107859D01*
X5932043Y7112939D01*
X5911215Y7112939D01*
X5926963Y7024801D02*
G01*
X5957950Y6993559D01*
X6002654Y7087031D02*
G01*
X6002654Y7092365D01*
X6007988Y7102525D01*
X6013068Y7107859D01*
X6023483Y7112939D01*
X6044311Y7112939D01*
X6054725Y7107859D01*
X6059804Y7102525D01*
X6065138Y7092365D01*
X6065138Y7081951D01*
X6059804Y7071537D01*
X6049390Y7055789D01*
X5997575Y7003973D01*
X6070218Y7003973D01*
X6234938Y7341285D02*
G01*
X6224524Y7335951D01*
X6214109Y7325537D01*
X6208775Y7315377D01*
X6203695Y7299629D01*
X6203695Y7273721D01*
X6208775Y7258227D01*
X6214109Y7247813D01*
X6224524Y7237399D01*
X6234938Y7232065D01*
X6255765Y7232065D01*
X6265925Y7237399D01*
X6276340Y7247813D01*
X6281674Y7258227D01*
X6286754Y7273721D01*
X6286754Y7299629D01*
X6281674Y7315377D01*
X6276340Y7325537D01*
X6265925Y7335951D01*
X6255765Y7341285D01*
X6234938Y7341285D01*
X6250431Y7252893D02*
G01*
X6281674Y7221651D01*
X6331458Y7341285D02*
G01*
X6388608Y7341285D01*
X6357365Y7299629D01*
X6373113Y7299629D01*
X6383527Y7294549D01*
X6388608Y7289215D01*
X6393941Y7273721D01*
X6393941Y7263307D01*
X6388608Y7247813D01*
X6378193Y7237399D01*
X6362700Y7232065D01*
X6347206Y7232065D01*
X6331458Y7237399D01*
X6326377Y7242479D01*
X6321043Y7252893D01*
X7135622Y7349845D02*
G01*
X7125208Y7344765D01*
X7114793Y7334351D01*
X7109713Y7323937D01*
X7104634Y7308443D01*
X7104634Y7282281D01*
X7109713Y7266787D01*
X7114793Y7256373D01*
X7125208Y7245959D01*
X7135622Y7240879D01*
X7156450Y7240879D01*
X7166863Y7245959D01*
X7177277Y7256373D01*
X7182358Y7266787D01*
X7187691Y7282281D01*
X7187691Y7308443D01*
X7182358Y7323937D01*
X7177277Y7334351D01*
X7166863Y7344765D01*
X7156450Y7349845D01*
X7135622Y7349845D01*
X7151370Y7261707D02*
G01*
X7182358Y7230465D01*
X7273797Y7349845D02*
G01*
X7221981Y7277201D01*
X7299959Y7277201D01*
X7273797Y7349845D02*
G01*
X7273797Y7240879D01*
X5493207Y7534147D02*
G01*
X5493207Y7425181D01*
X5493207Y7534147D02*
G01*
X5539943Y7534147D01*
X5555691Y7529068D01*
X5560771Y7523734D01*
X5566105Y7513320D01*
X5566105Y7502905D01*
X5560771Y7492492D01*
X5555691Y7487412D01*
X5539943Y7482331D01*
X5493207Y7482331D01*
X5529783Y7482331D02*
G01*
X5566105Y7425181D01*
X5605475Y7508239D02*
G01*
X5605475Y7513320D01*
X5610809Y7523734D01*
X5615889Y7529068D01*
X5626303Y7534147D01*
X5647131Y7534147D01*
X5657545Y7529068D01*
X5662625Y7523734D01*
X5667959Y7513320D01*
X5667959Y7502905D01*
X5662625Y7492492D01*
X5652211Y7476997D01*
X5600395Y7425181D01*
X5673039Y7425181D01*
X6172961Y6943242D02*
G01*
X6172961Y6834022D01*
X6172961Y6943242D02*
G01*
X6219697Y6943242D01*
X6235191Y6938162D01*
X6240525Y6932828D01*
X6245606Y6922414D01*
X6245606Y6912000D01*
X6240525Y6901586D01*
X6235191Y6896506D01*
X6219697Y6891172D01*
X6172961Y6891172D01*
X6209284Y6891172D02*
G01*
X6245606Y6834022D01*
X6290309Y6943242D02*
G01*
X6347459Y6943242D01*
X6316218Y6901586D01*
X6331965Y6901586D01*
X6342379Y6896506D01*
X6347459Y6891172D01*
X6352793Y6875678D01*
X6352793Y6865264D01*
X6347459Y6849770D01*
X6337045Y6839356D01*
X6321552Y6834022D01*
X6306058Y6834022D01*
X6290309Y6839356D01*
X6285229Y6844436D01*
X6279895Y6854850D01*
X6781038Y6949033D02*
G01*
X6781038Y6840067D01*
X6781038Y6949033D02*
G01*
X6827774Y6949033D01*
X6843268Y6943953D01*
X6848602Y6938619D01*
X6853681Y6928205D01*
X6853681Y6917791D01*
X6848602Y6907377D01*
X6843268Y6902297D01*
X6827774Y6897217D01*
X6781038Y6897217D01*
X6817359Y6897217D02*
G01*
X6853681Y6840067D01*
X6940041Y6949033D02*
G01*
X6887972Y6876389D01*
X6965950Y6876389D01*
X6940041Y6949033D02*
G01*
X6940041Y6840067D01*
X5436717Y7094880D02*
G01*
X5436717Y6985914D01*
X5436717Y7094880D02*
G01*
X5483453Y7094880D01*
X5498947Y7089800D01*
X5504281Y7084466D01*
X5509361Y7074052D01*
X5509361Y7063638D01*
X5504281Y7053224D01*
X5498947Y7048144D01*
X5483453Y7043064D01*
X5436717Y7043064D01*
X5473039Y7043064D02*
G01*
X5509361Y6985914D01*
X5543651Y7074052D02*
G01*
X5554065Y7079386D01*
X5569813Y7094880D01*
X5569813Y6985914D01*
X5609183Y7068972D02*
G01*
X5609183Y7074052D01*
X5614517Y7084466D01*
X5619597Y7089800D01*
X5630011Y7094880D01*
X5650839Y7094880D01*
X5661253Y7089800D01*
X5666333Y7084466D01*
X5671667Y7074052D01*
X5671667Y7063638D01*
X5666333Y7053224D01*
X5655919Y7037730D01*
X5604103Y6985914D01*
X5676747Y6985914D01*
X6464096Y6949084D02*
G01*
X6464096Y6839864D01*
X6464096Y6949084D02*
G01*
X6510832Y6949084D01*
X6526580Y6944004D01*
X6531660Y6938670D01*
X6536994Y6928256D01*
X6536994Y6917842D01*
X6531660Y6907428D01*
X6526580Y6902348D01*
X6510832Y6897014D01*
X6464096Y6897014D01*
X6500672Y6897014D02*
G01*
X6536994Y6839864D01*
X6571284Y6928256D02*
G01*
X6581698Y6933590D01*
X6597192Y6949084D01*
X6597192Y6839864D01*
X6641896Y6949084D02*
G01*
X6699046Y6949084D01*
X6667804Y6907428D01*
X6683552Y6907428D01*
X6693712Y6902348D01*
X6699046Y6897014D01*
X6704126Y6881520D01*
X6704126Y6871106D01*
X6699046Y6855612D01*
X6688632Y6845198D01*
X6673138Y6839864D01*
X6657390Y6839864D01*
X6641896Y6845198D01*
X6636562Y6850278D01*
X6631482Y6860692D01*
X7073138Y6943242D02*
G01*
X7073138Y6834276D01*
X7073138Y6943242D02*
G01*
X7119874Y6943242D01*
X7135368Y6938162D01*
X7140702Y6932828D01*
X7145781Y6922414D01*
X7145781Y6912000D01*
X7140702Y6901586D01*
X7135368Y6896506D01*
X7119874Y6891426D01*
X7073138Y6891426D01*
X7109459Y6891426D02*
G01*
X7145781Y6834276D01*
X7180072Y6922414D02*
G01*
X7190486Y6927748D01*
X7206234Y6943242D01*
X7206234Y6834276D01*
X7292340Y6943242D02*
G01*
X7240524Y6870598D01*
X7318247Y6870598D01*
X7292340Y6943242D02*
G01*
X7292340Y6834276D01*
X7112508Y7482179D02*
G01*
X7102093Y7477099D01*
X7091679Y7466685D01*
X7086600Y7456271D01*
X7081520Y7440777D01*
X7081520Y7414615D01*
X7086600Y7399121D01*
X7091679Y7388707D01*
X7102093Y7378293D01*
X7112508Y7373213D01*
X7133336Y7373213D01*
X7143750Y7378293D01*
X7154163Y7388707D01*
X7159243Y7399121D01*
X7164577Y7414615D01*
X7164577Y7440777D01*
X7159243Y7456271D01*
X7154163Y7466685D01*
X7143750Y7477099D01*
X7133336Y7482179D01*
X7112508Y7482179D01*
X7128256Y7394041D02*
G01*
X7159243Y7362799D01*
X7261097Y7482179D02*
G01*
X7209281Y7482179D01*
X7203947Y7435443D01*
X7209281Y7440777D01*
X7224775Y7445857D01*
X7240270Y7445857D01*
X7256018Y7440777D01*
X7266431Y7430363D01*
X7271511Y7414615D01*
X7271511Y7404201D01*
X7266431Y7388707D01*
X7256018Y7378293D01*
X7240270Y7373213D01*
X7224775Y7373213D01*
X7209281Y7378293D01*
X7203947Y7383627D01*
X7198868Y7394041D01*
X7065518Y8994622D02*
G01*
X7055104Y8989542D01*
X7044690Y8979128D01*
X7039609Y8968714D01*
X7034529Y8952966D01*
X7034529Y8927058D01*
X7039609Y8911564D01*
X7044690Y8901150D01*
X7055104Y8890736D01*
X7065518Y8885402D01*
X7086345Y8885402D01*
X7096759Y8890736D01*
X7107174Y8901150D01*
X7112254Y8911564D01*
X7117588Y8927058D01*
X7117588Y8952966D01*
X7112254Y8968714D01*
X7107174Y8979128D01*
X7096759Y8989542D01*
X7086345Y8994622D01*
X7065518Y8994622D01*
X7081265Y8906230D02*
G01*
X7112254Y8875242D01*
X7214108Y8979128D02*
G01*
X7209027Y8989542D01*
X7193279Y8994622D01*
X7183120Y8994622D01*
X7167372Y8989542D01*
X7156958Y8973794D01*
X7151877Y8947886D01*
X7151877Y8921978D01*
X7156958Y8901150D01*
X7167372Y8890736D01*
X7183120Y8885402D01*
X7188200Y8885402D01*
X7203693Y8890736D01*
X7214108Y8901150D01*
X7219441Y8916644D01*
X7219441Y8921978D01*
X7214108Y8937472D01*
X7203693Y8947886D01*
X7188200Y8952966D01*
X7183120Y8952966D01*
X7167372Y8947886D01*
X7156958Y8937472D01*
X7151877Y8921978D01*
X7415784Y7870291D02*
G01*
X7415784Y7761325D01*
X7415784Y7870291D02*
G01*
X7462520Y7870291D01*
X7478268Y7865211D01*
X7483347Y7859877D01*
X7488681Y7849463D01*
X7488681Y7839303D01*
X7483347Y7828889D01*
X7478268Y7823555D01*
X7462520Y7818475D01*
X7415784Y7818475D01*
X7452106Y7818475D02*
G01*
X7488681Y7761325D01*
X7585202Y7870291D02*
G01*
X7533131Y7870291D01*
X7528052Y7823555D01*
X7533131Y7828889D01*
X7548879Y7833969D01*
X7564374Y7833969D01*
X7580122Y7828889D01*
X7590281Y7818475D01*
X7595615Y7802727D01*
X7595615Y7792313D01*
X7590281Y7776819D01*
X7580122Y7766405D01*
X7564374Y7761325D01*
X7548879Y7761325D01*
X7533131Y7766405D01*
X7528052Y7771739D01*
X7522972Y7782153D01*
X6693052Y8510371D02*
G01*
X6693052Y8401405D01*
X6693052Y8510371D02*
G01*
X6739788Y8510371D01*
X6755282Y8505291D01*
X6760616Y8499957D01*
X6765696Y8489797D01*
X6765696Y8479383D01*
X6760616Y8468969D01*
X6755282Y8463635D01*
X6739788Y8458555D01*
X6693052Y8458555D01*
X6729374Y8458555D02*
G01*
X6765696Y8401405D01*
X6862470Y8494877D02*
G01*
X6857136Y8505291D01*
X6841642Y8510371D01*
X6831228Y8510371D01*
X6815734Y8505291D01*
X6805320Y8489797D01*
X6799986Y8463635D01*
X6799986Y8437727D01*
X6805320Y8416899D01*
X6815734Y8406485D01*
X6831228Y8401405D01*
X6836308Y8401405D01*
X6852056Y8406485D01*
X6862470Y8416899D01*
X6867550Y8432647D01*
X6867550Y8437727D01*
X6862470Y8453221D01*
X6852056Y8463635D01*
X6836308Y8468969D01*
X6831228Y8468969D01*
X6815734Y8463635D01*
X6805320Y8453221D01*
X6799986Y8437727D01*
X7035038Y7876082D02*
G01*
X7035038Y7767116D01*
X7035038Y7876082D02*
G01*
X7081774Y7876082D01*
X7097268Y7871002D01*
X7102602Y7865668D01*
X7107681Y7855254D01*
X7107681Y7845094D01*
X7102602Y7834680D01*
X7097268Y7829346D01*
X7081774Y7824266D01*
X7035038Y7824266D01*
X7071359Y7824266D02*
G01*
X7107681Y7767116D01*
X7141972Y7855254D02*
G01*
X7152386Y7860588D01*
X7167879Y7876082D01*
X7167879Y7767116D01*
X7264654Y7876082D02*
G01*
X7212584Y7876082D01*
X7207504Y7829346D01*
X7212584Y7834680D01*
X7228331Y7839760D01*
X7243825Y7839760D01*
X7259320Y7834680D01*
X7269734Y7824266D01*
X7275068Y7808518D01*
X7275068Y7798104D01*
X7269734Y7782610D01*
X7259320Y7772196D01*
X7243825Y7767116D01*
X7228331Y7767116D01*
X7212584Y7772196D01*
X7207504Y7777530D01*
X7202170Y7787944D01*
X7022998Y8510574D02*
G01*
X7022998Y8401354D01*
X7022998Y8510574D02*
G01*
X7069734Y8510574D01*
X7085228Y8505240D01*
X7090562Y8500160D01*
X7095642Y8489746D01*
X7095642Y8479332D01*
X7090562Y8468918D01*
X7085228Y8463584D01*
X7069734Y8458504D01*
X7022998Y8458504D01*
X7059320Y8458504D02*
G01*
X7095642Y8401354D01*
X7129932Y8489746D02*
G01*
X7140346Y8494826D01*
X7156094Y8510574D01*
X7156094Y8401354D01*
X7252614Y8494826D02*
G01*
X7247534Y8505240D01*
X7231786Y8510574D01*
X7221372Y8510574D01*
X7205878Y8505240D01*
X7195464Y8489746D01*
X7190384Y8463584D01*
X7190384Y8437676D01*
X7195464Y8416848D01*
X7205878Y8406434D01*
X7221372Y8401354D01*
X7226706Y8401354D01*
X7242200Y8406434D01*
X7252614Y8416848D01*
X7257948Y8432596D01*
X7257948Y8437676D01*
X7252614Y8453424D01*
X7242200Y8463584D01*
X7226706Y8468918D01*
X7221372Y8468918D01*
X7205878Y8463584D01*
X7195464Y8453424D01*
X7190384Y8437676D01*
X6527579Y9381721D02*
G01*
X6527579Y9236478D01*
X6630741Y9236478D01*
X6832820Y9381721D02*
G01*
X6832820Y9236478D01*
X6729658Y9236478D01*
X6634660Y9381721D02*
G01*
X6725739Y9381721D01*
X7629121Y7277320D02*
G01*
X7483878Y7277320D01*
X7483878Y7174158D01*
X7629121Y6972079D02*
G01*
X7483878Y6972079D01*
X7483878Y7075241D01*
X7629121Y7170239D02*
G01*
X7629121Y7079160D01*
X6019579Y7678320D02*
G01*
X6019579Y7533078D01*
X6122741Y7533078D01*
X6324820Y7678320D02*
G01*
X6324820Y7533078D01*
X6221658Y7533078D01*
X6126660Y7678320D02*
G01*
X6217739Y7678320D01*
D12*
X7467500Y8845400D02*
G01*
X7381100Y8845400D01*
X7381100Y8845400D02*
G01*
X7381100Y8945402D01*
X7562496Y8985399D02*
G01*
X7499703Y8985399D01*
X7681099Y8845400D02*
G01*
X7594699Y8845400D01*
X7681099Y8845400D02*
G01*
X7681099Y8945402D01*
X6261199Y9404499D02*
G01*
X6347599Y9404499D01*
X6347599Y9404499D02*
G01*
X6347599Y9304497D01*
X6166203Y9264500D02*
G01*
X6228996Y9264500D01*
X6047600Y9404499D02*
G01*
X6134000Y9404499D01*
X6047600Y9404499D02*
G01*
X6047600Y9304497D01*
X6197500Y8845400D02*
G01*
X6111100Y8845400D01*
X6111100Y8845400D02*
G01*
X6111100Y8945402D01*
X6292496Y8985399D02*
G01*
X6229703Y8985399D01*
X6411099Y8845400D02*
G01*
X6324699Y8845400D01*
X6411099Y8845400D02*
G01*
X6411099Y8945402D01*
D11*
X6943242Y9489460D02*
G01*
X6847354Y9489460D01*
X6847354Y9357339D01*
X6943242Y9357339D01*
X7028484Y9489460D02*
G01*
X7124372Y9489460D01*
X7124372Y9357339D01*
X7028484Y9357339D01*
X7731739Y7069378D02*
G01*
X7731739Y6973491D01*
X7863860Y6973491D01*
X7863860Y7069378D01*
X7731739Y7154621D02*
G01*
X7731739Y7250508D01*
X7863860Y7250508D01*
X7863860Y7154621D01*
X6228384Y7795239D02*
G01*
X6324272Y7795239D01*
X6324272Y7927360D01*
X6228384Y7927360D01*
X6143142Y7795239D02*
G01*
X6047254Y7795239D01*
X6047254Y7927360D01*
X6143142Y7927360D01*
X7233615Y9489460D02*
G01*
X7137727Y9489460D01*
X7137727Y9357339D01*
X7233615Y9357339D01*
X7318857Y9489460D02*
G01*
X7414745Y9489460D01*
X7414745Y9357339D01*
X7318857Y9357339D01*
X7731739Y7361478D02*
G01*
X7731739Y7265591D01*
X7863860Y7265591D01*
X7863860Y7361478D01*
X7731739Y7446721D02*
G01*
X7731739Y7542608D01*
X7863860Y7542608D01*
X7863860Y7446721D01*
X5935421Y7795239D02*
G01*
X6031308Y7795239D01*
X6031308Y7927360D01*
X5935421Y7927360D01*
X5850178Y7795239D02*
G01*
X5754291Y7795239D01*
X5754291Y7927360D01*
X5850178Y7927360D01*
X7767878Y8663960D02*
G01*
X7671991Y8663960D01*
X7671991Y8531839D01*
X7767878Y8531839D01*
X7853121Y8663960D02*
G01*
X7949008Y8663960D01*
X7949008Y8531839D01*
X7853121Y8531839D01*
X5811215Y9286260D02*
G01*
X5715327Y9286260D01*
X5715327Y9154139D01*
X5811215Y9154139D01*
X5896457Y9286260D02*
G01*
X5992345Y9286260D01*
X5992345Y9154139D01*
X5896457Y9154139D01*
X6231178Y8663960D02*
G01*
X6135291Y8663960D01*
X6135291Y8531839D01*
X6231178Y8531839D01*
X6316421Y8663960D02*
G01*
X6412308Y8663960D01*
X6412308Y8531839D01*
X6316421Y8531839D01*
X7463078Y8663960D02*
G01*
X7367191Y8663960D01*
X7367191Y8531839D01*
X7463078Y8531839D01*
X7548321Y8663960D02*
G01*
X7644208Y8663960D01*
X7644208Y8531839D01*
X7548321Y8531839D01*
X5896457Y9319239D02*
G01*
X5992345Y9319239D01*
X5992345Y9451360D01*
X5896457Y9451360D01*
X5811215Y9319239D02*
G01*
X5715327Y9319239D01*
X5715327Y9451360D01*
X5811215Y9451360D01*
X5926378Y8663960D02*
G01*
X5830491Y8663960D01*
X5830491Y8531839D01*
X5926378Y8531839D01*
X6011621Y8663960D02*
G01*
X6107508Y8663960D01*
X6107508Y8531839D01*
X6011621Y8531839D01*
D13*
X5406598Y7082901D02*
G01*
X3686601Y7082901D01*
X3506602Y8662898D02*
G01*
X3506602Y7262901D01*
X5586597Y8662898D02*
G01*
X5586597Y7262901D01*
X5406598Y8842898D02*
G01*
X3686601Y8842898D01*
D14*
X4025900Y7587894D02*
G01*
X3429000Y7587894D01*
X3429000Y8337905D01*
X4025900Y8337905D01*
X4025900Y7587894D01*
D11*
X5932878Y7143275D02*
G01*
X6078120Y7143275D01*
X6078120Y7246437D01*
X5932878Y7448516D02*
G01*
X6078120Y7448516D01*
X6078120Y7345354D01*
X5932878Y7250356D02*
G01*
X5932878Y7341435D01*
X6724616Y7215578D02*
G01*
X6724616Y7360820D01*
X6621454Y7360820D01*
X6419375Y7215578D02*
G01*
X6419375Y7360820D01*
X6522537Y7360820D01*
X6617535Y7215578D02*
G01*
X6526456Y7215578D01*
X7074120Y7217178D02*
G01*
X7074120Y7362421D01*
X6970958Y7362421D01*
X6768879Y7217178D02*
G01*
X6768879Y7362421D01*
X6872041Y7362421D01*
X6967039Y7217178D02*
G01*
X6875960Y7217178D01*
X5831860Y7446721D02*
G01*
X5831860Y7542608D01*
X5699739Y7542608D01*
X5699739Y7446721D01*
X5831860Y7361478D02*
G01*
X5831860Y7265591D01*
X5699739Y7265591D01*
X5699739Y7361478D01*
X6256578Y7101860D02*
G01*
X6160691Y7101860D01*
X6160691Y6969739D01*
X6256578Y6969739D01*
X6341821Y7101860D02*
G01*
X6437708Y7101860D01*
X6437708Y6969739D01*
X6341821Y6969739D01*
X6866178Y7101860D02*
G01*
X6770291Y7101860D01*
X6770291Y6969739D01*
X6866178Y6969739D01*
X6951421Y7101860D02*
G01*
X7047308Y7101860D01*
X7047308Y6969739D01*
X6951421Y6969739D01*
X5831860Y7154621D02*
G01*
X5831860Y7250508D01*
X5699739Y7250508D01*
X5699739Y7154621D01*
X5831860Y7069378D02*
G01*
X5831860Y6973491D01*
X5699739Y6973491D01*
X5699739Y7069378D01*
X6548678Y7101860D02*
G01*
X6452791Y7101860D01*
X6452791Y6969739D01*
X6548678Y6969739D01*
X6633921Y7101860D02*
G01*
X6729808Y7101860D01*
X6729808Y6969739D01*
X6633921Y6969739D01*
X7158278Y7101860D02*
G01*
X7062391Y7101860D01*
X7062391Y6969739D01*
X7158278Y6969739D01*
X7243521Y7101860D02*
G01*
X7339408Y7101860D01*
X7339408Y6969739D01*
X7243521Y6969739D01*
X7289579Y7502121D02*
G01*
X7289579Y7356878D01*
X7392741Y7356878D01*
X7594820Y7502121D02*
G01*
X7594820Y7356878D01*
X7491658Y7356878D01*
X7396660Y7502121D02*
G01*
X7487739Y7502121D01*
X7004016Y8879278D02*
G01*
X7004016Y9024520D01*
X6900854Y9024520D01*
X6698775Y8879278D02*
G01*
X6698775Y9024520D01*
X6801937Y9024520D01*
X6896935Y8879278D02*
G01*
X6805856Y8879278D01*
X7497521Y7604739D02*
G01*
X7593408Y7604739D01*
X7593408Y7736860D01*
X7497521Y7736860D01*
X7412278Y7604739D02*
G01*
X7316391Y7604739D01*
X7316391Y7736860D01*
X7412278Y7736860D01*
X6789115Y8663960D02*
G01*
X6693227Y8663960D01*
X6693227Y8531839D01*
X6789115Y8531839D01*
X6874357Y8663960D02*
G01*
X6970245Y8663960D01*
X6970245Y8531839D01*
X6874357Y8531839D01*
X7205421Y7604739D02*
G01*
X7301308Y7604739D01*
X7301308Y7736860D01*
X7205421Y7736860D01*
X7120178Y7604739D02*
G01*
X7024291Y7604739D01*
X7024291Y7736860D01*
X7120178Y7736860D01*
X7081215Y8663960D02*
G01*
X6985327Y8663960D01*
X6985327Y8531839D01*
X7081215Y8531839D01*
X7166457Y8663960D02*
G01*
X7262345Y8663960D01*
X7262345Y8531839D01*
X7166457Y8531839D01*
D13*
G75*
G01*
X5586598Y8662904D02*
G03*
X5406603Y8842898I-180000J-5D01*
G75*
G01*
X3686597Y8842898D02*
G03*
X3506602Y8662904I5J-179999D01*
G75*
G01*
X5406603Y7082902D02*
G03*
X5586598Y7262896I-5J179999D01*
G75*
G01*
X3506602Y7262896D02*
G03*
X3686597Y7082902I180000J5D01*
G75*
G01
X5470601Y8402904D02*
G03X5470601Y8402904I-35001J0D01*
G75*
G01
X5470601Y7522896D02*
G03X5470601Y7522896I-35001J0D01*
D15*
G75*
G01
X3669386Y7221195D02*
G03X3669386Y7221195I-29997J0D01*
M02*
