G04 Layer: BottomLayer*
G04 EasyEDA v6.5.29, 2023-07-20 15:37:45*
G04 17ac077c781348d4b2828c41e336cf63,4bfb672c99b74c95bcb02992393faf10,10*
G04 Gerber Generator version 0.2*
G04 Scale: 100 percent, Rotated: No, Reflected: No *
G04 Dimensions in millimeters *
G04 leading zeros omitted , absolute positions ,4 integer and 5 decimal *
%FSLAX45Y45*%
%MOMM*%

%AMMACRO1*21,1,$1,$2,0,0,$3*%
%ADD10C,0.8000*%
%ADD11C,1.0000*%
%ADD12C,0.2540*%
%ADD13MACRO1,2X3.2X0.0000*%
%ADD14MACRO1,1.1999X2X90.0000*%
%ADD15MACRO1,1X3.8X0.0000*%
%ADD16MACRO1,1.5X3.4X0.0000*%
%ADD17O,1.5999968X3.5999928*%
%ADD18C,4.4000*%
%ADD19C,0.7000*%
%ADD20C,0.6100*%
%ADD21C,0.0187*%

%LPD*%
G36*
X3775456Y6625894D02*
G01*
X3738067Y6626859D01*
X3701491Y6629653D01*
X3665118Y6634276D01*
X3628999Y6640779D01*
X3593236Y6649110D01*
X3557981Y6659168D01*
X3523284Y6671056D01*
X3489198Y6684670D01*
X3455873Y6700012D01*
X3423361Y6717030D01*
X3391763Y6735622D01*
X3361131Y6755841D01*
X3331565Y6777583D01*
X3303168Y6800748D01*
X3275939Y6825335D01*
X3250031Y6851294D01*
X3225444Y6878523D01*
X3202279Y6906971D01*
X3180537Y6936536D01*
X3160369Y6967169D01*
X3141776Y6998817D01*
X3124809Y7031329D01*
X3109518Y7064654D01*
X3095904Y7098741D01*
X3084068Y7133488D01*
X3073958Y7168743D01*
X3065678Y7204506D01*
X3059226Y7240574D01*
X3054604Y7276998D01*
X3051810Y7313574D01*
X3050895Y7350404D01*
X3050895Y8949537D01*
X3051860Y8986926D01*
X3054654Y9023502D01*
X3059328Y9059875D01*
X3065780Y9095994D01*
X3074111Y9131706D01*
X3084220Y9167012D01*
X3096056Y9201708D01*
X3109722Y9235744D01*
X3125012Y9269069D01*
X3142030Y9301581D01*
X3160623Y9333230D01*
X3180842Y9363811D01*
X3202584Y9393377D01*
X3225749Y9421825D01*
X3250387Y9449054D01*
X3276295Y9474962D01*
X3303524Y9499549D01*
X3331972Y9522714D01*
X3361588Y9544405D01*
X3392220Y9564624D01*
X3423818Y9583216D01*
X3456330Y9600184D01*
X3489706Y9615474D01*
X3523742Y9629089D01*
X3558489Y9640925D01*
X3593744Y9650984D01*
X3629507Y9659264D01*
X3665626Y9665766D01*
X3701999Y9670389D01*
X3738575Y9673132D01*
X3775456Y9674047D01*
X8074558Y9674047D01*
X8111896Y9673132D01*
X8148472Y9670338D01*
X8184896Y9665665D01*
X8221014Y9659162D01*
X8256727Y9650882D01*
X8291982Y9640773D01*
X8326678Y9628886D01*
X8360765Y9615271D01*
X8394090Y9599930D01*
X8426602Y9582962D01*
X8458200Y9564319D01*
X8488832Y9544151D01*
X8518398Y9522409D01*
X8546846Y9499193D01*
X8574024Y9474606D01*
X8599982Y9448647D01*
X8624570Y9421418D01*
X8647734Y9392970D01*
X8669426Y9363405D01*
X8689594Y9332772D01*
X8708186Y9301175D01*
X8725154Y9268612D01*
X8740495Y9235287D01*
X8754059Y9201200D01*
X8765946Y9166504D01*
X8776004Y9131249D01*
X8784285Y9095486D01*
X8790736Y9059367D01*
X8795359Y9022994D01*
X8798153Y8986418D01*
X8799068Y8949537D01*
X8799068Y7350404D01*
X8798102Y7313066D01*
X8795308Y7276490D01*
X8790686Y7240066D01*
X8784183Y7203998D01*
X8775903Y7168235D01*
X8765794Y7132980D01*
X8753906Y7098284D01*
X8740292Y7064197D01*
X8724950Y7030872D01*
X8707932Y6998360D01*
X8689340Y6966762D01*
X8669121Y6936130D01*
X8647430Y6906564D01*
X8624214Y6878167D01*
X8599627Y6850938D01*
X8573668Y6824980D01*
X8546439Y6800392D01*
X8517991Y6777228D01*
X8488426Y6755536D01*
X8457793Y6735368D01*
X8426145Y6716775D01*
X8393633Y6699808D01*
X8360308Y6684467D01*
X8326221Y6670903D01*
X8291474Y6659016D01*
X8256219Y6648958D01*
X8220506Y6640677D01*
X8184388Y6634225D01*
X8147964Y6629603D01*
X8111388Y6626809D01*
X8074558Y6625894D01*
G37*

%LPC*%
G36*
X6009284Y7103872D02*
G01*
X6208115Y7103872D01*
X6214465Y7104583D01*
X6219901Y7106462D01*
X6224828Y7109561D01*
X6228537Y7113270D01*
X6231839Y7115505D01*
X6235700Y7116267D01*
X6239611Y7115505D01*
X6242913Y7113270D01*
X6246571Y7109612D01*
X6251498Y7106513D01*
X6256934Y7104583D01*
X6263284Y7103872D01*
X6462115Y7103872D01*
X6468465Y7104583D01*
X6473901Y7106513D01*
X6478828Y7109612D01*
X6482537Y7113270D01*
X6485788Y7115505D01*
X6489700Y7116267D01*
X6493611Y7115505D01*
X6496862Y7113270D01*
X6500571Y7109612D01*
X6505498Y7106513D01*
X6510934Y7104583D01*
X6517284Y7103872D01*
X6716115Y7103872D01*
X6722465Y7104583D01*
X6727901Y7106513D01*
X6732828Y7109612D01*
X6736537Y7113270D01*
X6739788Y7115505D01*
X6743700Y7116267D01*
X6747611Y7115505D01*
X6750862Y7113270D01*
X6754571Y7109612D01*
X6759498Y7106513D01*
X6764934Y7104583D01*
X6771284Y7103872D01*
X6970115Y7103872D01*
X6976465Y7104583D01*
X6981901Y7106513D01*
X6986828Y7109612D01*
X6990537Y7113270D01*
X6993788Y7115505D01*
X6997700Y7116267D01*
X7001611Y7115505D01*
X7004862Y7113270D01*
X7008571Y7109612D01*
X7013498Y7106513D01*
X7018934Y7104583D01*
X7025284Y7103872D01*
X7224115Y7103872D01*
X7230465Y7104583D01*
X7235901Y7106513D01*
X7240828Y7109612D01*
X7244537Y7113270D01*
X7247788Y7115505D01*
X7251700Y7116267D01*
X7255611Y7115505D01*
X7258862Y7113270D01*
X7262571Y7109612D01*
X7267498Y7106513D01*
X7272934Y7104583D01*
X7279284Y7103872D01*
X7478115Y7103872D01*
X7484465Y7104583D01*
X7489901Y7106513D01*
X7494828Y7109612D01*
X7498892Y7113676D01*
X7501991Y7118603D01*
X7503871Y7124039D01*
X7504582Y7130389D01*
X7504582Y7449210D01*
X7503871Y7455560D01*
X7501991Y7460996D01*
X7498892Y7465923D01*
X7494828Y7469987D01*
X7489901Y7473086D01*
X7484465Y7475016D01*
X7478115Y7475728D01*
X7279284Y7475728D01*
X7272934Y7475016D01*
X7267498Y7473086D01*
X7262571Y7469987D01*
X7258862Y7466279D01*
X7255611Y7464094D01*
X7251700Y7463332D01*
X7247788Y7464094D01*
X7244537Y7466279D01*
X7240828Y7469987D01*
X7235901Y7473086D01*
X7230465Y7475016D01*
X7224115Y7475728D01*
X7190231Y7475829D01*
X7180529Y7477455D01*
X7170470Y7477455D01*
X7160768Y7475829D01*
X7025284Y7475728D01*
X7018934Y7475016D01*
X7013498Y7473086D01*
X7008571Y7469987D01*
X7004862Y7466279D01*
X7001611Y7464094D01*
X6997700Y7463332D01*
X6993788Y7464094D01*
X6990537Y7466279D01*
X6986828Y7469987D01*
X6981901Y7473086D01*
X6976465Y7475016D01*
X6970115Y7475728D01*
X6771284Y7475728D01*
X6764934Y7475016D01*
X6759498Y7473086D01*
X6754571Y7469987D01*
X6750862Y7466279D01*
X6747611Y7464094D01*
X6743700Y7463332D01*
X6739788Y7464094D01*
X6736537Y7466279D01*
X6732828Y7469987D01*
X6727901Y7473086D01*
X6722465Y7475016D01*
X6716115Y7475728D01*
X6580631Y7475829D01*
X6570929Y7477455D01*
X6560870Y7477455D01*
X6551168Y7475829D01*
X6517284Y7475728D01*
X6510934Y7475016D01*
X6505498Y7473086D01*
X6500571Y7469987D01*
X6496862Y7466279D01*
X6493611Y7464094D01*
X6489700Y7463332D01*
X6485788Y7464094D01*
X6482537Y7466279D01*
X6478828Y7469987D01*
X6473901Y7473086D01*
X6468465Y7475016D01*
X6462115Y7475728D01*
X6326632Y7475829D01*
X6316929Y7477455D01*
X6306870Y7477455D01*
X6297168Y7475829D01*
X6263284Y7475728D01*
X6256934Y7475016D01*
X6251498Y7473086D01*
X6246571Y7469987D01*
X6242862Y7466279D01*
X6239560Y7464094D01*
X6235700Y7463332D01*
X6231788Y7464094D01*
X6228486Y7466279D01*
X6224828Y7469987D01*
X6219901Y7473035D01*
X6214465Y7474966D01*
X6208115Y7475677D01*
X6188760Y7475677D01*
X6177229Y7477455D01*
X6167170Y7477455D01*
X6155639Y7475677D01*
X6009284Y7475677D01*
X6002934Y7474966D01*
X5997498Y7473035D01*
X5992571Y7469987D01*
X5988507Y7465872D01*
X5985408Y7460996D01*
X5983528Y7455509D01*
X5982817Y7449210D01*
X5982817Y7130338D01*
X5983528Y7124039D01*
X5985408Y7118553D01*
X5988507Y7113676D01*
X5992571Y7109561D01*
X5997498Y7106462D01*
X6002934Y7104583D01*
G37*
G36*
X4508500Y7319314D02*
G01*
X4522317Y7320229D01*
X4535881Y7322921D01*
X4549038Y7327392D01*
X4561433Y7333488D01*
X4572965Y7341209D01*
X4583379Y7350353D01*
X4592523Y7360767D01*
X4600194Y7372248D01*
X4606340Y7384694D01*
X4610760Y7397800D01*
X4613503Y7411364D01*
X4614418Y7425537D01*
X4614418Y7624876D01*
X4613503Y7638999D01*
X4610760Y7652613D01*
X4606340Y7665720D01*
X4600194Y7678166D01*
X4592523Y7689646D01*
X4588459Y7694269D01*
X4586732Y7697063D01*
X4574489Y7726578D01*
X4573574Y7731912D01*
X4571136Y7741970D01*
X4567174Y7751521D01*
X4561789Y7760309D01*
X4554829Y7768488D01*
X4237888Y8085429D01*
X4229709Y8092389D01*
X4220210Y8098231D01*
X4216704Y8101431D01*
X4214520Y8105038D01*
X4212691Y8110321D01*
X4209592Y8115198D01*
X4205478Y8119313D01*
X4200601Y8122361D01*
X4195114Y8124291D01*
X4188815Y8125002D01*
X3989933Y8125002D01*
X3983634Y8124291D01*
X3978198Y8122361D01*
X3973271Y8119313D01*
X3969207Y8115198D01*
X3966108Y8110321D01*
X3964178Y8104835D01*
X3963466Y8098536D01*
X3963466Y7979664D01*
X3964178Y7973364D01*
X3966108Y7967878D01*
X3969207Y7963001D01*
X3973271Y7958886D01*
X3978198Y7955838D01*
X3983634Y7953908D01*
X3989933Y7953197D01*
X4179468Y7953197D01*
X4183379Y7952435D01*
X4186682Y7950200D01*
X4428286Y7708646D01*
X4430369Y7705547D01*
X4431233Y7701889D01*
X4430725Y7698181D01*
X4428896Y7694930D01*
X4424578Y7689748D01*
X4421682Y7685481D01*
X4418888Y7682687D01*
X4415231Y7681163D01*
X4411268Y7681163D01*
X4407611Y7682687D01*
X4404817Y7685481D01*
X4402023Y7689646D01*
X4392879Y7700060D01*
X4382465Y7709204D01*
X4370933Y7716926D01*
X4364329Y7720177D01*
X4364329Y7621574D01*
X4392422Y7621574D01*
X4396333Y7620762D01*
X4399635Y7618577D01*
X4401820Y7615275D01*
X4402582Y7611414D01*
X4402582Y7438999D01*
X4401820Y7435138D01*
X4399635Y7431836D01*
X4396333Y7429601D01*
X4392422Y7428839D01*
X4364329Y7428839D01*
X4364329Y7330236D01*
X4370933Y7333488D01*
X4382465Y7341209D01*
X4392879Y7350353D01*
X4402023Y7360767D01*
X4404817Y7364933D01*
X4407611Y7367727D01*
X4411268Y7369251D01*
X4415231Y7369251D01*
X4418888Y7367727D01*
X4421682Y7364933D01*
X4424476Y7360767D01*
X4433620Y7350353D01*
X4444034Y7341209D01*
X4455566Y7333488D01*
X4467961Y7327392D01*
X4481118Y7322921D01*
X4494682Y7320229D01*
G37*
G36*
X4271670Y7330236D02*
G01*
X4271670Y7428839D01*
X4212082Y7428839D01*
X4212082Y7425537D01*
X4212996Y7411364D01*
X4215739Y7397800D01*
X4220159Y7384694D01*
X4226306Y7372248D01*
X4233976Y7360767D01*
X4243120Y7350353D01*
X4253534Y7341209D01*
X4265066Y7333488D01*
G37*
G36*
X4212082Y7621574D02*
G01*
X4271670Y7621574D01*
X4271670Y7720177D01*
X4265066Y7716926D01*
X4253534Y7709204D01*
X4243120Y7700060D01*
X4233976Y7689646D01*
X4226306Y7678166D01*
X4220159Y7665720D01*
X4215739Y7652613D01*
X4212996Y7638999D01*
X4212082Y7624876D01*
G37*
G36*
X3989984Y7703210D02*
G01*
X4188866Y7703210D01*
X4195165Y7703921D01*
X4200601Y7705852D01*
X4205528Y7708900D01*
X4209592Y7713014D01*
X4212691Y7717891D01*
X4214622Y7723378D01*
X4215333Y7729677D01*
X4215333Y7848549D01*
X4214622Y7854848D01*
X4212691Y7860334D01*
X4209592Y7865211D01*
X4205528Y7869326D01*
X4200601Y7872374D01*
X4195165Y7874304D01*
X4188866Y7875016D01*
X3989984Y7875016D01*
X3983685Y7874304D01*
X3978198Y7872374D01*
X3973322Y7869326D01*
X3969207Y7865211D01*
X3966108Y7860334D01*
X3964228Y7854848D01*
X3963517Y7848549D01*
X3963517Y7729677D01*
X3964228Y7723378D01*
X3966108Y7717891D01*
X3969207Y7713014D01*
X3973322Y7708900D01*
X3978198Y7705852D01*
X3983685Y7703921D01*
G37*
G36*
X3419957Y7703210D02*
G01*
X3618839Y7703210D01*
X3625138Y7703921D01*
X3630625Y7705852D01*
X3635501Y7708900D01*
X3639616Y7713014D01*
X3642715Y7717891D01*
X3644595Y7723378D01*
X3645306Y7729677D01*
X3645306Y7848549D01*
X3644595Y7854848D01*
X3642715Y7860334D01*
X3639616Y7865211D01*
X3635501Y7869326D01*
X3630625Y7872374D01*
X3625138Y7874304D01*
X3618839Y7875016D01*
X3419957Y7875016D01*
X3413658Y7874304D01*
X3408222Y7872374D01*
X3403295Y7869326D01*
X3399231Y7865211D01*
X3396132Y7860334D01*
X3394201Y7854848D01*
X3393490Y7848549D01*
X3393490Y7729677D01*
X3394201Y7723378D01*
X3396132Y7717891D01*
X3399231Y7713014D01*
X3403295Y7708900D01*
X3408222Y7705852D01*
X3413658Y7703921D01*
G37*
G36*
X3575761Y7953197D02*
G01*
X3618839Y7953197D01*
X3625138Y7953908D01*
X3630625Y7955838D01*
X3635501Y7958886D01*
X3639616Y7963001D01*
X3642715Y7967878D01*
X3644595Y7973364D01*
X3645306Y7979664D01*
X3645306Y8002727D01*
X3575761Y8002727D01*
G37*
G36*
X3419957Y7953197D02*
G01*
X3463086Y7953197D01*
X3463086Y8002727D01*
X3393490Y8002727D01*
X3393490Y7979664D01*
X3394201Y7973364D01*
X3396132Y7967878D01*
X3399231Y7963001D01*
X3403295Y7958886D01*
X3408222Y7955838D01*
X3413658Y7953908D01*
G37*
G36*
X4530242Y8000441D02*
G01*
X4530242Y8100568D01*
X4430217Y8100568D01*
X4434535Y8092389D01*
X4446371Y8074152D01*
X4459782Y8056981D01*
X4474667Y8041131D01*
X4490872Y8026603D01*
X4508296Y8013598D01*
X4526788Y8002168D01*
G37*
G36*
X4762957Y8000492D02*
G01*
X4775758Y8007654D01*
X4793742Y8019897D01*
X4810607Y8033664D01*
X4826152Y8048904D01*
X4840274Y8065414D01*
X4852924Y8083143D01*
X4863134Y8100568D01*
X4762957Y8100568D01*
G37*
G36*
X3575761Y8075422D02*
G01*
X3645306Y8075422D01*
X3645306Y8098536D01*
X3644595Y8104835D01*
X3642715Y8110321D01*
X3639616Y8115198D01*
X3635501Y8119313D01*
X3630625Y8122361D01*
X3625138Y8124291D01*
X3618839Y8125002D01*
X3575761Y8125002D01*
G37*
G36*
X3393490Y8075422D02*
G01*
X3463086Y8075422D01*
X3463086Y8125002D01*
X3419957Y8125002D01*
X3413658Y8124291D01*
X3408222Y8122361D01*
X3403295Y8119313D01*
X3399231Y8115198D01*
X3396132Y8110321D01*
X3394201Y8104835D01*
X3393490Y8098536D01*
G37*
G36*
X3419957Y8203184D02*
G01*
X3618839Y8203184D01*
X3625138Y8203895D01*
X3630625Y8205825D01*
X3635501Y8208873D01*
X3639616Y8212988D01*
X3642715Y8217865D01*
X3644595Y8223351D01*
X3645306Y8229650D01*
X3645306Y8270697D01*
X3645814Y8273796D01*
X3647236Y8276640D01*
X3730091Y8392414D01*
X3740099Y8402675D01*
X3745737Y8409533D01*
X3747109Y8411464D01*
X3751732Y8419134D01*
X3752799Y8421217D01*
X3756660Y8431123D01*
X3759809Y8439861D01*
X3760520Y8446160D01*
X3760520Y8825026D01*
X3759809Y8831376D01*
X3757879Y8836812D01*
X3754780Y8841689D01*
X3750716Y8845804D01*
X3745788Y8848902D01*
X3740353Y8850782D01*
X3734054Y8851493D01*
X3635146Y8851493D01*
X3628847Y8850782D01*
X3623411Y8848902D01*
X3618484Y8845804D01*
X3614420Y8841689D01*
X3611321Y8836812D01*
X3609390Y8831376D01*
X3608679Y8825026D01*
X3608628Y8490000D01*
X3607866Y8486140D01*
X3605631Y8482838D01*
X3590391Y8467547D01*
X3587902Y8465718D01*
X3407918Y8372348D01*
X3403142Y8369198D01*
X3401009Y8367268D01*
X3397300Y8362543D01*
X3394913Y8357260D01*
X3393592Y8351316D01*
X3393490Y8229650D01*
X3394201Y8223351D01*
X3396132Y8217865D01*
X3399231Y8212988D01*
X3403295Y8208873D01*
X3408222Y8205825D01*
X3413658Y8203895D01*
G37*
G36*
X3989984Y8203184D02*
G01*
X4188866Y8203184D01*
X4195165Y8203895D01*
X4200601Y8205825D01*
X4205528Y8208873D01*
X4209592Y8212988D01*
X4212691Y8217865D01*
X4214622Y8223351D01*
X4215333Y8229650D01*
X4215333Y8348522D01*
X4214622Y8354822D01*
X4212691Y8360308D01*
X4209592Y8365185D01*
X4205478Y8369350D01*
X4200906Y8372297D01*
X4029456Y8461298D01*
X4026611Y8463432D01*
X4024731Y8466480D01*
X3961333Y8621572D01*
X3960571Y8625332D01*
X3960520Y8825026D01*
X3959809Y8831376D01*
X3957878Y8836812D01*
X3954779Y8841689D01*
X3950715Y8845804D01*
X3945788Y8848902D01*
X3940352Y8850782D01*
X3934053Y8851493D01*
X3835146Y8851493D01*
X3828846Y8850782D01*
X3823411Y8848902D01*
X3818483Y8845804D01*
X3814419Y8841689D01*
X3811320Y8836812D01*
X3809390Y8831376D01*
X3808679Y8825026D01*
X3808679Y8446211D01*
X3809542Y8439353D01*
X3811524Y8433968D01*
X3814673Y8429142D01*
X3819245Y8424722D01*
X3898900Y8363458D01*
X3900932Y8361324D01*
X3961587Y8276590D01*
X3963009Y8273796D01*
X3963517Y8270697D01*
X3963517Y8229650D01*
X3964228Y8223351D01*
X3966108Y8217865D01*
X3969207Y8212988D01*
X3973322Y8208873D01*
X3978198Y8205825D01*
X3983685Y8203895D01*
G37*
G36*
X4430217Y8333231D02*
G01*
X4530242Y8333231D01*
X4530242Y8433358D01*
X4526788Y8431631D01*
X4508296Y8420201D01*
X4490872Y8407196D01*
X4474667Y8392668D01*
X4459782Y8376818D01*
X4446371Y8359648D01*
X4434535Y8341410D01*
G37*
G36*
X4762957Y8333231D02*
G01*
X4863134Y8333231D01*
X4852924Y8350656D01*
X4840274Y8368385D01*
X4826152Y8384895D01*
X4810607Y8400135D01*
X4793742Y8413902D01*
X4775758Y8426145D01*
X4762957Y8433308D01*
G37*
G36*
X5887110Y8522208D02*
G01*
X5898489Y8522208D01*
X5909665Y8523935D01*
X5920536Y8527288D01*
X5930747Y8532164D01*
X5940094Y8538565D01*
X5948426Y8546287D01*
X5955487Y8555177D01*
X5961176Y8564981D01*
X5965291Y8575548D01*
X5967831Y8586571D01*
X5968695Y8598255D01*
X5968695Y8702344D01*
X5969457Y8706205D01*
X5971692Y8709507D01*
X5974994Y8711742D01*
X5978855Y8712504D01*
X7530744Y8712504D01*
X7542428Y8713368D01*
X7553452Y8715908D01*
X7564018Y8720023D01*
X7573822Y8725712D01*
X7582712Y8732774D01*
X7590434Y8741105D01*
X7596835Y8750452D01*
X7601712Y8760663D01*
X7605064Y8771534D01*
X7606792Y8782710D01*
X7606792Y8794089D01*
X7605064Y8805265D01*
X7601712Y8816136D01*
X7596835Y8826347D01*
X7590434Y8835694D01*
X7582712Y8844026D01*
X7573822Y8851087D01*
X7564018Y8856776D01*
X7553452Y8860891D01*
X7542428Y8863431D01*
X7530744Y8864295D01*
X5978855Y8864295D01*
X5974994Y8865057D01*
X5971692Y8867292D01*
X5969457Y8870594D01*
X5968695Y8874455D01*
X5968695Y8969857D01*
X5969609Y8974124D01*
X5972251Y8977579D01*
X5976061Y8979662D01*
X5980379Y8979916D01*
X5984443Y8978392D01*
X5987491Y8975293D01*
X5988507Y8973667D01*
X5992571Y8969552D01*
X5997498Y8966504D01*
X6002934Y8964574D01*
X6009284Y8963863D01*
X6208115Y8963863D01*
X6214465Y8964574D01*
X6219901Y8966504D01*
X6224828Y8969552D01*
X6228537Y8973261D01*
X6231788Y8975445D01*
X6235700Y8976258D01*
X6239611Y8975445D01*
X6242862Y8973261D01*
X6246571Y8969552D01*
X6251498Y8966504D01*
X6256934Y8964574D01*
X6263284Y8963863D01*
X6462115Y8963863D01*
X6468465Y8964574D01*
X6473901Y8966504D01*
X6478828Y8969552D01*
X6482537Y8973261D01*
X6485788Y8975445D01*
X6489700Y8976258D01*
X6493611Y8975445D01*
X6496862Y8973261D01*
X6500571Y8969552D01*
X6505498Y8966504D01*
X6510934Y8964574D01*
X6517284Y8963863D01*
X6716115Y8963863D01*
X6722465Y8964574D01*
X6727901Y8966504D01*
X6732828Y8969552D01*
X6736537Y8973261D01*
X6739788Y8975445D01*
X6743700Y8976258D01*
X6747611Y8975445D01*
X6750862Y8973261D01*
X6754571Y8969552D01*
X6759498Y8966504D01*
X6764934Y8964574D01*
X6771284Y8963863D01*
X6826148Y8963863D01*
X6828637Y8963558D01*
X6833565Y8961272D01*
X6843064Y8957970D01*
X6852970Y8956344D01*
X6863029Y8956344D01*
X6872935Y8957970D01*
X6882434Y8961272D01*
X6887362Y8963558D01*
X6889851Y8963863D01*
X6970115Y8963863D01*
X6976465Y8964574D01*
X6981901Y8966504D01*
X6986828Y8969552D01*
X6990537Y8973261D01*
X6993788Y8975445D01*
X6997700Y8976258D01*
X7001611Y8975445D01*
X7004862Y8973261D01*
X7008571Y8969552D01*
X7013498Y8966504D01*
X7018934Y8964574D01*
X7025284Y8963863D01*
X7224115Y8963863D01*
X7230465Y8964574D01*
X7235901Y8966504D01*
X7240828Y8969552D01*
X7244537Y8973261D01*
X7247788Y8975445D01*
X7251700Y8976258D01*
X7255611Y8975445D01*
X7258862Y8973261D01*
X7262571Y8969552D01*
X7267498Y8966504D01*
X7272934Y8964574D01*
X7279284Y8963863D01*
X7478115Y8963863D01*
X7484465Y8964574D01*
X7489901Y8966504D01*
X7494828Y8969552D01*
X7498892Y8973667D01*
X7501991Y8978544D01*
X7503871Y8984030D01*
X7504633Y8990330D01*
X7504633Y9284563D01*
X7505547Y9288830D01*
X7508189Y9292336D01*
X7512050Y9294368D01*
X7516418Y9294571D01*
X7520482Y9292945D01*
X7523480Y9289745D01*
X7524851Y9285579D01*
X7526172Y9272930D01*
X7529880Y9255201D01*
X7535418Y9237929D01*
X7542631Y9221317D01*
X7551572Y9205569D01*
X7562037Y9190837D01*
X7574025Y9177223D01*
X7587284Y9164929D01*
X7601813Y9154058D01*
X7617307Y9144711D01*
X7633716Y9137040D01*
X7650835Y9131096D01*
X7668463Y9126931D01*
X7686395Y9124594D01*
X7704531Y9124137D01*
X7722565Y9125559D01*
X7740396Y9128810D01*
X7757769Y9133840D01*
X7774533Y9140698D01*
X7790535Y9149181D01*
X7805572Y9159290D01*
X7819440Y9170873D01*
X7832090Y9183878D01*
X7843367Y9198051D01*
X7853070Y9213342D01*
X7861147Y9229547D01*
X7867548Y9246514D01*
X7872171Y9263989D01*
X7874965Y9281871D01*
X7875879Y9299956D01*
X7874965Y9318091D01*
X7872171Y9335973D01*
X7867548Y9353448D01*
X7861147Y9370415D01*
X7853070Y9386620D01*
X7843367Y9401911D01*
X7832090Y9416084D01*
X7819440Y9429089D01*
X7805572Y9440672D01*
X7790535Y9450781D01*
X7774533Y9459264D01*
X7757769Y9466122D01*
X7740396Y9471152D01*
X7722565Y9474403D01*
X7704531Y9475825D01*
X7686395Y9475368D01*
X7668463Y9473031D01*
X7650835Y9468866D01*
X7633716Y9462922D01*
X7617307Y9455251D01*
X7601813Y9445904D01*
X7587284Y9435033D01*
X7574025Y9422739D01*
X7562037Y9409125D01*
X7551572Y9394393D01*
X7542631Y9378645D01*
X7535418Y9362033D01*
X7529880Y9344761D01*
X7526172Y9327032D01*
X7524546Y9311436D01*
X7523276Y9307423D01*
X7520482Y9304274D01*
X7516622Y9302546D01*
X7512405Y9302496D01*
X7508544Y9304223D01*
X7505700Y9307322D01*
X7504379Y9311335D01*
X7503871Y9315500D01*
X7501991Y9320987D01*
X7498892Y9325864D01*
X7494828Y9329978D01*
X7489901Y9333077D01*
X7484465Y9334957D01*
X7478115Y9335668D01*
X7279284Y9335668D01*
X7272934Y9334957D01*
X7267498Y9333077D01*
X7262571Y9329978D01*
X7258862Y9326270D01*
X7255611Y9324086D01*
X7251700Y9323273D01*
X7247788Y9324086D01*
X7244537Y9326270D01*
X7240828Y9329978D01*
X7235901Y9333077D01*
X7230465Y9334957D01*
X7224115Y9335668D01*
X7025284Y9335668D01*
X7018934Y9334957D01*
X7013498Y9333077D01*
X7008571Y9329978D01*
X7004862Y9326270D01*
X7001611Y9324086D01*
X6997700Y9323273D01*
X6993788Y9324086D01*
X6990537Y9326270D01*
X6986828Y9329978D01*
X6981901Y9333077D01*
X6976465Y9334957D01*
X6970115Y9335668D01*
X6771284Y9335668D01*
X6764934Y9334957D01*
X6759498Y9333077D01*
X6754571Y9329978D01*
X6750862Y9326270D01*
X6747611Y9324086D01*
X6743700Y9323273D01*
X6739788Y9324086D01*
X6736537Y9326270D01*
X6732828Y9329978D01*
X6727901Y9333077D01*
X6722465Y9334957D01*
X6716115Y9335668D01*
X6517284Y9335668D01*
X6510934Y9334957D01*
X6505498Y9333077D01*
X6500571Y9329978D01*
X6496862Y9326270D01*
X6493611Y9324086D01*
X6489700Y9323273D01*
X6485788Y9324086D01*
X6482537Y9326270D01*
X6478828Y9329978D01*
X6473901Y9333077D01*
X6468465Y9334957D01*
X6462115Y9335668D01*
X6263284Y9335668D01*
X6256934Y9334957D01*
X6251498Y9333077D01*
X6246571Y9329978D01*
X6242862Y9326270D01*
X6239611Y9324086D01*
X6235700Y9323273D01*
X6231788Y9324086D01*
X6228537Y9326270D01*
X6224828Y9329978D01*
X6219901Y9333077D01*
X6214465Y9334957D01*
X6208115Y9335668D01*
X6009284Y9335668D01*
X6004204Y9335973D01*
X6000496Y9338056D01*
X5998006Y9341459D01*
X5997092Y9345574D01*
X5997956Y9349740D01*
X6002528Y9360255D01*
X6005474Y9371177D01*
X6006744Y9382455D01*
X6006287Y9393783D01*
X6004204Y9404959D01*
X6000445Y9415627D01*
X5995162Y9425686D01*
X5988405Y9434779D01*
X5980379Y9442805D01*
X5971286Y9449562D01*
X5961227Y9454845D01*
X5950559Y9458604D01*
X5939383Y9460687D01*
X5928055Y9461144D01*
X5916777Y9459874D01*
X5905855Y9456928D01*
X5895441Y9452406D01*
X5885840Y9446361D01*
X5876950Y9438690D01*
X5837275Y9398965D01*
X5830214Y9390126D01*
X5825591Y9382506D01*
X5824474Y9380321D01*
X5821070Y9372092D01*
X5820308Y9369755D01*
X5818174Y9361119D01*
X5817768Y9358680D01*
X5816955Y9349841D01*
X5816904Y8598255D01*
X5817768Y8586571D01*
X5820308Y8575548D01*
X5824423Y8564981D01*
X5830112Y8555177D01*
X5837174Y8546287D01*
X5845505Y8538565D01*
X5854852Y8532164D01*
X5865063Y8527288D01*
X5875934Y8523935D01*
G37*
G36*
X3375151Y9024670D02*
G01*
X3524046Y9024670D01*
X3530346Y9025382D01*
X3535832Y9027312D01*
X3540709Y9030411D01*
X3544824Y9034475D01*
X3547872Y9039402D01*
X3549802Y9044838D01*
X3550513Y9051188D01*
X3550513Y9390024D01*
X3549802Y9396374D01*
X3547872Y9401810D01*
X3544824Y9406686D01*
X3540709Y9410801D01*
X3535832Y9413900D01*
X3530346Y9415780D01*
X3524046Y9416491D01*
X3375151Y9416491D01*
X3368852Y9415780D01*
X3363366Y9413900D01*
X3358489Y9410801D01*
X3354374Y9406686D01*
X3351326Y9401810D01*
X3349396Y9396374D01*
X3348685Y9390024D01*
X3348685Y9051188D01*
X3349396Y9044838D01*
X3351326Y9039402D01*
X3354374Y9034475D01*
X3358489Y9030411D01*
X3363366Y9027312D01*
X3368852Y9025382D01*
G37*
G36*
X4045153Y9024670D02*
G01*
X4194048Y9024670D01*
X4200347Y9025382D01*
X4205833Y9027312D01*
X4210710Y9030411D01*
X4214825Y9034475D01*
X4217873Y9039402D01*
X4219803Y9044838D01*
X4220514Y9051188D01*
X4220514Y9223400D01*
X4221276Y9227261D01*
X4223461Y9230512D01*
X4226712Y9232747D01*
X4230573Y9233560D01*
X4234434Y9232849D01*
X4237736Y9230715D01*
X4239971Y9227464D01*
X4242663Y9221317D01*
X4251553Y9205569D01*
X4262069Y9190837D01*
X4274007Y9177223D01*
X4287316Y9164929D01*
X4301794Y9154058D01*
X4317339Y9144711D01*
X4333748Y9137040D01*
X4350816Y9131096D01*
X4368444Y9126931D01*
X4386427Y9124594D01*
X4404512Y9124137D01*
X4422597Y9125559D01*
X4440377Y9128810D01*
X4457801Y9133840D01*
X4474565Y9140698D01*
X4490516Y9149181D01*
X4505553Y9159290D01*
X4519472Y9170873D01*
X4532122Y9183878D01*
X4543348Y9198051D01*
X4553051Y9213342D01*
X4561179Y9229547D01*
X4567529Y9246514D01*
X4572152Y9263989D01*
X4574946Y9281871D01*
X4575860Y9299956D01*
X4574946Y9318091D01*
X4572152Y9335973D01*
X4567529Y9353448D01*
X4561179Y9370415D01*
X4553051Y9386620D01*
X4543348Y9401911D01*
X4532122Y9416084D01*
X4519472Y9429089D01*
X4505553Y9440672D01*
X4490516Y9450781D01*
X4474565Y9459264D01*
X4457801Y9466122D01*
X4440377Y9471152D01*
X4422597Y9474403D01*
X4404512Y9475825D01*
X4386427Y9475368D01*
X4368444Y9473031D01*
X4350816Y9468866D01*
X4333748Y9462922D01*
X4317339Y9455251D01*
X4301794Y9445904D01*
X4287316Y9435033D01*
X4274007Y9422739D01*
X4262069Y9409125D01*
X4251553Y9394393D01*
X4242663Y9378645D01*
X4239971Y9372498D01*
X4237736Y9369247D01*
X4234434Y9367113D01*
X4230573Y9366402D01*
X4226712Y9367215D01*
X4223461Y9369399D01*
X4221276Y9372701D01*
X4220514Y9376562D01*
X4220514Y9390024D01*
X4219803Y9396374D01*
X4217873Y9401810D01*
X4214825Y9406686D01*
X4210710Y9410801D01*
X4205833Y9413900D01*
X4200347Y9415780D01*
X4194048Y9416491D01*
X4045153Y9416491D01*
X4038854Y9415780D01*
X4033367Y9413900D01*
X4028490Y9410801D01*
X4024376Y9406686D01*
X4021328Y9401810D01*
X4019397Y9396374D01*
X4018686Y9390024D01*
X4018686Y9051188D01*
X4019397Y9044838D01*
X4021328Y9039402D01*
X4024376Y9034475D01*
X4028490Y9030411D01*
X4033367Y9027312D01*
X4038854Y9025382D01*
G37*

%LPD*%
G36*
X4866182Y8230666D02*
G01*
X4632807Y7997342D01*
X4823053Y7969758D01*
X4893767Y8040471D01*
G37*
G36*
X6145936Y7393635D02*
G01*
X6159500Y7369149D01*
X6184900Y7369149D01*
X6198463Y7393635D01*
G37*
G36*
X6285636Y7393635D02*
G01*
X6299200Y7369149D01*
X6324600Y7369149D01*
X6338163Y7393635D01*
G37*
G36*
X6539636Y7393635D02*
G01*
X6553200Y7369149D01*
X6578600Y7369149D01*
X6592163Y7393635D01*
G37*
G36*
X6334150Y9218777D02*
G01*
X6293408Y9185656D01*
X6319316Y9175140D01*
X6339179Y9191244D01*
G37*
G36*
X6645249Y9218777D02*
G01*
X6640220Y9191244D01*
X6660083Y9175140D01*
X6685991Y9185656D01*
G37*
G36*
X6858000Y9066428D02*
G01*
X6838848Y9046311D01*
X6889496Y9032341D01*
X6883400Y9059418D01*
G37*
G36*
X7429500Y9077350D02*
G01*
X7415936Y9052864D01*
X7468463Y9052864D01*
X7454900Y9077350D01*
G37*
G36*
X4189425Y8099094D02*
G01*
X4189425Y7979105D01*
X4191000Y7999120D01*
X4191000Y8079079D01*
G37*
G36*
X3604818Y8445296D02*
G01*
X3419398Y8349081D01*
X3619398Y8282279D01*
X3710787Y8409889D01*
G37*
G36*
X3619398Y8099094D02*
G01*
X3503117Y7979105D01*
X3642461Y7907324D01*
X3712057Y7979156D01*
G37*
G36*
X4004005Y8445296D02*
G01*
X3897985Y8409889D01*
X3989374Y8282279D01*
X4189425Y8349081D01*
G37*
G36*
X3934612Y8618524D02*
G01*
X3834587Y8445601D01*
X3954526Y8353348D01*
X4006342Y8442960D01*
G37*
G36*
X4468520Y7721600D02*
G01*
X4428490Y7625232D01*
X4588510Y7625232D01*
X4548479Y7721600D01*
G37*
G36*
X4237990Y7625232D02*
G01*
X4095242Y7575245D01*
X4095242Y7475270D01*
X4237990Y7425232D01*
G37*
D10*
X4089400Y8039100D02*
G01*
X4191000Y8039100D01*
X4508500Y7721600D01*
X4508500Y7525258D01*
D11*
X4646675Y8216900D02*
G01*
X5002275Y7861300D01*
X5816600Y7861300D01*
X6585198Y9409099D02*
G01*
X6599499Y9423400D01*
X7353300Y9423400D01*
X7086600Y7670800D02*
G01*
X7086600Y8483600D01*
X7200900Y8597900D01*
X7086600Y7670800D02*
G01*
X7086600Y7619237D01*
X7176261Y7529576D01*
X7346441Y7529576D01*
D12*
X6108700Y7289774D02*
G01*
X6172200Y7353274D01*
X6172200Y7416800D01*
D11*
X6077198Y7705699D02*
G01*
X5905500Y7534003D01*
X5905500Y7200900D01*
X5816600Y7861300D02*
G01*
X5921502Y7861300D01*
X6077204Y7705597D01*
X5905500Y7200900D02*
G01*
X5905500Y7035800D01*
X5803900Y7035800D01*
X6667500Y7035800D02*
G01*
X5803900Y7035800D01*
X7656575Y7219695D02*
G01*
X7656575Y7418323D01*
X7542275Y7529576D01*
X7347204Y7529576D01*
X7276236Y7035800D02*
G01*
X7543800Y7035800D01*
X7656575Y7148576D01*
X7656575Y7219695D01*
X6667500Y7035800D02*
G01*
X7276236Y7035800D01*
X6261100Y8788400D02*
G01*
X7531100Y8788400D01*
X5892800Y8597900D02*
G01*
X5892800Y8788400D01*
X6261100Y8788400D01*
X5892800Y8597900D02*
G01*
X5892800Y9347200D01*
X5930900Y9385300D01*
X3519424Y8039100D02*
G01*
X3581400Y8039100D01*
X4095241Y7525258D01*
X4318000Y7525258D01*
X3684524Y8635492D02*
G01*
X3684524Y8454389D01*
X3519424Y8289036D01*
X3884675Y8635492D02*
G01*
X3884675Y8494013D01*
X4089400Y8289036D01*
D12*
X6870700Y9149768D02*
G01*
X6870700Y9029700D01*
X6858000Y9017000D01*
X6870712Y9029712D01*
X6870712Y9042400D01*
X6311900Y7416800D02*
G01*
X6311900Y7340600D01*
X6362700Y7289800D01*
X6565900Y7416800D02*
G01*
X6565900Y7340600D01*
X6616700Y7289800D01*
X6362700Y9149768D02*
G01*
X6299200Y9213268D01*
X6299200Y9220200D01*
X7378700Y9149768D02*
G01*
X7442200Y9086268D01*
X7442200Y9029700D01*
X6616700Y9149768D02*
G01*
X6680200Y9213268D01*
X6680200Y9220200D01*
D13*
G01*
X7378697Y7289797D03*
G01*
X7124700Y7289797D03*
G01*
X6870700Y7289797D03*
G01*
X6616700Y7289797D03*
G01*
X6362700Y7289797D03*
G01*
X6108700Y7289772D03*
G01*
X6108700Y9149768D03*
G01*
X6362700Y9149768D03*
G01*
X6616700Y9149768D03*
G01*
X6870700Y9149768D03*
G01*
X7124700Y9149768D03*
G01*
X7378700Y9149768D03*
D14*
G01*
X4089397Y8039100D03*
G01*
X4089400Y7789100D03*
G01*
X3519403Y8289099D03*
G01*
X3519398Y8039100D03*
G01*
X3519398Y7789100D03*
G01*
X4089400Y8289099D03*
D15*
G01*
X3684600Y8635601D03*
G01*
X3884599Y8635601D03*
D16*
G01*
X4119603Y9220597D03*
G01*
X3449596Y9220597D03*
D17*
G01*
X4508500Y7525207D03*
G01*
X4318000Y7525207D03*
D18*
G01*
X4646599Y8216900D03*
D19*
G01*
X6172200Y7416800D03*
G01*
X6311900Y7416800D03*
G01*
X6565900Y7416800D03*
G01*
X6921500Y7404100D03*
G01*
X7175500Y7416800D03*
G01*
X7442200Y7302500D03*
G01*
X6172200Y9042400D03*
G01*
X6299200Y9220200D03*
G01*
X6680200Y9220200D03*
G01*
X6858000Y9017000D03*
G01*
X7442200Y9029700D03*
G01*
X5892800Y8597900D03*
G01*
X5930900Y9385300D03*
G01*
X6261100Y8788400D03*
G01*
X5816600Y7861300D03*
G01*
X6077204Y7705699D03*
G01*
X5905500Y7200900D03*
G01*
X5803900Y7035800D03*
G01*
X7531100Y8788400D03*
G01*
X7353300Y9423400D03*
G01*
X7200900Y8597900D03*
G01*
X7086600Y7670800D03*
G01*
X7347204Y7529499D03*
G01*
X7656575Y7219695D03*
G01*
X7276236Y7035800D03*
G01*
X6667500Y7035800D03*
G01*
X6585204Y9409099D03*
D20*
G01*
X3132200Y8592769D03*
G01*
X3132200Y7592771D03*
G01*
X4132199Y9592767D03*
G01*
X4132199Y8592769D03*
G01*
X5132197Y9592767D03*
G01*
X5132197Y8592769D03*
G01*
X5132197Y7592771D03*
G01*
X7132193Y9592767D03*
G01*
X8132190Y9592767D03*
G01*
X8132190Y8592769D03*
G01*
X8132190Y7592771D03*
M02*
